<svg xmlns="http://www.w3.org/2000/svg" viewBox="0 0 244.62 244.62"><defs><style>.cls-1{fill:none;}.cls-2{fill:#fff;}.cls-3{fill:#2c3532;}</style></defs><g id="Camada_2" data-name="Camada 2"><g id="Camada_1-2" data-name="Camada 1"><circle class="cls-1" cx="122.31" cy="122.31" r="122.31"/><path class="cls-2" d="M96,51.94c9.06,0,19.28,2.51,28.34,2.51a31.46,31.46,0,0,0,12.92-2.51H138l7.71,55.91h-1.93c-15.62-35.28-32.58-54-47.81-54-17.93,0-24.48,17.93-24.48,68.44s6.36,68.44,24.1,68.44c13.69,0,35.47-20.63,51.09-59.19h1.93l-7.71,60.54h-.77a40.75,40.75,0,0,0-14.46-2.31c-10,0-20.63,2.89-30.08,2.89-40.68,0-70.37-29.69-70.37-70.37S55.13,51.94,96,51.94Z"/><path class="cls-3" d="M120.48,122.31c0,38,13.3,67.86,43.38,67.86,18.89,0,33.35-9.45,33.35-29.5V154.5c0-18.32-4.43-26.61-21.59-28.73v-1.35h43.76v1.16c-7.71,1.35-9.83,6.17-9.83,28.92v32h-.77c-12.34-5-22.17,5.59-44.92,5.59-34.7,0-60.34-29.5-60.34-69.79s24.87-69.79,59.57-69.79c11.37,0,25.45,4.24,34.7,0h.77l7.52,48.2h-1.73c-10.22-32-22.36-46.27-41.26-46.27C133,54.44,120.48,84.33,120.48,122.31Z"/></g></g></svg>