<svg xmlns="http://www.w3.org/2000/svg" viewBox="0 0 492.55 44.36"><defs><style>.cls-1,.cls-10,.cls-11,.cls-12,.cls-13,.cls-2,.cls-3,.cls-4,.cls-5,.cls-6,.cls-7,.cls-8,.cls-9{fill:#6e766b;fill-rule:evenodd;isolation:isolate;}.cls-1{opacity:0.87;}.cls-2{opacity:0.92;}.cls-3{opacity:0.88;}.cls-4{opacity:0.87;}.cls-5{opacity:0.93;}.cls-6{opacity:0.82;}.cls-7{opacity:0.88;}.cls-8{opacity:0.94;}.cls-9{opacity:0.89;}.cls-10{opacity:0.82;}.cls-11{opacity:0.93;}.cls-12{opacity:0.85;}.cls-13{opacity:0.86;}</style></defs><g id="Camada_2" data-name="Camada 2"><g id="Camada_1-2" data-name="Camada 1"><path class="cls-1" d="M477.68,0q8.29,1.31,2,6.5a60.39,60.39,0,0,0,11,.5c.22,3.68.56,7.35,1,11a3.08,3.08,0,0,1-3-1q-5.16-9.13-15-5.5-3.93,10.86,8,12.5v3q-12.24-1-10.5,11,6.39,5.55,13.5.5a46.53,46.53,0,0,1,6-5.5q3.46,1.38.5,4-9.17,9.89-22.5,6.5-12.24-3.22-7-14.5a18.14,18.14,0,0,1,6-4q-9-4.68-4.5-14a19.16,19.16,0,0,1,8.5-3.5c1.14-.74,1.14-1.57,0-2.5A6.23,6.23,0,0,0,477.68,0Z"/><path class="cls-2" d="M13.68,7a171.92,171.92,0,0,1,22,1q-.81,6-2,12h-3q-2.55-12.78-15-8.5Q6,23.4,13.18,37a11.59,11.59,0,0,0,12.5,3.5,49.37,49.37,0,0,0,12-7.5,15.87,15.87,0,0,1-11,10.5Q-2.18,47.64.18,19A18.2,18.2,0,0,1,13.68,7Z"/><path class="cls-3" d="M53.68,7a7.39,7.39,0,0,1,5.5,6q5.7,13.89,10.5,28h4v3h-17a4.69,4.69,0,0,1,2-4,78.87,78.87,0,0,0-9.5-5q-7.23,2.94-2.5,9h-10V41a4.86,4.86,0,0,0,4-1Q47.61,23.64,53.68,7Zm-3,16a4.26,4.26,0,0,1,2.5,3,25.84,25.84,0,0,1,2,7,34.63,34.63,0,0,0-7.5-1.5A30,30,0,0,0,50.68,23Z"/><path class="cls-4" d="M76.68,7a60.39,60.39,0,0,1,11,.5q5.07,11,11,21.5,5.17-10.26,9.5-21a41.42,41.42,0,0,1,12.5-1v3h-3V41h3v3h-17V41h3q.24-10-.5-20a242,242,0,0,1-11,23,125,125,0,0,1-12-23,199.17,199.17,0,0,0-.5,20h3v3h-9V41h3V10h-3Z"/><path class="cls-5" d="M123.68,7h16v3h-3V41h3v3h-16V41h3V10h-3Z"/><path class="cls-6" d="M142.68,7h17v3h-3V41q12.09,1.64,19-8a25.82,25.82,0,0,1,0,11h-33V41h3V10h-3Z"/><path class="cls-7" d="M196.68,7a3.28,3.28,0,0,1,3.5,2q6.24,15.49,12.5,31a4.86,4.86,0,0,0,4,1v3h-17a4.69,4.69,0,0,1,2-4,76.12,76.12,0,0,1-9.5-5,7.64,7.64,0,0,0-5.5,5.5,5,5,0,0,0,3,.5v3h-10V41h4Q190.16,24,196.68,7Zm1,25a13.12,13.12,0,0,1-7-1q1.89-3.93,3.5-8A26.26,26.26,0,0,1,197.68,32Z"/><path class="cls-8" d="M247.68,7a71.92,71.92,0,0,1,22,2q-1.35,5-2.5,10a3.71,3.71,0,0,1-1.5,1,39.81,39.81,0,0,0-6-8.5Q250,7.72,245.18,17q-4.67,12.81,4.5,22.5,6,3.54,10.5-1.5a36.61,36.61,0,0,0,0-12,11.22,11.22,0,0,1-2.5-2,32.58,32.58,0,0,1,16,0,11.45,11.45,0,0,1-2.5,2,131.85,131.85,0,0,1-1.5,15.5q-16.87,6.24-32-3-10.69-14.83,2-28A44.21,44.21,0,0,1,247.68,7Z"/><path class="cls-9" d="M291.68,7a3.42,3.42,0,0,1,3.5,3l12,30a4.38,4.38,0,0,0,3.5,1v3h-16a3.26,3.26,0,0,1,2-3.5q-.81-3.16-3-1.5-7-8.47-12,1a4.72,4.72,0,0,1,2,4h-9V41a3.59,3.59,0,0,0,4.5-3Q285.28,22.4,291.68,7Zm-6,25a26.26,26.26,0,0,1,3.5-9c1.07,2.71,2.23,5.38,3.5,8A13.15,13.15,0,0,1,285.68,32Z"/><path class="cls-10" d="M313.68,7h17v3h-3V41a20.64,20.64,0,0,0,16.5-5,5,5,0,0,0,.5-3h3a71,71,0,0,0-1,11h-33V41h3V10h-3Z"/><path class="cls-11" d="M350.68,7h16v3h-3V41h3v3h-16V41h3V10h-3Z"/><path class="cls-12" d="M372.68,7h31v3a4.6,4.6,0,0,0-4.5,2q-7.06,14.37-14.5,28.5,11.15,2.72,16-7.5a13.8,13.8,0,0,1,0,10,241.24,241.24,0,0,1-31,1V41a4.86,4.86,0,0,0,4-1q7.88-14.26,15-29-11.12-3.47-16,7A18.91,18.91,0,0,1,372.68,7Z"/><path class="cls-13" d="M423.68,7q3.82.09,4.5,4,5.74,14.51,11.5,29a4.86,4.86,0,0,0,4,1v3h-17a4.69,4.69,0,0,1,2-4,76.12,76.12,0,0,1-9.5-5,11,11,0,0,0-5.5,5.5,5,5,0,0,0,3,.5v3h-10V41a4.86,4.86,0,0,0,4-1Q417.48,23.58,423.68,7Zm-3,16a4.26,4.26,0,0,1,2.5,3,25.84,25.84,0,0,1,2,7q-3.72-.93-7.5-2A29.11,29.11,0,0,0,420.68,23Z"/></g></g></svg>