<svg xmlns="http://www.w3.org/2000/svg" viewBox="0 0 311.3 40.03"><defs><style>.cls-1,.cls-4,.cls-5,.cls-6,.cls-7{fill:#c9b68d;}.cls-1,.cls-2,.cls-3,.cls-4,.cls-5,.cls-6,.cls-7{fill-rule:evenodd;isolation:isolate;}.cls-1{opacity:0.9;}.cls-2,.cls-3{fill:#cab68d;}.cls-2{opacity:0.88;}.cls-3{opacity:0.92;}.cls-4{opacity:0.91;}.cls-5{opacity:0.85;}.cls-6{opacity:0.86;}.cls-7{opacity:0.92;}</style></defs><g id="Camada_2" data-name="Camada 2"><g id="Camada_1-2" data-name="Camada 1"><path class="cls-1" d="M13.68.59a170.12,170.12,0,0,1,22,1q-.81,6-2,12l-3,0q-2.55-12.78-15-8.5Q6,17,13.18,30.59a11.59,11.59,0,0,0,12.5,3.5,50,50,0,0,0,12-7.5,15.87,15.87,0,0,1-11,10.5Q-2.18,41.22.18,12.59A18.16,18.16,0,0,1,13.68.59Z"/><path class="cls-2" d="M62.18.59a7.39,7.39,0,0,1,5.5,6q5.7,13.88,10.5,28h4V37.1L65.63,40c-.94-2.81-.42-5,1.55-6.44a76.12,76.12,0,0,0-9.5-5q-7.23,2.94-2.5,9h-10v-3a4.86,4.86,0,0,0,4-1Q56.11,17.22,62.18.59Zm-3.5,15.5a4.22,4.22,0,0,1,2.5,3,25.74,25.74,0,0,1,2,7,33.47,33.47,0,0,0-7.5-1.5A30.12,30.12,0,0,0,58.68,16.09Z"/><path class="cls-3" d="M92.08.64a151,151,0,0,1,36.1,2.45q7.4,4,3.5,11.5a36.92,36.92,0,0,1-12.5,5.5,29,29,0,0,1,4.5,2.5,68.83,68.83,0,0,0,7.5,11.5,8.5,8.5,0,0,0,4,.5v3q-16.7,4.53-20.5-12-2.88-4.41-7.5-2a30.91,30.91,0,0,0-1,11h3v3h-16v-3h3v-31h-4Zm13.6,2.45a40.77,40.77,0,0,1,13,1.5q6.54,6.75-2,11-5.06,1.59-10,3.5A64.57,64.57,0,0,1,105.68,3.09Z"/><path class="cls-4" d="M146.18.59h16v3h-3v31h3v3h-16v-3h3v-31h-3Z"/><path class="cls-5" d="M172.23.63a84.45,84.45,0,0,1,14,.46,171.07,171.07,0,0,1,12.5,17.5,113.83,113.83,0,0,0,.5-15h-3v-3h9v3h-3v34a4.62,4.62,0,0,1-4.5-2q-8.62-13.77-18-27-.75,13-.5,26h3v3h-9v-3h3v-31h-3.86Z"/><path class="cls-6" d="M216.18.59h17v3h-3a56.79,56.79,0,0,0,1,15,17.32,17.32,0,0,1,11.5,0,113.83,113.83,0,0,0,.5-15h-3v-3h17v3h-3v31h3v3h-17v-3h3q2.61-11.51-8.5-14a4.36,4.36,0,0,0-4,2,71.78,71.78,0,0,0-.5,12h3v3h-17v-3h3v-31h-3Z"/><path class="cls-7" d="M281.68.09a67.19,67.19,0,0,1,18,1.5q15.24,7.74,10.5,24.5a15.93,15.93,0,0,1-13.5,10.5q-15.51,3.55-26.5-7.5a26.59,26.59,0,0,1-1-20A23.91,23.91,0,0,1,281.68.09Zm4,3q11.52-1.23,14.5,10,2.83,11.44-5.5,19.5-16.79,3.77-17-14Q277.19,8.32,285.68,3.09Z"/></g></g></svg>