<svg xmlns="http://www.w3.org/2000/svg" viewBox="0 0 313.14 37.54"><defs><style>.cls-1,.cls-3,.cls-5,.cls-6{fill:#c9b68d;}.cls-1,.cls-2,.cls-3,.cls-4,.cls-5,.cls-6{fill-rule:evenodd;isolation:isolate;}.cls-1{opacity:0.9;}.cls-2{fill:#cab68d;opacity:0.88;}.cls-3{opacity:0.91;}.cls-4{fill:#c9b68e;opacity:0.87;}.cls-5{opacity:0.88;}.cls-6{opacity:0.93;}</style></defs><g id="Camada_2" data-name="Camada 2"><g id="Camada_1-2" data-name="Camada 1"><path class="cls-1" d="M13.68.17a170.12,170.12,0,0,1,22,1q-.81,6-2,12h-3q-2.55-12.78-15-8.5Q6,16.55,13.18,30.17a11.59,11.59,0,0,0,12.5,3.5,50,50,0,0,0,12-7.5,15.87,15.87,0,0,1-11,10.5Q-2.18,40.8.18,12.17A18.16,18.16,0,0,1,13.68.17Z"/><path class="cls-2" d="M48.68.17h16v3h-3a147.21,147.21,0,0,0,1.5,28q7.58,6.22,13-2,.75-13,.5-26h-3v-3h9v3h-3q.24,13.5-.5,27-3.81,8.16-13,7-9.27.86-14-7-.75-13.5-.5-27h-3Z"/><path class="cls-3" d="M94.68.17h16v3h-3v31h3v3h-16v-3h3v-31h-3Z"/><path class="cls-4" d="M121.68.17a115.56,115.56,0,0,1,31,2.5q12.78,7.85,8.5,22.5-4.87,11.56-17.5,11.5-11,.75-22,.5v-3h3v-31h-3Zm14,3q16.37-.63,16,16-.36,15.85-16,15Z"/><path class="cls-2" d="M186.68.17a3.42,3.42,0,0,1,3.5,3l12,30a4.42,4.42,0,0,0,3.5,1v3h-16a3.26,3.26,0,0,1,2-3.5q-.81-3.17-3-1.5-7-8.48-12,1a4.71,4.71,0,0,1,2,4h-9v-3a3.59,3.59,0,0,0,4.5-3Q180.29,15.56,186.68.17Zm-6,25a26.26,26.26,0,0,1,3.5-9c1.07,2.7,2.23,5.37,3.5,8A13.25,13.25,0,0,1,180.68,25.17Z"/><path class="cls-5" d="M216.68.17a115.56,115.56,0,0,1,31,2.5q12.75,7.79,8.5,22.5-4.81,11.53-17.5,11.5-11,.75-22,.5v-3h3v-31h-3Zm14,3q16-.75,16,15.5t-16,15.5Z"/><path class="cls-6" d="M283.68.17a67.19,67.19,0,0,1,18,1.5q14.77,7.32,10.5,23.5-3.26,9.77-13.5,11.5-15.51,3.55-26.5-7.5a26.59,26.59,0,0,1-1-20A18.41,18.41,0,0,1,283.68.17Zm4,3q11.52-1.23,14.5,10,2.83,11.45-5.5,19.5-13.21,4-16.5-9.5Q277.57,10.51,287.68,3.17Z"/></g></g></svg>