<svg xmlns="http://www.w3.org/2000/svg" viewBox="0 0 392.46 49.01"><defs><style>.cls-1,.cls-3,.cls-4,.cls-5,.cls-6,.cls-7,.cls-8,.cls-9{fill:#c9b68d;}.cls-1,.cls-2,.cls-3,.cls-4,.cls-5,.cls-6,.cls-7,.cls-8,.cls-9{fill-rule:evenodd;isolation:isolate;}.cls-1{opacity:0.87;}.cls-2{fill:#cab68d;opacity:0.9;}.cls-3{opacity:0.88;}.cls-4{opacity:0.89;}.cls-5{opacity:0.86;}.cls-6{opacity:0.9;}.cls-7{opacity:0.88;}.cls-8{opacity:0.9;}.cls-9{opacity:0.93;}</style></defs><g id="Camada_2" data-name="Camada 2"><g id="Camada_1-2" data-name="Camada 1"><path class="cls-1" d="M320,0a11.21,11.21,0,0,1,6,2,6.82,6.82,0,0,1,4-1c.12,3.61-1.55,5.77-5,6.5q6.94,16.14,13.5,32.5a4.38,4.38,0,0,0,3.5,1v3H325V41q5.12.57,1.5-3a3.58,3.58,0,0,1-1.5,1q-7-8.47-12,1a4.72,4.72,0,0,1,2,4H305V41a6.51,6.51,0,0,0,4.5-1Q315.81,23.32,323,7c-1.28-2.63-2.62-2.63-4,0A5.54,5.54,0,0,1,320,0Zm0,23a54.78,54.78,0,0,1,4,8q-3.79,1.06-7.5,2A35.7,35.7,0,0,1,320,23Z"/><path class="cls-2" d="M0,7A115.94,115.94,0,0,1,31,9.5q9.55,5.09,9,16-1,16.95-18,18Q11,44.25,0,44V41H3V10H0Zm13,3Q30.13,8.38,29,25.5,30.13,42.63,13,41Z"/><path class="cls-3" d="M62,7H81c.22,3.68.56,7.35,1,11a3.08,3.08,0,0,1-3-1q-5.15-9.13-15-5.5Q60.09,22.36,72,24v3Q59.76,26,61.5,38q6.39,5.55,13.5.5A46.53,46.53,0,0,1,81,33c2.32.92,2.48,2.25.5,4Q72.34,46.89,59,43.5,46.05,39.39,53,28a26.3,26.3,0,0,1,5-3q-9.34-5.17-4-14.5A44.21,44.21,0,0,1,62,7Z"/><path class="cls-4" d="M93,7a116,116,0,0,1,31,2.5q10.16,4.68,9,16-.09,17.6-18,18-11,.75-22,.5V41h3V10H93Zm14,3q16-.72,16,15.5T107,41Z"/><path class="cls-5" d="M144,7h17v3h-3V41h3v3H144V41h3V10h-3Z"/><path class="cls-6" d="M186,7a171.84,171.84,0,0,1,22,1q-1,6-2,12h-3q-2.55-12.78-15-8.5-11.85,14.09,0,28,11.94,4.52,19-6a5,5,0,0,1,3-.5,15.87,15.87,0,0,1-11,10.5Q167.33,46.85,173.5,16A24,24,0,0,1,186,7Z"/><path class="cls-7" d="M234,7q3.83.09,4.5,4,5.75,14.51,11.5,29a4.86,4.86,0,0,0,4,1v3H237a4.72,4.72,0,0,1,2-4,76.12,76.12,0,0,1-9.5-5,11,11,0,0,0-5.5,5.5,5,5,0,0,0,3,.5v3H217V41a4.86,4.86,0,0,0,4-1Q227.81,23.59,234,7Zm-3,16a4.26,4.26,0,0,1,2.5,3,25.84,25.84,0,0,1,2,7q-3.7-.93-7.5-2A29.11,29.11,0,0,0,231,23Z"/><path class="cls-8" d="M275,7a145.68,145.68,0,0,1,21,1,20.25,20.25,0,0,1-3,12,42,42,0,0,0-6-8.5q-9.22-4-14.5,4.5a36.8,36.8,0,0,0-1,16q5.89,13.88,19.5,6.5l5-5c1-.59,1.65-.26,2,1q-5.1,9.33-16,10.5a5.49,5.49,0,0,1-6,4,4.72,4.72,0,0,1,2-4q-24-6.54-15.5-30A23.22,23.22,0,0,1,275,7Z"/><path class="cls-9" d="M363,7a67.94,67.94,0,0,1,18,1.5q14.78,7.32,10.5,23.5-3.25,9.77-13.5,11.5-15.5,3.57-26.5-7.5Q341.65,14.78,363,7Zm4,3q11.52-1.23,14.5,10,2.83,11.46-5.5,19.5-13.25,4-16.5-9.5Q356.91,17.3,367,10Z"/></g></g></svg>