<svg xmlns="http://www.w3.org/2000/svg" viewBox="0 0 433.97 456.59"><defs><style>.cls-1{fill:#fafafa;}.cls-2{fill:#e0e0e0;}.cls-3{fill:#ebebeb;}.cls-4{fill:#f5f5f5;}.cls-5{fill:#263238;}.cls-6{opacity:0.6;}.cls-7{fill:#6c786c;}.cls-8{fill:#fff;}.cls-9{fill:#f1e4d6;}.cls-10{opacity:0.3;}.cls-11{fill:#455a64;}.cls-12{fill:#ff725e;}.cls-13{fill:#ffbe9d;}.cls-14{fill:#eb996e;}</style></defs><g id="Camada_2" data-name="Camada 2"><g id="Background_Complete" data-name="Background Complete"><circle class="cls-1" cx="58.48" cy="129.92" r="34.81"/><path class="cls-2" d="M93.64,129.85a9.77,9.77,0,0,1-.28-2.23,17.46,17.46,0,0,0-.34-2.68,25.27,25.27,0,0,0-.75-3.6,33.56,33.56,0,0,0-3.86-9.23,34.69,34.69,0,0,0-8.75-9.82A34.37,34.37,0,0,0,47.2,97.13a32.08,32.08,0,0,0-8.71,4.58A38.6,38.6,0,0,0,34.58,105a38.71,38.71,0,0,0-3.39,3.93,34.09,34.09,0,0,0-.48,40.43,40.2,40.2,0,0,0,3.3,4,39,39,0,0,0,3.84,3.35,31.86,31.86,0,0,0,8.6,4.78,34.63,34.63,0,0,0,41.55-14,33.93,33.93,0,0,0,4.08-9.13,27.15,27.15,0,0,0,.83-3.58,18.26,18.26,0,0,0,.4-2.67,9.64,9.64,0,0,1,.33-2.22,9.67,9.67,0,0,1,0,2.25,15.12,15.12,0,0,1-.21,2.73,25.39,25.39,0,0,1-.68,3.68A33.08,33.08,0,0,1,88.92,148a35.08,35.08,0,0,1-9.08,10.15,35.45,35.45,0,0,1-15.13,6.66,35.91,35.91,0,0,1-18.89-1.69,33.59,33.59,0,0,1-9.09-5,41.83,41.83,0,0,1-4.06-3.51,43.29,43.29,0,0,1-3.5-4.22,35.83,35.83,0,0,1,.51-42.67,40.72,40.72,0,0,1,3.59-4.13,41.72,41.72,0,0,1,4.14-3.42,33.87,33.87,0,0,1,9.2-4.76A36,36,0,0,1,65.54,94.2a35.69,35.69,0,0,1,23.81,17.37,33.33,33.33,0,0,1,3.66,9.6,24.34,24.34,0,0,1,.58,3.69,15.59,15.59,0,0,1,.16,2.74A9.75,9.75,0,0,1,93.64,129.85Z"/><path class="cls-2" d="M86.33,108c.08.11-.55.67-1.76,1.59l-2.24,1.65c-.44.32-.91.67-1.43,1l-1.72.93a39.52,39.52,0,0,1-20.59,5.46l-3.13-.1-3-.43c-.49-.08-1-.13-1.46-.23l-1.41-.35c-.92-.24-1.83-.45-2.71-.72a44.31,44.31,0,0,1-8.81-3.93c-4.75-2.78-7.07-5.35-6.9-5.51s2.78,1.91,7.55,4.31a51.8,51.8,0,0,0,8.68,3.43c.84.23,1.72.4,2.61.62l1.35.32,1.4.19,2.87.39,3,.08a42.86,42.86,0,0,0,20-4.74l1.74-.79c.53-.28,1-.59,1.47-.85L84.15,109C85.48,108.23,86.25,107.87,86.33,108Z"/><path class="cls-2" d="M30.65,151.42c-.08-.11.54-.67,1.76-1.6l2.24-1.65c.44-.31.91-.66,1.42-1l1.72-.92a39.59,39.59,0,0,1,20.6-5.46l3.13.1,3,.43c.49.07,1,.13,1.46.22l1.4.36c.93.24,1.84.45,2.72.72a45.17,45.17,0,0,1,8.81,3.92c4.75,2.79,7.07,5.35,6.9,5.52s-2.78-1.91-7.55-4.32a53.06,53.06,0,0,0-8.68-3.42c-.84-.23-1.72-.41-2.61-.62l-1.35-.32-1.4-.19-2.88-.39-3-.08a42.71,42.71,0,0,0-19.95,4.74l-1.74.78c-.53.29-1,.59-1.47.86l-2.38,1.35C31.5,151.17,30.73,151.52,30.65,151.42Z"/><path class="cls-2" d="M93.63,130.67c0,.53-15.75.78-35.16.55s-35.14-.84-35.13-1.38,15.74-.78,35.16-.55S93.64,130.13,93.63,130.67Z"/><path class="cls-2" d="M57.29,164.56c-.53,0-.78-15.74-.55-35.14s.84-35.13,1.38-35.13.78,15.74.55,35.15S57.83,164.57,57.29,164.56Z"/><path class="cls-2" d="M57.29,164.51c-.13.2-4-2.37-8.57-8.26a47.17,47.17,0,0,1-6.43-11.32,42.4,42.4,0,0,1-2.91-15.72,40.14,40.14,0,0,1,3.35-15.63,49.17,49.17,0,0,1,6.72-11.14c4.66-5.78,8.53-8.36,8.67-8.16s-3.31,3.14-7.58,9a52.61,52.61,0,0,0-6.17,11,40.61,40.61,0,0,0-3.06,15A42.44,42.44,0,0,0,44,144.29a50.79,50.79,0,0,0,5.86,11.16C54,161.39,57.49,164.29,57.29,164.51Z"/><path class="cls-2" d="M58.9,94.29c.13-.2,4,2.37,8.58,8.26a47.51,47.51,0,0,1,6.43,11.32,42.4,42.4,0,0,1,2.91,15.72,40.32,40.32,0,0,1-3.35,15.63,49.17,49.17,0,0,1-6.72,11.14c-4.66,5.78-8.53,8.36-8.67,8.16s3.31-3.14,7.58-9a52.61,52.61,0,0,0,6.17-11,40.61,40.61,0,0,0,3.06-15,42.89,42.89,0,0,0-2.65-15.06,50.79,50.79,0,0,0-5.86-11.16C62.23,97.41,58.71,94.51,58.9,94.29Z"/><path class="cls-3" d="M58.07,163.49c.14,0,.26,5.07.26,11.32s-.12,11.33-.26,11.33-.26-5.07-.26-11.33S57.92,163.49,58.07,163.49Z"/><path class="cls-3" d="M84.64,74.37a1.43,1.43,0,0,1-.46.06l-1.34,0-4.91.08c-4.15,0-9.87.08-16.2.08H57.66l.26-.26c0,5.32-.07,10-.09,13.45,0,1.62-.06,3-.08,4a9.19,9.19,0,0,1-.09,1.44,9.19,9.19,0,0,1-.09-1.44c0-1,0-2.34-.08-4,0-3.46-.05-8.13-.08-13.45v-.25h4.33c6.33,0,12.05,0,16.2.08l4.91.08,1.34,0A2.43,2.43,0,0,1,84.64,74.37Z"/><rect class="cls-3" x="295.8" y="405.44" width="10.78" height="50.89"/><rect class="cls-3" x="387.44" y="405.44" width="10.78" height="50.89"/><rect class="cls-3" x="277.97" y="341.46" width="136.04" height="12.58"/><polygon class="cls-3" points="408.59 406.08 286.25 406.35 286.25 354.05 408.59 354.05 408.59 406.08"/><path class="cls-2" d="M414,354.05c0,.13-30.46.24-68,.24s-68-.11-68-.24,30.45-.25,68-.25S414,353.91,414,354.05Z"/><path class="cls-2" d="M408.14,406.34c0,.14-27.19.25-60.72.25s-60.72-.11-60.72-.25,27.18-.24,60.72-.24S408.14,406.21,408.14,406.34Z"/><path class="cls-2" d="M398.5,395.75s0-.21,0-.6,0-1,0-1.74c0-1.54,0-3.78,0-6.69,0-5.83-.05-14.29-.09-24.91l.16.16-102.16.08h0l.24-.24c0,11.79,0,23.23,0,33.94l-.23-.24,73.07.11,21.35.07,5.73,0H398l.52,0H398l-1.46,0-5.68,0-21.3.06-73.23.11h-.24v-.23c0-10.71,0-22.15,0-33.94v-.24h.25l102.16.08h.16v.16c0,10.66-.07,19.16-.09,25,0,2.9,0,5.13,0,6.66,0,.74,0,1.31,0,1.71S398.5,395.75,398.5,395.75Z"/><path class="cls-2" d="M300.39,391.3a9,9,0,0,1-1.78,2.26,8.62,8.62,0,0,1-2.13,1.93,16.25,16.25,0,0,1,3.91-4.19Z"/><path class="cls-2" d="M300.39,366.26a9.54,9.54,0,0,1-2.21-2.05,9.37,9.37,0,0,1-1.84-2.39,9.53,9.53,0,0,1,2.2,2.06A9.43,9.43,0,0,1,300.39,366.26Z"/><path class="cls-2" d="M398.68,361.92a8.77,8.77,0,0,1-2.22,2.35,13.72,13.72,0,0,1-2.55,2,8.88,8.88,0,0,1,2.22-2.36A13.91,13.91,0,0,1,398.68,361.92Z"/><path class="cls-2" d="M398.5,395.75A10.5,10.5,0,0,1,396,393.7a10.78,10.78,0,0,1-2.13-2.4,10.43,10.43,0,0,1,2.47,2.05A10.56,10.56,0,0,1,398.5,395.75Z"/><path class="cls-2" d="M393.91,391.3s0-.16,0-.44,0-.73,0-1.28c0-1.13,0-2.77,0-4.91,0-4.28,0-10.52-.08-18.41l.15.15-93.52.1h0l.25-.25c0,8.61,0,17,0,25l-.24-.24,66.74.11,19.64.06,5.29,0h1.38l.48,0h-.45l-1.35,0-5.24,0-19.58.07-66.91.11h-.24V366h.25l93.52.09h.15v.15c0,7.92-.06,14.19-.08,18.5,0,2.12,0,3.76,0,4.88,0,.54,0,.95,0,1.25S393.91,391.3,393.91,391.3Z"/><path class="cls-2" d="M356.41,376.45a9.7,9.7,0,0,0-2.51-1.15,8,8,0,0,0-2.48-.38h-6.88a7.94,7.94,0,0,0-5.49,2.12,4.79,4.79,0,0,0-.82,1,2.83,2.83,0,0,0,.27,3.37c.88.83,2.69.42,2.84-.78a3,3,0,0,0,3.17,2.81,4,4,0,0,0,3.39-2.93,2.68,2.68,0,0,0,5.34.4c.85,1.11,2.11,2.14,3.56,1.67a2.56,2.56,0,0,0,1.65-1.84A4.12,4.12,0,0,0,356.41,376.45Z"/><path class="cls-3" d="M345.76,374.89a13.76,13.76,0,0,0-2.83,2.58,14.07,14.07,0,0,0-1.59,3.49c-.06,0-.1-.46,0-1.18a6.91,6.91,0,0,1,3.27-4.5C345.29,374.93,345.74,374.83,345.76,374.89Z"/><path class="cls-3" d="M348.4,375.17a8.17,8.17,0,0,1,0,2.74,7.73,7.73,0,0,1-.53,2.68,7.76,7.76,0,0,1,0-2.73A7.88,7.88,0,0,1,348.4,375.17Z"/><path class="cls-3" d="M351.72,375.09s.39.1.8.55a4.32,4.32,0,0,1,1,2.12,8,8,0,0,1,0,2.3c-.08.57-.18.92-.24.92s-.1-.37-.11-.94a13.2,13.2,0,0,0-.15-2.2,5.2,5.2,0,0,0-.76-2C351.94,375.39,351.67,375.15,351.72,375.09Z"/><rect class="cls-3" x="305.4" y="422.58" width="83.83" height="9.82"/><path class="cls-2" d="M368.15,328.72v12.64H313.78a6.32,6.32,0,0,1-6.32-6.32h0a6.32,6.32,0,0,1,6.32-6.32"/><path class="cls-3" d="M349.85,331.37h18.3a0,0,0,0,1,0,0v7.34a0,0,0,0,1,0,0h-18.3a3.28,3.28,0,0,1-3.28-3.28v-.79A3.28,3.28,0,0,1,349.85,331.37Z"/><path class="cls-3" d="M368.15,316.08v12.64H313.78a6.32,6.32,0,0,1-6.32-6.32h0a6.32,6.32,0,0,1,6.32-6.32Z"/><path class="cls-4" d="M349.85,318.73h18.3a0,0,0,0,1,0,0v7.34a0,0,0,0,1,0,0h-18.3a3.28,3.28,0,0,1-3.28-3.28V322A3.28,3.28,0,0,1,349.85,318.73Z"/><polygon class="cls-2" points="328.89 295.8 320.25 316.08 325.81 316.08 329.65 305.25 328.89 295.8"/><polygon class="cls-4" points="355.4 277.44 358.74 316.08 330.52 316.08 327.42 277.44 355.4 277.44"/><polygon class="cls-1" points="352.64 280.51 355.57 312.87 334.38 313.15 331.52 280.32 352.64 280.51"/><polygon class="cls-2" points="348.15 284.99 349.81 307.25 338.51 307.25 336.52 284.99 348.15 284.99"/><path class="cls-5" d="M306.64,73.7c-.09-.93-.2-1.85-.33-2.77S306,69,305.88,68c.16,1,.31,1.93.43,2.9S306.55,72.77,306.64,73.7Z"/><path class="cls-4" d="M299.2,85.19a41.26,41.26,0,0,1-1.51-5.73A3.82,3.82,0,0,0,296,76.9a15.78,15.78,0,0,0-2.06-.47c-2.42-.72-3.08-4.1-5.38-5.15a7.8,7.8,0,0,0-2.3-.48c-3.07-.36-6.24-1.42-8.17-3.83a14.8,14.8,0,0,0-1.89-2.33,2.25,2.25,0,0,0-2.77-.26c.65,1.29,1.28,2.59,1.91,3.87a10.21,10.21,0,0,0,2.15,3.22,3.47,3.47,0,0,0,3.62.78,2.37,2.37,0,0,1,1.21-.43,1.29,1.29,0,0,1,.79.51c1.67,1.85,1.13,4.92-.5,6.81s-4,2.86-6.35,3.78a5,5,0,0,1-2.59.51c-1.6-.3-2.46-2.05-2.92-3.62-1.05-3.47-1.56-7.23-3.71-10.16a12.69,12.69,0,0,1-1.95-2.84c-.44-1.16-.34-2.52-1-3.54s-2.26-1.7-2.37-3a2.37,2.37,0,0,1,1.52-2.09c.83-.4,1.76-.52,2.61-.87.34-.14.72-.39.73-.75,0-.55-.75-.77-.95-1.27s.38-1.1.63-1.66c.53-1.27-.79-2.55-2.08-3.07s-2.81-.89-3.4-2.13a7.65,7.65,0,0,1-.42-1.85,4,4,0,0,0-3-3.35c-1.59-.25-3.35,1.16-3.09,2.74a11.54,11.54,0,0,0,1.15,2.34c.36.8.26,2-.57,2.25-1.36.42-2.66-2.07-3.8-1.21.46,1.59.91,3.18,1.38,4.79-1.79.9-3.92-.74-4.69-2.61s-.79-4-1.69-5.76-3.36-3.13-4.91-1.86c-.08,2.3,3,3.23,4.31,5.1,1,1.35.83,3.53-.61,4.39s-3.69-.64-3.14-2.2c.19-.55.64-1,.7-1.58s-.56-1.31-1.12-1.78l-2.6-2.18a5.48,5.48,0,0,0-1.85-1.17c-1.79-.52-3.58.93-4.52,2.53s-1.48,3.48-2.78,4.81c-1.88,1.94-5.44,2.06-7.2,0S221.36,46,224,45.28c1-.27,2.23-.25,2.75-1.11.9-1.54-1.69-3.51-.79-5.07.68-1.19,2.5-.64,3.82-1s2-1.73,2.82-2.87,2-2.26,3.31-2a4.19,4.19,0,0,1,.15-2.36,1.44,1.44,0,0,1,2-.73c-.66,1.09.13,2.61,1.28,3.15a7.06,7.06,0,0,0,3.77.27c1.27-.15,2.86-.62,3-1.89a4.66,4.66,0,0,1,0-1.24c.56-1.52,3.35.57,4.43-.65.62-.63-.06-1.76-.93-2a9.73,9.73,0,0,0-2.63.13c-.88,0-2-.42-2-1.31s.94-1.48,1-2.34c.17-1.45-2.29-1.82-3.16-.65s-.56,2.8-.3,4.24.4,3.13-.66,4.14c-.45.69-1.63.32-2-.4a5.8,5.8,0,0,1-.37-2.42,2.1,2.1,0,0,0-1.23-2,4.25,4.25,0,0,0-1.72.19c-2.26.27-3.82-2.64-3.11-4.79s2.74-3.55,4.72-4.65c1.45-.8,3.25-1.55,4.69-.74.67.38,1.14,1,1.8,1.42,1.14.67,2.55.42,3.86.45a9,9,0,0,1,5.63,2.19c.58.53,1.13,1.41.68,2s-1.91.82-1.66,1.61a2.81,2.81,0,0,0,3.52-2.27A2.37,2.37,0,0,1,258,24.59a4.19,4.19,0,0,1,6.15.5,5.18,5.18,0,0,0,1.14,1.47c.52.33,1.42.17,1.49-.44a1.24,1.24,0,0,0-.11-.57c-.31-.88-.63-1.75-.94-2.62,1.2-.65,2.63.36,3.44,1.45,3,4.05,5.2,1.62,9.47,2.28,2.89.44,4.16,2.29,5.79,4.53,5,6.89,11.6,12.54,16.14,19.74.48.75.92,1.51,1.34,2.29-.08-.2-.15-.39-.22-.59a79.26,79.26,0,0,0-6.61-13.42c-.55-.91-1.12-1.8-1.71-2.68-.36-.55-.73-1.1-1.11-1.63-.48-.7-1-1.38-1.49-2s-.8-1.07-1.22-1.59-.58-.73-.88-1.09-.64-.82-1-1.22l-1.08-1.25c-.11-.13-.22-.26-.35-.39-.38-.44-.78-.87-1.18-1.3a.49.49,0,0,0-.12-.13l-.33-.35c-.33-.36-.68-.71-1-1.06-.56-.57-1.13-1.14-1.71-1.68s-1-.93-1.48-1.39-.88-.8-1.33-1.19-.88-.76-1.34-1.14-1.1-.92-1.67-1.37h0c-1.57-1.26-3.19-2.45-4.84-3.56L270,13.31c-.42-.28-.85-.54-1.26-.8s-.84-.53-1.27-.78-.85-.52-1.28-.76-.69-.4-1-.59c-.18-.11-.35-.2-.53-.29-.73-.42-1.49-.82-2.24-1.19q-.56-.3-1.14-.57c-.48-.25-1-.48-1.46-.7a1.13,1.13,0,0,0-.22-.11l-1.33-.61-1.91-.8c-.72-.3-1.45-.59-2.18-.87s-1.64-.6-2.47-.88-1.67-.55-2.51-.81-1.68-.49-2.54-.73c-1.68-.45-3.39-.85-5.11-1.2a.32.32,0,0,1-.09,0c-.66-.13-1.32-.26-2-.36l-.13,0-.88-.14c-1.23-.21-2.47-.37-3.73-.52l-.45-.05c-.37,0-.73-.08-1.1-.11-.83-.08-1.66-.15-2.5-.2S228.87.08,228,.05s-1.84,0-2.76,0c-2.43,0-4.84.1-7.22.32-.57,0-1.13.09-1.69.16l-1.75.21c-.58.07-1.16.15-1.73.24s-1.15.18-1.74.29-1,.17-1.48.27c-1.22.23-2.43.49-3.62.78l-1.67.42-1.66.46c-.91.26-1.81.54-2.7.83h0l-2.18.73-.05,0c-.74.26-1.45.53-2.18.81l-.11,0c-.66.26-1.32.53-2,.81-.82.33-1.62.7-2.41,1.06s-1.33.62-2,.94-1.4.7-2.09,1.07l-.07,0c-.66.35-1.32.72-2,1.09s-1.34.77-2,1.18h0c-.62.38-1.23.75-1.84,1.14-.23.14-.45.3-.68.45-.65.42-1.27.84-1.91,1.28s-1.52,1.09-2.28,1.65-1.3,1-1.94,1.5a82.24,82.24,0,0,0-10.18,9.65C163,28.65,162,29.9,161,31.17c-.86,1.08-1.68,2.18-2.47,3.32-.72,1-1.4,2-2.07,3,.67-1,1.35-2,2.07-3,.2,0,.41-.05.62-.06a9.45,9.45,0,0,0,3.44-.56,19.86,19.86,0,0,0,2.54-2c2.25-1.6,5.94-1.9,6.55-4.59.21-.91,0-1.89.3-2.76.63-1.62,2.8-1.85,4.53-1.83.74,0,1.61.11,1.94.76a1.8,1.8,0,0,1-.08,1.5,14.07,14.07,0,0,1-5.94,7.3c-2.25,1.37-5.19,2.43-5.81,5,.31.87,1.89.8,2,1.71.09.72-.84,1.1-1.18,1.75-.49.94.63,2.09,1.71,2a4.76,4.76,0,0,0,2.76-1.55c2.35-2.19,4.83-4.55,5.68-7.65.36-1.29.49-2.79,1.53-3.64A2.53,2.53,0,0,1,183,31.17c1-.57,2.62-1,3.15.06a5.58,5.58,0,0,1,.22,1.22c.34,1.66,2.6,2.41,2.84,4.08.27,1.93-2.2,2.92-4.13,3.22l-5.25.83a4.92,4.92,0,0,0-2.17.7,1.7,1.7,0,0,0-.65,2,5,5,0,0,0,.91.93,2.79,2.79,0,0,1-1.79,4.51c-.7,0-1.39-.23-2.09-.26-2.07-.09-3.71,1.74-4.7,3.56s-1.72,3.91-3.38,5.16c-2.66,2-7.26,1.54-8.55,4.62a7.32,7.32,0,0,0,0,4,5.38,5.38,0,0,1-.48,3.9c-.77,1.09-2.76,1.32-3.33.1a3,3,0,0,1-.08-1.72q.47-2.86.91-5.75c.22-1.42.41-3-.43-4.18-1.18-1.63-3.82-1.48-5.35-.17s-2.15,3.36-2.57,5.31a23.05,23.05,0,0,1-1.48,5.15h0q-.4,2.41-.66,4.89c-.17,1.68-.28,3.35-.35,5.06a7.31,7.31,0,0,0,.66-.62c.82-.84,2.46-4.41,3.94-2.66a1.32,1.32,0,0,1,0,1.62c-.45.58-1.36.71-1.71,1.35s.17,1.68.87,2.17a7.68,7.68,0,0,1,2.05,1.53c.94,1.36,0,3.42,1,4.81.79,1.19,2.47,1.26,3.91,1.42l.49.08c.4-2.85,1.73-5.17,5.62-6,5.36-1.22,12.4,3.22,15.42,7.26,3.37,4.52,5,10.92,10.11,13.19,3.69,1.61,8.94,1,10.74,4.64,1.6,3.24-1.2,6.88-1.62,10.47-.27,2.37.5,4.72.68,7.09s-.53,5.16-2.69,6.15c-1.2.55-2.72.48-3.69,1.39-1.72,1.63-.31,5-2,6.63A9,9,0,0,1,185,140c-3.87,2-3.77,7.65-2,11.6l.2.42a81.84,81.84,0,0,0,42,11.58,81.38,81.38,0,0,0,38.39-9.55h0a82.78,82.78,0,0,0,7.24-4.37A80.27,80.27,0,0,0,281,141.62a79.25,79.25,0,0,0,6.21-6.49c1.38-1.58,2.67-3.23,3.91-4.91.64-.87,1.26-1.73,1.84-2.63a77.28,77.28,0,0,0,4.88-8.17,81.6,81.6,0,0,0,8.42-26.63c.25-1.84.44-3.71.57-5.58a4.72,4.72,0,0,1-3.29,1.46C301.61,88.64,300,87,299.2,85.19Z"/><path class="cls-4" d="M154.11,103.31c-.26-2.34.51-4.68.55-7,0-1.63-.09-3.36-.11-5a23.28,23.28,0,0,1-4.16-.58,1.24,1.24,0,0,1-.76-.39,1.44,1.44,0,0,1-.17-.87c-.11-1.84-1.88-3-3.47-4a14.16,14.16,0,0,0-2.53-1.25,5.33,5.33,0,0,0,0,.57,81.3,81.3,0,0,0,5.2,26,78,78,0,0,0,5,10.72c.8,1.49,1.68,3,2.6,4.39,1.14,1.78,2.33,3.51,3.61,5.18s2.46,3.18,3.8,4.68a79.23,79.23,0,0,0,5.79,6c1.8,1.69,3.67,3.28,5.63,4.79-4.47-12-8.68-24.22-16.32-34.42C156.79,109.35,154.48,106.63,154.11,103.31Z"/><path class="cls-5" d="M143.45,80.33c0,.49,0,1,0,1.48s0,.8,0,1.19c0-.39,0-.79,0-1.19S143.44,80.82,143.45,80.33Z"/><g class="cls-6"><path class="cls-5" d="M179.69,149.76c.68.47,1.38.92,2.09,1.36.49.31,1,.61,1.49.91-.51-.3-1-.6-1.49-.91C181.07,150.68,180.37,150.23,179.69,149.76Z"/></g><path class="cls-2" d="M249,144.63a7.1,7.1,0,0,1-1.53-.16,5,5,0,0,1-3.61-2.74,9.23,9.23,0,0,1-.63-3.56,14.23,14.23,0,0,0-.26-2.44,12.92,12.92,0,0,0-1.92-3.91,17.32,17.32,0,0,1-1.66-3,18.06,18.06,0,0,1-.9-6.2v-.5C238,107.71,234,96,226.86,88.31a7.77,7.77,0,0,0-3.51-2.48,4.38,4.38,0,0,0-4.51,1.55,10.28,10.28,0,0,0-.68,1.11A6.13,6.13,0,0,1,217,90.18a3.37,3.37,0,0,1-2.88.78,5.21,5.21,0,0,1-3.59-2.48c-1.27-2.24-1-5-.86-7.21l.74-8.93c.11-1.38.27-3.27,1.39-4.56a7.51,7.51,0,0,1,3.32-1.9,10.08,10.08,0,0,0,2.56-1.23c1.43-1.07,2.06-2.77,2.74-4.56a19,19,0,0,1,1.3-3,5.52,5.52,0,0,1,5.13-2.52,2.42,2.42,0,0,1,1.88,1.26,5.59,5.59,0,0,1,3.33-3c3-.85,6.57,1.49,10.05,3.75,3.19,2.07,6.19,4,8.55,3.59.59-.11,1.2-.28,1.78-.44a9.32,9.32,0,0,1,3.84-.53c3.44.48,5.2,4.21,6.34,7.41l5.59,15.62c.7,2,1.6,4.08,3.45,4.8a7.07,7.07,0,0,0,2.33.34,7.73,7.73,0,0,1,2.43.35A3.9,3.9,0,0,1,279,90.86a9.11,9.11,0,0,1-3,7.86h0a37.32,37.32,0,0,1-3.27,2.42c-2.53,1.72-4.92,3.34-5.95,6a14.55,14.55,0,0,0-.69,4.57,14.21,14.21,0,0,1-.79,4.92,14.22,14.22,0,0,1-2.44,3.54,23.19,23.19,0,0,0-1.62,2.08c-1.79,2.69-2.29,6-2.77,9.28l-.18,1.24c-.56,3.6-1.53,7.62-4.46,10.13A7.47,7.47,0,0,1,249,144.63Z"/><g class="cls-6"><path class="cls-5" d="M143.5,78.4h0c0,.16,0,.3,0,.46,0,.48,0,1,0,1.47,0-.49,0-1,0-1.47C143.48,78.7,143.49,78.56,143.5,78.4Z"/></g><g class="cls-6"><path class="cls-5" d="M143.44,83c0,.4,0,.81,0,1.2h0C143.45,83.81,143.45,83.4,143.44,83Z"/></g><path class="cls-2" d="M154.69,88.09,154.2,88c-1.44-.16-3.12-.23-3.91-1.42-.92-1.39,0-3.45-1-4.81a7.68,7.68,0,0,0-2.05-1.53c-.7-.49-1.29-1.42-.87-2.17s1.26-.77,1.71-1.35a1.32,1.32,0,0,0,0-1.62c-1.48-1.75-3.12,1.82-3.94,2.66a7.31,7.31,0,0,1-.66.62h0c0,.16,0,.3,0,.46,0,.48,0,1,0,1.47s0,1,0,1.48,0,.8,0,1.19,0,.81,0,1.2A14.16,14.16,0,0,1,146,85.45c1.59.91,3.36,2.13,3.47,4a1.44,1.44,0,0,0,.17.87,1.24,1.24,0,0,0,.76.39,23.28,23.28,0,0,0,4.16.58"/><path class="cls-2" d="M154.55,91.26c0,1.64.14,3.37.11,5,0,2.37-.81,4.71-.55,7,.37,3.32,2.68,6,4.68,8.71,7.64,10.2,11.85,22.43,16.32,34.42h0c.83.67,1.67,1.29,2.53,1.9.67.48,1.35,1,2,1.42s1.38.92,2.09,1.36c.49.31,1,.61,1.49.91l-.2-.42c-1.8-4-1.9-9.65,2-11.6a9,9,0,0,0,2.19-1.15c1.72-1.63.31-5,2-6.63,1-.91,2.49-.84,3.69-1.39,2.16-1,2.86-3.77,2.69-6.15s-.95-4.72-.68-7.09c.42-3.59,3.22-7.23,1.62-10.47-1.8-3.61-7.05-3-10.74-4.64-5.15-2.27-6.74-8.67-10.11-13.19-3-4-10.06-8.48-15.42-7.26-3.89.88-5.22,3.2-5.62,6"/><path class="cls-2" d="M148.56,58c1.53-1.31,4.17-1.46,5.35.17.84,1.17.65,2.76.43,4.18q-.45,2.88-.91,5.75a3,3,0,0,0,.08,1.72c.57,1.22,2.56,1,3.33-.1a5.38,5.38,0,0,0,.48-3.9,7.32,7.32,0,0,1,0-4c1.29-3.08,5.89-2.62,8.55-4.62,1.66-1.25,2.4-3.33,3.38-5.16s2.63-3.65,4.7-3.56c.7,0,1.39.29,2.09.26a2.79,2.79,0,0,0,1.79-4.51,5,5,0,0,1-.91-.93,1.7,1.7,0,0,1,.65-2,4.92,4.92,0,0,1,2.17-.7l5.25-.83c1.93-.3,4.4-1.29,4.13-3.22-.24-1.67-2.5-2.42-2.84-4.08a5.58,5.58,0,0,0-.22-1.22c-.53-1.06-2.12-.63-3.15-.06a2.53,2.53,0,0,0-3.84-1.23c-1,.85-1.17,2.35-1.53,3.64-.85,3.1-3.33,5.46-5.68,7.65a4.76,4.76,0,0,1-2.76,1.55c-1.08,0-2.2-1.1-1.71-2,.34-.65,1.27-1,1.18-1.75-.13-.91-1.71-.84-2-1.71.62-2.57,3.56-3.63,5.81-5a14.07,14.07,0,0,0,5.94-7.3,1.8,1.8,0,0,0,.08-1.5c-.33-.65-1.2-.76-1.94-.76-1.73,0-3.9.21-4.53,1.83-.34.87-.09,1.85-.3,2.76-.61,2.69-4.3,3-6.55,4.59a19.86,19.86,0,0,1-2.54,2,9.45,9.45,0,0,1-3.44.56c-.21,0-.42,0-.62.06-.72,1-1.4,2-2.07,3s-1.29,2.07-1.91,3.12a81.47,81.47,0,0,0-7.1,15.83q-.94,2.89-1.68,5.9t-1.23,6.07A23.05,23.05,0,0,0,146,63.29C146.41,61.34,147.05,59.29,148.56,58Z"/><path class="cls-2" d="M217.2,20c.77-1,.55-2.47,1.05-3.64.83-2,3.42-2.65,4.32-4.57.34-.74.43-1.64,1-2.19s1.25-.55,1.79-1c1.2-.93.7-3-.58-3.85-3.21-2.05-9.11.32-11.89,2.33-3.56,2.58-7,5.68-11.79,5.38-1.31-.08-2.67-.44-3.9,0s-2,2.3-.92,3.08c.59.43,1.42.31,2.08.62,1.22.57,1.34,2.34.75,3.54s-1.67,2.12-2.38,3.26a6.19,6.19,0,0,0-.88,3.75A3.42,3.42,0,0,0,197,29.21c1.48,1.18,3.72.17,5-1.25s2.11-3.24,3.73-4.21a9.56,9.56,0,0,1,2.66-.93l6.19-1.47A4.45,4.45,0,0,0,217.2,20Z"/><g class="cls-6"><path class="cls-5" d="M307,80.68c0-1.18,0-2.35-.1-3.51.06,1.16.1,2.33.1,3.51,0,.38,0,.75,0,1.13,0,1.81-.07,3.6-.17,5.38.1-1.78.17-3.57.17-5.38C307,81.43,307,81.06,307,80.68Z"/></g><g class="cls-6"><path class="cls-5" d="M301.9,53.23c.39,1,.75,2.08,1.1,3.13-.35-1-.71-2.09-1.1-3.13,0,0,0,0,0,0h0Z"/></g><path class="cls-2" d="M307,80.68c0-1.18,0-2.35-.1-3.51s-.16-2.32-.27-3.47c-.09-.93-.2-1.85-.33-2.77S306,69,305.88,68A77.35,77.35,0,0,0,304,59.54c-.31-1.07-.63-2.13-1-3.18s-.71-2.09-1.1-3.13h0c-.42-.78-.86-1.54-1.34-2.29-4.54-7.2-11.14-12.85-16.14-19.74-1.63-2.24-2.9-4.09-5.79-4.53-4.27-.66-6.44,1.77-9.47-2.28-.81-1.09-2.24-2.1-3.44-1.45.31.87.63,1.74.94,2.62a1.24,1.24,0,0,1,.11.57c-.07.61-1,.77-1.49.44a5.18,5.18,0,0,1-1.14-1.47,4.19,4.19,0,0,0-6.15-.5,2.37,2.37,0,0,0-1.36-1.92,2.81,2.81,0,0,1-3.52,2.27c-.25-.79,1.16-.93,1.66-1.61s-.1-1.51-.68-2a9,9,0,0,0-5.63-2.19c-1.31,0-2.72.22-3.86-.45-.66-.39-1.13-1-1.8-1.42-1.44-.81-3.24-.06-4.69.74-2,1.1-4,2.49-4.72,4.65s.85,5.06,3.11,4.79a4.25,4.25,0,0,1,1.72-.19,2.1,2.1,0,0,1,1.23,2,5.8,5.8,0,0,0,.37,2.42c.39.72,1.57,1.09,2,.4,1.06-1,.94-2.71.66-4.14s-.55-3.06.3-4.24,3.33-.8,3.16.65c-.1.86-1.07,1.48-1,2.34s1.12,1.35,2,1.31a9.73,9.73,0,0,1,2.63-.13c.87.21,1.55,1.34.93,2-1.08,1.22-3.87-.87-4.43.65a4.66,4.66,0,0,0,0,1.24c-.1,1.27-1.69,1.74-3,1.89a7.06,7.06,0,0,1-3.77-.27c-1.15-.54-1.94-2.06-1.28-3.15a1.44,1.44,0,0,0-2,.73,4.19,4.19,0,0,0-.15,2.36c-1.34-.3-2.55.84-3.31,2s-1.52,2.46-2.82,2.87-3.14-.15-3.82,1c-.9,1.56,1.69,3.53.79,5.07-.52.86-1.76.84-2.75,1.11-2.6.74-3.51,4.54-1.73,6.58s5.32,1.91,7.2,0c1.3-1.33,1.83-3.21,2.78-4.81s2.73-3.05,4.52-2.53a5.48,5.48,0,0,1,1.85,1.17l2.6,2.18c.56.47,1.17,1,1.12,1.78s-.51,1-.7,1.58c-.55,1.56,1.72,3,3.14,2.2s1.58-3,.61-4.39c-1.34-1.87-4.39-2.8-4.31-5.1,1.55-1.27,4,.06,4.91,1.86s.93,3.91,1.69,5.76,2.9,3.51,4.69,2.61c-.47-1.61-.92-3.2-1.38-4.79,1.14-.86,2.44,1.63,3.8,1.21.83-.26.93-1.45.57-2.25A11.54,11.54,0,0,1,254.17,46c-.26-1.58,1.5-3,3.09-2.74a4,4,0,0,1,3,3.35,7.65,7.65,0,0,0,.42,1.85c.59,1.24,2.14,1.62,3.4,2.13s2.61,1.8,2.08,3.07c-.25.56-.83,1.09-.63,1.66s.95.72.95,1.27c0,.36-.39.61-.73.75-.85.35-1.78.47-2.61.87a2.37,2.37,0,0,0-1.52,2.09c.11,1.3,1.65,1.92,2.37,3s.6,2.38,1,3.54A12.69,12.69,0,0,0,267,69.65c2.15,2.93,2.66,6.69,3.71,10.16.46,1.57,1.32,3.32,2.92,3.62a5,5,0,0,0,2.59-.51c2.32-.92,4.73-1.9,6.35-3.78s2.17-5,.5-6.81a1.29,1.29,0,0,0-.79-.51,2.37,2.37,0,0,0-1.21.43,3.47,3.47,0,0,1-3.62-.78,10.21,10.21,0,0,1-2.15-3.22c-.63-1.28-1.26-2.58-1.91-3.87a2.25,2.25,0,0,1,2.77.26A14.8,14.8,0,0,1,278.06,67c1.93,2.41,5.1,3.47,8.17,3.83a7.8,7.8,0,0,1,2.3.48c2.3,1,3,4.43,5.38,5.15a15.78,15.78,0,0,1,2.06.47,3.82,3.82,0,0,1,1.72,2.56,41.26,41.26,0,0,0,1.51,5.73c.79,1.81,2.41,3.45,4.38,3.48a4.72,4.72,0,0,0,3.29-1.46v0c.1-1.78.17-3.57.17-5.38C307,81.43,307,81.06,307,80.68Z"/><path class="cls-2" d="M273.9,114.64c-1.22.24-1.47,1-2.13,1.86-.86,1.18-2.1,2.35-2.88,3.51-1.33,2-.13,5-1.88,6.69-.36.34-.82.56-1.14.93a2.06,2.06,0,0,0,.42,2.86,2.81,2.81,0,0,0,3,0A4.44,4.44,0,0,0,271.2,128a4.41,4.41,0,0,1,.95-2.09c1-.88,2.56-.23,3.88-.41C281.64,124.7,279.23,113.59,273.9,114.64Z"/><rect class="cls-4" x="318" y="133.24" width="107.39" height="80.19"/><rect class="cls-2" x="318" y="133.24" width="107.39" height="8.1"/><path class="cls-4" d="M323.13,137.29a1.09,1.09,0,1,1-1.09-1.08A1.08,1.08,0,0,1,323.13,137.29Z"/><path class="cls-4" d="M326.5,137.29a1.09,1.09,0,1,1-1.09-1.08A1.08,1.08,0,0,1,326.5,137.29Z"/><path class="cls-4" d="M329.87,137.29a1.09,1.09,0,1,1-1.08-1.08A1.08,1.08,0,0,1,329.87,137.29Z"/><rect class="cls-3" x="306.14" y="147.29" width="107.39" height="80.19"/><rect class="cls-2" x="306.14" y="147.29" width="107.39" height="8.1"/><path class="cls-4" d="M311.26,151.34a1.08,1.08,0,1,1-1.08-1.08A1.08,1.08,0,0,1,311.26,151.34Z"/><path class="cls-4" d="M314.63,151.34a1.08,1.08,0,1,1-1.08-1.08A1.08,1.08,0,0,1,314.63,151.34Z"/><circle class="cls-4" cx="316.92" cy="151.34" r="1.08"/><rect class="cls-4" x="288.17" y="161.46" width="107.39" height="80.19"/><rect class="cls-2" x="288.17" y="161.46" width="107.39" height="8.1"/><path class="cls-4" d="M293.29,165.51a1.08,1.08,0,1,1-1.08-1.08A1.08,1.08,0,0,1,293.29,165.51Z"/><path class="cls-4" d="M296.67,165.51a1.09,1.09,0,1,1-1.09-1.08A1.08,1.08,0,0,1,296.67,165.51Z"/><path class="cls-4" d="M300,165.51a1.09,1.09,0,1,1-1.09-1.08A1.08,1.08,0,0,1,300,165.51Z"/><path class="cls-3" d="M350.62,241.65a1.34,1.34,0,0,1,0,.32c0,.24,0,.55,0,.94,0,.87,0,2.09.05,3.64,0,3.21,0,7.8.08,13.51v.18h-.18l-49,.08L254,260.24l-14.44-.08-3.93-.05-1,0a1.35,1.35,0,0,1-.35,0l.35,0,1,0,3.93,0,14.44-.09,47.67-.07,49,.08-.18.18c0-5.71.07-10.3.09-13.51,0-1.55,0-2.77,0-3.64,0-.39,0-.7,0-.94A2,2,0,0,1,350.62,241.65Z"/><path class="cls-3" d="M349.6,133.12c-.15,0-.26-9.18-.26-20.49s.11-20.49.26-20.49.26,9.17.26,20.49S349.74,133.12,349.6,133.12Z"/></g><g id="Plant"><path class="cls-7" d="M392.41,342.46c-7.84-12-6.7-29.13,2.67-40,2.91-3.37,7-6.29,11.4-5.91s8.2,4.28,9.58,8.62.9,9,.09,13.52c-1.14,6.28-3,12.7-7.39,17.36s-10.75,9.45-16.35,6.39"/><path class="cls-7" d="M396.75,400.2a17.93,17.93,0,0,1,5-20.36c1.8-1.47,4.16-2.61,6.41-2s3.83,2.94,4.15,5.3a14.77,14.77,0,0,1-1.18,7c-1.15,3.13-2.72,6.27-5.38,8.27s-6.39,3.9-9,1.82"/><path class="cls-7" d="M377.84,396.08a26,26,0,0,0-13.08-27.38c-3-1.55-6.66-2.47-9.68-1s-4.56,5.3-4.32,8.74,1.9,6.62,3.73,9.54c2.56,4.1,5.69,8.08,10.06,10.14s10.21,3.64,13.29-.08"/><path class="cls-7" d="M379.2,367.32c3.75-12.12-2.62-26.81-13.23-33.76-3.29-2.16-7.46-3.66-11.14-2.26s-5.93,5.64-6.05,9.67,1.43,7.92,3.21,11.53c2.5,5.07,5.68,10.07,10.52,13s12.67,5.82,16.69,1.85"/><path class="cls-5" d="M386.74,426.55a2.66,2.66,0,0,1-.13-.59c-.06-.44-.14-1-.25-1.69-.05-.37-.11-.78-.17-1.22s-.18-.93-.28-1.44c-.19-1-.4-2.22-.74-3.5-.15-.64-.31-1.32-.48-2s-.42-1.42-.64-2.16c-.4-1.51-1-3.06-1.56-4.72a83.1,83.1,0,0,0-10.73-20c-1.08-1.39-2-2.74-3.07-3.91l-1.45-1.72-1.42-1.53c-.88-1-1.75-1.81-2.5-2.55-.38-.36-.72-.71-1.05-1l-.92-.81-1.27-1.15a2.53,2.53,0,0,1-.42-.42,2.23,2.23,0,0,1,.48.34l1.34,1.08.95.78,1.08,1c.78.72,1.67,1.53,2.58,2.51l1.44,1.51L369,385c1.05,1.17,2,2.52,3.13,3.91a86.34,86.34,0,0,1,6.13,9.67,88.5,88.5,0,0,1,4.67,10.45c.55,1.67,1.13,3.24,1.52,4.76.21.75.41,1.48.61,2.18s.31,1.39.46,2c.32,1.29.5,2.48.67,3.53.08.52.16,1,.23,1.45s.09.86.13,1.23c.06.7.12,1.26.16,1.71A3.41,3.41,0,0,1,386.74,426.55Z"/><path class="cls-5" d="M386.46,428.72a.73.73,0,0,1,0-.24c0-.19,0-.42.05-.7.06-.66.15-1.56.25-2.69.06-.59.12-1.24.19-1.95s.07-1.48.12-2.32c.06-1.66.22-3.55.16-5.65,0-1.05,0-2.15,0-3.29s-.12-2.33-.18-3.56c-.09-2.47-.42-5.08-.72-7.84a111.89,111.89,0,0,0-10.2-34.42c-1.26-2.47-2.4-4.84-3.68-6.95-.62-1.07-1.17-2.12-1.79-3.09l-1.78-2.77c-1.09-1.79-2.26-3.29-3.22-4.65-.49-.67-.93-1.31-1.36-1.88l-1.22-1.52-1.68-2.12-.42-.56c-.1-.13-.14-.2-.13-.21l.17.17.46.53,1.76,2.06,1.25,1.5c.45.56.9,1.19,1.4,1.86,1,1.35,2.18,2.84,3.29,4.62l1.82,2.76c.62,1,1.19,2,1.82,3.08,1.3,2.11,2.46,4.49,3.73,7a109.38,109.38,0,0,1,10.25,34.56c.29,2.77.61,5.4.67,7.87.05,1.24.15,2.43.15,3.58s0,2.25,0,3.3c0,2.11-.15,4-.24,5.67-.05.84-.09,1.61-.15,2.32s-.17,1.36-.24,1.95c-.15,1.13-.26,2-.35,2.68,0,.28-.07.51-.1.7S386.47,428.72,386.46,428.72Z"/><path class="cls-5" d="M406.88,311.05a1.55,1.55,0,0,1-.1.22l-.34.63-1.34,2.4c-.29.52-.64,1.08-1,1.73l-1.05,2.11-1.21,2.42c-.41.86-.79,1.8-1.23,2.77s-.89,2-1.32,3.07-.86,2.21-1.3,3.37c-.23.59-.46,1.18-.69,1.79l-.63,1.86c-.43,1.26-.86,2.56-1.31,3.9-1.67,5.37-3.24,11.36-4.57,17.71s-2.19,12.5-2.86,18.09-1,10.65-1.11,14.91c-.11,2.12-.13,4.05-.14,5.74s0,3.15,0,4.34,0,2.07,0,2.74v.72a1.1,1.1,0,0,1,0,.24.92.92,0,0,1,0-.24l-.05-.71c0-.67-.07-1.59-.13-2.75s-.09-2.65-.09-4.34,0-3.62.06-5.76c.07-4.26.45-9.33,1-14.95s1.53-11.74,2.83-18.13,2.92-12.37,4.62-17.76c.45-1.33.9-2.63,1.33-3.9l.65-1.86c.23-.61.47-1.2.7-1.79l1.33-3.37c.45-1.08.93-2.09,1.36-3.07s.85-1.9,1.27-2.76.86-1.66,1.25-2.41l1.09-2.1c.34-.64.7-1.2,1-1.71.61-1,1.08-1.78,1.43-2.35l.38-.6A.81.81,0,0,1,406.88,311.05Z"/><path class="cls-5" d="M404.21,384.65a10.32,10.32,0,0,1-.83,1.47c-.58.92-1.36,2.27-2.29,4s-1.94,3.76-3,6.09-2,5-2.88,7.78-1.51,5.55-2,8.06-.8,4.78-1,6.71-.3,3.48-.35,4.56a11.51,11.51,0,0,1-.13,1.68,9.69,9.69,0,0,1-.07-1.68c0-1.09,0-2.66.19-4.6a67.37,67.37,0,0,1,.89-6.76,74.4,74.4,0,0,1,2-8.12,75.18,75.18,0,0,1,2.94-7.82,67.81,67.81,0,0,1,3.09-6.08c1-1.68,1.8-3,2.43-3.9A12.7,12.7,0,0,1,404.21,384.65Z"/><polygon class="cls-5" points="371.33 421.15 405.78 421.15 401.62 456.33 375.63 456.33 371.33 421.15"/><polygon class="cls-5" points="372.59 452.53 375.52 456.33 401.62 456.33 404.63 452.66 372.59 452.53"/><path class="cls-1" d="M404.44,431.5c0,.14-7.15.25-16,.25s-16-.11-16-.25,7.15-.26,16-.26S404.44,431.35,404.44,431.5Z"/><path class="cls-1" d="M404.44,433.84c0,.14-7.15.25-16,.25s-16-.11-16-.25,7.15-.26,16-.26S404.44,433.7,404.44,433.84Z"/><path class="cls-1" d="M404,436.11c0,.14-6.9.25-15.41.25s-15.4-.11-15.4-.25,6.89-.26,15.4-.26S404,436,404,436.11Z"/></g><g id="Search"><path class="cls-8" d="M354.27,52.56H96.19A19.06,19.06,0,0,0,77.13,71.62h0A19.06,19.06,0,0,0,96.19,90.68H354.27a19.06,19.06,0,0,0,19.06-19.06h0A19.06,19.06,0,0,0,354.27,52.56Z"/><path class="cls-7" d="M317.49,52.56h37.3A18.54,18.54,0,0,1,373.33,71.1v1a18.54,18.54,0,0,1-18.54,18.54h-37.3a0,0,0,0,1,0,0V52.56a0,0,0,0,1,0,0Z"/><path class="cls-8" d="M342.51,76.85a8.31,8.31,0,1,1,8.3-8.31A8.32,8.32,0,0,1,342.51,76.85Zm0-15.41a7.1,7.1,0,1,0,7.09,7.1A7.11,7.11,0,0,0,342.51,61.44Z"/><path class="cls-8" d="M355,82.14a.6.6,0,0,1-.43-.18l-7.29-7.29a.61.61,0,1,1,.86-.86l7.29,7.29a.61.61,0,0,1-.43,1Z"/><path class="cls-2" d="M111.77,71.16a3.23,3.23,0,0,1-.09-.69,4.86,4.86,0,0,0-.1-.83,8.28,8.28,0,0,0-.23-1.12,10.75,10.75,0,0,0-14-7.52,10.34,10.34,0,0,0-2.71,1.42,14.51,14.51,0,0,0-1.21,1,11.22,11.22,0,0,0-1.05,1.22,10.57,10.57,0,0,0-.15,12.55,11.33,11.33,0,0,0,1,1.25,12.84,12.84,0,0,0,1.19,1A10.09,10.09,0,0,0,97.11,81a10.76,10.76,0,0,0,5.59.55,10.65,10.65,0,0,0,4.53-1.92,10.78,10.78,0,0,0,2.79-3,10.62,10.62,0,0,0,1.27-2.83,10.89,10.89,0,0,0,.26-1.12,6.49,6.49,0,0,0,.12-.82,3.6,3.6,0,0,1,.1-.7,3,3,0,0,1,0,.7,4.6,4.6,0,0,1-.07.85,7.26,7.26,0,0,1-.21,1.15,10.22,10.22,0,0,1-1.2,3A11.05,11.05,0,0,1,96.92,81.5,10.5,10.5,0,0,1,94.1,80a13,13,0,0,1-1.26-1.09,12.41,12.41,0,0,1-1.09-1.31,11.12,11.12,0,0,1,.16-13.25A12.55,12.55,0,0,1,93,63,13,13,0,0,1,94.31,62a10.67,10.67,0,0,1,2.86-1.48,11,11,0,0,1,10.52,1.79,10.93,10.93,0,0,1,2.75,3.22,10.6,10.6,0,0,1,1.14,3,7.94,7.94,0,0,1,.18,1.15,5.45,5.45,0,0,1,0,.85A3.19,3.19,0,0,1,111.77,71.16Z"/><path class="cls-2" d="M109.5,64.37s-.17.21-.54.5l-.7.51c-.14.1-.28.21-.44.31l-.54.29a12.39,12.39,0,0,1-6.39,1.7l-1,0L99,67.51l-.45-.07-.44-.11-.84-.22a13.89,13.89,0,0,1-2.74-1.22,6.25,6.25,0,0,1-2.14-1.72c.06-.07.86.6,2.34,1.34a16.86,16.86,0,0,0,2.7,1.07l.81.19.42.1.43.06.9.12.92,0a13.35,13.35,0,0,0,6.2-1.48l.54-.24.46-.27.74-.42C109.24,64.45,109.48,64.34,109.5,64.37Z"/><path class="cls-2" d="M92.21,77.86s.17-.2.54-.49l.7-.51c.14-.1.28-.21.44-.31l.54-.29a12.29,12.29,0,0,1,6.39-1.7l1,0,.93.14.45.07.44.11.84.22a13.89,13.89,0,0,1,2.74,1.22,6.31,6.31,0,0,1,2.14,1.71c-.06.07-.86-.59-2.34-1.34a16.9,16.9,0,0,0-2.7-1.06l-.81-.19-.42-.1-.43-.06-.9-.12-.92,0a13.35,13.35,0,0,0-6.2,1.48l-.54.24-.46.26-.74.42C92.47,77.79,92.23,77.9,92.21,77.86Z"/><path class="cls-2" d="M111.77,71.42a101.84,101.84,0,0,1-10.92.17c-6-.07-10.91-.26-10.91-.43A101.84,101.84,0,0,1,100.86,71C106.88,71.06,111.77,71.25,111.77,71.42Z"/><path class="cls-2" d="M100.48,82A102,102,0,0,1,100.31,71c.07-6,.26-10.91.43-10.91A101.84,101.84,0,0,1,100.91,71C100.84,77.06,100.65,82,100.48,82Z"/><path class="cls-2" d="M100.48,81.93a8.88,8.88,0,0,1-2.66-2.57,14.88,14.88,0,0,1-2-3.51,13.09,13.09,0,0,1-.9-4.88,12.51,12.51,0,0,1,1-4.86,14.86,14.86,0,0,1,2.09-3.46,9.44,9.44,0,0,1,2.69-2.53c.06.07-1,1-2.35,2.79a16,16,0,0,0-1.92,3.42,12.66,12.66,0,0,0-1,4.64,13.35,13.35,0,0,0,.82,4.68,16.22,16.22,0,0,0,1.82,3.47C99.45,81,100.54,81.86,100.48,81.93Z"/><path class="cls-2" d="M101,60.12a8.84,8.84,0,0,1,2.67,2.57,14.54,14.54,0,0,1,2,3.51,13.29,13.29,0,0,1,.91,4.88,12.65,12.65,0,0,1-1,4.86,15.21,15.21,0,0,1-2.09,3.46,9.25,9.25,0,0,1-2.69,2.53c-.06-.07,1-1,2.35-2.79A16.57,16.57,0,0,0,105,75.73a12.76,12.76,0,0,0,1-4.65,13.39,13.39,0,0,0-.82-4.68,15.89,15.89,0,0,0-1.83-3.46C102,61.09,100.92,60.19,101,60.12Z"/><path class="cls-2" d="M122.23,85.29c-.15,0-.26-5.81-.26-13s.11-13,.26-13,.26,5.81.26,13S122.37,85.29,122.23,85.29Z"/><path class="cls-5" d="M138.73,73.4v4.67h-1.09V73.5a2.25,2.25,0,0,0-2.42-2.57,2.64,2.64,0,0,0-2.82,2.91v4.23h-1.09V66.7h1.09v4.72a3.41,3.41,0,0,1,3-1.47C137.38,70,138.73,71.08,138.73,73.4Z"/><path class="cls-5" d="M145.93,77.58a2.62,2.62,0,0,1-1.7.57,2.14,2.14,0,0,1-2.36-2.35V70.93h-1.44V70h1.44V68.25H143V70h2.46v.92H143v4.81a1.3,1.3,0,0,0,1.4,1.47,1.81,1.81,0,0,0,1.19-.41Z"/><path class="cls-5" d="M151.93,77.58a2.61,2.61,0,0,1-1.7.57,2.14,2.14,0,0,1-2.36-2.35V70.93h-1.44V70h1.44V68.25H149V70h2.45v.92H149v4.81a1.29,1.29,0,0,0,1.39,1.47,1.84,1.84,0,0,0,1.2-.41Z"/><path class="cls-5" d="M162.08,74a3.91,3.91,0,0,1-4,4.11,3.49,3.49,0,0,1-3.06-1.6V81h-1.09V70h1v1.6A3.5,3.5,0,0,1,158.06,70,3.91,3.91,0,0,1,162.08,74ZM161,74a3,3,0,1,0-3,3.14A3,3,0,0,0,161,74Z"/><path class="cls-5" d="M163.59,70.78a.82.82,0,1,1,1.64,0,.82.82,0,1,1-1.64,0Zm0,6.52a.82.82,0,1,1,1.64,0,.82.82,0,1,1-1.64,0Z"/><path class="cls-5" d="M171.39,65.17h1L167.33,79.6h-1Z"/><path class="cls-5" d="M184.74,70l-3.05,8.06h-1l-2.54-6.6-2.55,6.6h-1l-3-8.06h1.05l2.52,6.85L177.67,70h.94l2.57,6.85L183.74,70Z"/><path class="cls-5" d="M198.13,70l-3,8.06h-1l-2.54-6.6L189,78.07h-1l-3-8.06h1l2.52,6.85L191.06,70H192l2.57,6.85L197.13,70Z"/><path class="cls-5" d="M211.52,70l-3.05,8.06h-1l-2.54-6.6-2.54,6.6h-1l-3-8.06h1l2.53,6.85L204.46,70h.93L208,76.86,210.52,70Z"/><path class="cls-5" d="M211.93,77.3a.81.81,0,0,1,.81-.82.82.82,0,0,1,.83.82.84.84,0,0,1-.83.85A.83.83,0,0,1,211.93,77.3Z"/><path class="cls-7" d="M219.93,82.55c-.18,0-.33-3.7-.33-8.27s.15-8.27.33-8.27.34,3.71.34,8.27S220.12,82.55,219.93,82.55Z"/><path class="cls-5" d="M354.27,52.56l1.65,0c.54,0,1.21.16,2,.27a12.1,12.1,0,0,1,1.27.3,8.93,8.93,0,0,1,1.44.43,19,19,0,0,1,6.68,4A21.66,21.66,0,0,1,369,59.38c.26.32.51.67.77,1l.39.53.35.56a18.41,18.41,0,0,1,2.28,5.23,19.18,19.18,0,0,1-13,23.3,19.94,19.94,0,0,1-4.32.76c-1.49.11-3,0-4.51.06h-9.44l-20.52,0L96.2,90.94A19.32,19.32,0,0,1,85.27,55.69a18.9,18.9,0,0,1,7.31-3,44.75,44.75,0,0,1,7.82-.35l59.69,0,101.07,0,68.13.09,18.53,0,4.81,0,1.64,0s-.55,0-1.64,0l-4.81,0-18.53,0-68.13.08-101.07.06H100.4a44.22,44.22,0,0,0-7.73.34,18.56,18.56,0,0,0-7.11,3,18.88,18.88,0,0,0-8,13A18.66,18.66,0,0,0,82,83.9,18.92,18.92,0,0,0,96.2,90.42L321,90.49l20.52,0H351c1.52,0,3,0,4.49-.06a18.68,18.68,0,0,0,15.9-10.73,18.88,18.88,0,0,0,1.22-13,17.87,17.87,0,0,0-2.23-5.18L370,61l-.39-.52c-.26-.34-.5-.68-.76-1a19.6,19.6,0,0,0-1.66-1.73,19,19,0,0,0-6.61-4,10,10,0,0,0-1.42-.45c-.45-.1-.86-.24-1.26-.31-.8-.11-1.46-.26-2-.28Z"/></g><g id="Character"><path class="cls-9" d="M45.52,418.63l-16,37.8-11.23-.1,4.95-37.73Z"/><path class="cls-9" d="M106.58,418.75,90.85,456.38l-11.23-.1,4.91-37.57Z"/><path class="cls-9" d="M19.31,191.93c6.16-9.25,127.84-10.6,133-1l44.46,84.49,66.86-3.08s9-.42,17.78,8c4.34,4.15,4.12,30.32,2.9,40.43-.81,6.74-11.07,98.3-11.07,98.3l-251.9-.51S13.14,201.17,19.31,191.93Z"/><path class="cls-5" d="M92.81,421s0-.27,0-.8,0-1.34.07-2.36c0-2.1.12-5.14.22-9.05.16-7.86.4-19.16.69-33l-.21.2,76.5.54,79.27.44-.2-.17a129.59,129.59,0,0,1,1.4,30.91c-.27,3.66-.62,6.5-.87,8.42-.13,1-.23,1.68-.31,2.19s-.08.75-.08.75a101.46,101.46,0,0,0,1.49-11.34,127.56,127.56,0,0,0-1.23-31l0-.17h-.17L170.13,376l-76.5-.43h-.21v.21c-.21,13.86-.38,25.16-.51,33,0,3.9-.08,6.95-.1,9.05,0,1,0,1.8,0,2.36S92.81,421,92.81,421Z"/><path class="cls-5" d="M100.54,279.19H100a10.19,10.19,0,0,0-1.51.08A15.33,15.33,0,0,0,92.93,281a20.86,20.86,0,0,0-7,6.2,28.18,28.18,0,0,0-4.78,11.66,81.83,81.83,0,0,0-1,15.57c0,5.66.19,11.76.57,18.24.75,13,2.36,27.42,4.09,43l0,.22H85l63.7.43,115.53.68h.19v-.18a101.89,101.89,0,0,0-1.14-23c-1.17-6.67-3.18-12.31-6-16.22a16.51,16.51,0,0,0-4.49-4.47l-.56-.39-.58-.3-1.08-.56c-.74-.25-1.39-.53-2-.69l-1.63-.34c-.47-.06-.88-.07-1.2-.1-.64-.05-1-.05-1-.05l1,.11c.32,0,.72.06,1.19.12l1.61.37c.6.16,1.24.45,2,.71l1.07.57.57.3.55.39a16.62,16.62,0,0,1,4.4,4.45c2.73,3.9,4.7,9.51,5.85,16.16A102.62,102.62,0,0,1,264,376.81l.19-.18-115.53-.82L85,375.42l.24.22c-1.75-15.6-3.38-30-4.16-43-.39-6.47-.6-12.57-.63-18.22a81.22,81.22,0,0,1,1-15.51,27.94,27.94,0,0,1,4.67-11.58,20.75,20.75,0,0,1,6.92-6.2,15.64,15.64,0,0,1,5.52-1.81C99.84,279.17,100.54,279.23,100.54,279.19Z"/><polygon class="cls-9" points="269.59 419.08 273.24 456.33 262.01 456.23 247.95 419.04 269.59 419.08"/><path class="cls-5" d="M248.61,331.25a4.64,4.64,0,0,1-1.12-.11l-3-.51c-2.53-.42-6-1.05-9.93-1.47a92.73,92.73,0,0,0-10-.47l-3,0a4.28,4.28,0,0,1-1.12,0,5.13,5.13,0,0,1,1.11-.16c.72-.08,1.76-.15,3.05-.21a69.16,69.16,0,0,1,10.08.33c3.92.42,7.42,1.1,9.94,1.62,1.26.27,2.28.49,3,.67A5.29,5.29,0,0,1,248.61,331.25Z"/><path class="cls-5" d="M266.36,272.53c0,.05-.81.41-2.24,1.2a29.1,29.1,0,0,0-5.55,4.06,35,35,0,0,0-6.33,8,44.33,44.33,0,0,0-4.7,11.55c-2.13,8.65-2,16.82-1.86,22.64.09,2.92.2,5.29.27,6.92,0,.78.05,1.4.06,1.89a2.91,2.91,0,0,1,0,.65,3.51,3.51,0,0,1-.09-.65c0-.48-.1-1.1-.16-1.87-.13-1.64-.31-4-.44-6.92s-.21-6.42,0-10.3A65.2,65.2,0,0,1,247,297.18a44.12,44.12,0,0,1,4.79-11.67,34.76,34.76,0,0,1,6.5-8,26.74,26.74,0,0,1,5.7-4,18.75,18.75,0,0,1,1.72-.79A2.62,2.62,0,0,1,266.36,272.53Z"/><g class="cls-10"><path d="M134.66,342.56a89.93,89.93,0,0,0,23.18,2.31,579.78,579.78,0,0,0,6.29,72.67,16.39,16.39,0,0,0,6.09,1.8c2.13.05,4.43-.92,5.3-2.86a8.23,8.23,0,0,0,.43-3.73,611.13,611.13,0,0,0-7.46-72.32c-.29-1.77-.71-3.74-2.2-4.74s-3.3-.7-5-.38q-14.09,2.63-27.89,6.51"/></g><g class="cls-10"><path d="M123.57,340.53l2.34,33.28s7.87-18,5.86-24.89A12.24,12.24,0,0,0,123.57,340.53Z"/></g><path class="cls-5" d="M121.56,208.17l-2.34-78.71-2.55-4.53c-2.24-2-5.87-1.64-8.29.11s-3.84,4.56-4.81,7.38c-4.67,13.54-1,28.42-2,42.71-.22,3.1-.71,6.32-2.51,8.85-2.45,3.43-7,5.13-8.86,8.91A8.12,8.12,0,0,0,93,203c-2.29,1.33-4.66,2.74-6.18,4.91s-1.95,5.36-.26,7.41c1.82,2.22,5.16,2.25,8,2a112.85,112.85,0,0,0,23.87-4.7A4.65,4.65,0,0,0,121,211,4.83,4.83,0,0,0,121.56,208.17Z"/><path class="cls-11" d="M104.85,194.61a5.87,5.87,0,0,0,2.19-1.48c1.17-1.27,2.06-3.7,2.33-6.77a166.38,166.38,0,0,0-.12-24.21c-.36-4.72-.93-9.2-1.57-13.26s-1-7.85-.13-10.91a10.82,10.82,0,0,1,4.08-6.07,7.69,7.69,0,0,1,1.81-.89,3.47,3.47,0,0,1,.68-.16,10.91,10.91,0,0,0-2.37,1.22,10.73,10.73,0,0,0-3.84,6c-.81,3-.44,6.72.25,10.75s1.25,8.55,1.61,13.29a150.52,150.52,0,0,1,0,24.29c-.31,3.11-1.28,5.6-2.55,6.86a5,5,0,0,1-1.65,1.15A3.07,3.07,0,0,1,104.85,194.61Z"/><path class="cls-12" d="M122.75,129.09c-.23,1.11.54-.93,0,0Z"/><path class="cls-12" d="M121.88,124.69c-.91-1-2.31-.55-3.35.19a12.41,12.41,0,0,0-4,5.72,29.72,29.72,0,0,0-1.61,7.44c-.15,1.47-.16,3.24.8,4.09a1.91,1.91,0,0,0,2.39,0,7.23,7.23,0,0,0,1.79-2.22,51.92,51.92,0,0,0,4.88-10.78C123,128,122.57,125.42,121.88,124.69Z"/><path class="cls-5" d="M114.47,144.37c2-8.54,5.6-17.26,12.67-22.44,6.3-4.62,15.49-6.37,23.28-5.79,3.83.28,8.11,2.19,11.4,4.2,4.5,2.74,6.27,8.07,8.33,12.93,4.12,9.73,3.14,22.69,0,26.2l-40.74,19.85c-7-3.92-14.52-9.2-16.15-17C112.18,157,113.22,149.67,114.47,144.37Z"/><path class="cls-13" d="M129.89,129.23l25.45-6.62c8.16-.92,13.65,9.1,14.23,17.29.63,9.1,1.05,20.23,0,27-2.08,13.67-12.54,16.92-12.54,16.92s0,11.87-.08,15.93l-11.86,36.16-16.89-36.16-2.59-65.65A4.8,4.8,0,0,1,129.89,129.23Z"/><path class="cls-5" d="M165,150.92a1.76,1.76,0,0,1-1.68,1.78,1.67,1.67,0,0,1-1.81-1.57,1.75,1.75,0,0,1,1.67-1.78A1.67,1.67,0,0,1,165,150.92Z"/><path class="cls-5" d="M167.19,145.71c-.22.23-1.55-.75-3.43-.73s-3.26,1-3.47.74.12-.51.72-.95a4.72,4.72,0,0,1,2.77-.88,4.61,4.61,0,0,1,2.73.86C167.1,145.19,167.3,145.6,167.19,145.71Z"/><path class="cls-5" d="M147.92,150.92a1.76,1.76,0,0,1-1.68,1.78,1.68,1.68,0,0,1-1.82-1.57,1.77,1.77,0,0,1,1.68-1.78A1.69,1.69,0,0,1,147.92,150.92Z"/><path class="cls-5" d="M148.67,146.19c-.22.23-1.55-.75-3.44-.73s-3.26,1-3.46.74.11-.51.71-1a4.8,4.8,0,0,1,2.78-.87,4.61,4.61,0,0,1,2.73.86C148.57,145.67,148.77,146.08,148.67,146.19Z"/><path class="cls-5" d="M155.6,160.12a12.32,12.32,0,0,1,3.06-.58c.48,0,.94-.15,1-.48a2.42,2.42,0,0,0-.33-1.42L157.89,154c-2-5.2-3.47-9.48-3.26-9.56s2,4.07,4,9.28c.48,1.28.94,2.51,1.39,3.68a2.8,2.8,0,0,1,.26,1.88,1.2,1.2,0,0,1-.79.71,2.9,2.9,0,0,1-.82.12A12.58,12.58,0,0,1,155.6,160.12Z"/><path class="cls-14" d="M157.08,184l-.08,3.4c-13.66,1.37-18.24-8.15-18.24-8.15A34.81,34.81,0,0,0,157.08,184Z"/><path class="cls-14" d="M149.4,163.68a3,3,0,0,1,2.51-1.39,3.94,3.94,0,0,1,3.6,1.75,2.47,2.47,0,0,1,.17,1.77c-.13.3,0,.15-.26.36a6.79,6.79,0,0,1-2.81,1.76,2.93,2.93,0,0,1-3.12-1.12A3,3,0,0,1,149.4,163.68Z"/><path class="cls-5" d="M150.06,161.46c.31,0,.33,2,2.09,3.46s3.94,1.2,3.95,1.49c0,.13-.48.4-1.4.43a5.08,5.08,0,0,1-3.3-1.12,4.5,4.5,0,0,1-1.62-2.91C149.7,162,149.92,161.45,150.06,161.46Z"/><path class="cls-5" d="M149.51,140.15c-.18.51-2.06.28-4.27.56s-4,.9-4.29.44c-.14-.22.17-.7.89-1.2a7.47,7.47,0,0,1,6.52-.77C149.18,139.5,149.59,139.9,149.51,140.15Z"/><path class="cls-5" d="M166.46,139.2c-.33.43-1.63,0-3.19,0s-2.88.31-3.19-.14c-.14-.21.07-.64.65-1a4.34,4.34,0,0,1,2.59-.72,4.48,4.48,0,0,1,2.55.84C166.42,138.55,166.6,139,166.46,139.2Z"/><path class="cls-13" d="M129.3,150.75c-.19-.08-7.6-2.44-7.53,5.18s7.7,6,7.71,5.77S129.3,150.75,129.3,150.75Z"/><path class="cls-14" d="M127.13,158.83s-.13.1-.36.2a1.35,1.35,0,0,1-1,0,3.26,3.26,0,0,1-1.54-2.94,4.33,4.33,0,0,1,.35-1.9,1.56,1.56,0,0,1,1-1,.69.69,0,0,1,.79.36c.1.21,0,.36.1.38s.16-.13.09-.45a.8.8,0,0,0-.3-.47,1,1,0,0,0-.74-.19,1.87,1.87,0,0,0-1.37,1.19,4.6,4.6,0,0,0-.45,2.13c.07,1.54.87,3,2,3.28a1.44,1.44,0,0,0,1.21-.21C127.12,159,127.16,158.84,127.13,158.83Z"/><path class="cls-2" d="M124.61,161.37s-.33.32-.28,1a1.38,1.38,0,0,0,.54,1.07,1.59,1.59,0,0,0,1.46.11,1.53,1.53,0,0,0,1-1.06,1.57,1.57,0,0,0-.21-1.17c-.38-.59-.86-.65-.85-.6s.36.2.61.73a1.44,1.44,0,0,1,.11,1,1.25,1.25,0,0,1-.81.79,1.28,1.28,0,0,1-1.12,0,1.2,1.2,0,0,1-.47-.81A3.9,3.9,0,0,1,124.61,161.37Z"/><path class="cls-5" d="M170.18,142.06a12,12,0,0,0-5.14-5c-2.12-1.2-4.42-2.08-6.52-3.3a22.94,22.94,0,0,1-10.25-12.82,13.79,13.79,0,0,1,12.21.16,18.66,18.66,0,0,1,8.43,9.12,29.23,29.23,0,0,1,2.33,12.34"/><path class="cls-5" d="M127.55,127.19c5.64-5.35,16.29-8.31,23.64-5.8-1.09,6.41-5.93,13.62-10.2,18.54s-6.87,13.63-16.2,10.69c-.64-.21-1.38.38-2,0a2.42,2.42,0,0,1-.9-1.42A21.87,21.87,0,0,1,127.55,127.19Z"/><path class="cls-8" d="M124.35,126a.93.93,0,0,0,.16.25,7.7,7.7,0,0,0,.52.69,13.66,13.66,0,0,0,2.32,2.18,14.8,14.8,0,0,0,15.48,1.61,15.36,15.36,0,0,0,3.9-2.67,13.47,13.47,0,0,0,2.06-2.43,8.33,8.33,0,0,0,.45-.73c.1-.18.14-.27.13-.28a20.82,20.82,0,0,1-2.81,3.25,15.56,15.56,0,0,1-3.87,2.56,14.56,14.56,0,0,1-11.07.61,15.68,15.68,0,0,1-4.12-2.12A20.89,20.89,0,0,1,124.35,126Z"/><path class="cls-11" d="M120.69,136.32s.08.1.25.26a8.92,8.92,0,0,0,.8.68,12,12,0,0,0,3.4,1.78,15.15,15.15,0,0,0,5.64.76,17.43,17.43,0,0,0,6.75-1.73,22.25,22.25,0,0,0,5.65-4.09,29.2,29.2,0,0,0,3.63-4.39,34.19,34.19,0,0,0,2-3.28c.22-.4.36-.72.47-.93a1.6,1.6,0,0,0,.14-.34,1.54,1.54,0,0,0-.21.3l-.52.9c-.46.78-1.14,1.89-2.07,3.2a30.55,30.55,0,0,1-3.65,4.3,22.32,22.32,0,0,1-5.58,4,17.42,17.42,0,0,1-6.6,1.73,15.21,15.21,0,0,1-5.55-.67,12.93,12.93,0,0,1-3.4-1.65C121.09,136.63,120.71,136.3,120.69,136.32Z"/><path class="cls-11" d="M127.38,178s-.15,0-.41-.19-.63-.33-1.1-.63a30.65,30.65,0,0,1-3.8-2.74,27.44,27.44,0,0,1-4.7-5.13,26.31,26.31,0,0,1-3.64-7.71,30.14,30.14,0,0,1-.37-15.34,27.45,27.45,0,0,1,1.45-4.46c.21-.51.42-.89.54-1.15s.21-.39.23-.38a15.16,15.16,0,0,1-.58,1.61,32.52,32.52,0,0,0-1.28,4.46,31,31,0,0,0,.51,15.12,26.46,26.46,0,0,0,3.54,7.57,27.7,27.7,0,0,0,4.54,5.13,36.5,36.5,0,0,0,3.67,2.85A11.94,11.94,0,0,1,127.38,178Z"/><path class="cls-4" d="M238.41,370.21l12.74,23.14s26.78-6.81,29.55-2.76l-43,27.94-21.32-35.24Z"/><g class="cls-6"><path class="cls-8" d="M236.41,399.58a2.08,2.08,0,0,0,0,2.79,2,2,0,0,0,2.77,0,2.22,2.22,0,0,0,0-3,2.09,2.09,0,0,0-2.88.28"/></g><g class="cls-6"><path class="cls-7" d="M237.73,418.53,235.58,415,278,389.45a3.53,3.53,0,0,1,3.1,1.31Z"/></g><path class="cls-5" d="M251.73,392.7c.12.22-.9,1-1.54,2.28s-.67,2.56-.92,2.6-.67-1.4.14-3S251.65,392.48,251.73,392.7Z"/><path class="cls-5" d="M257.48,391.85c.17.18-.54,1.1-.72,2.44s.17,2.44-.05,2.55-1.08-1-.82-2.68S257.35,391.65,257.48,391.85Z"/><path class="cls-5" d="M263.4,395.8c-.17.17-1.11-.73-1.26-2.23s.57-2.58.77-2.45-.05,1.12.1,2.36S263.6,395.66,263.4,395.8Z"/><path class="cls-5" d="M248.24,387.75c0,.25-1.14.54-2.3,1.35s-1.88,1.76-2.11,1.64.23-1.43,1.62-2.36S248.24,387.52,248.24,387.75Z"/><g class="cls-10"><polygon points="240.93 374.8 243.2 378.92 221.47 391.65 219.26 388.03 240.93 374.8"/></g><path class="cls-5" d="M245.58,383.13c.06.08-.71.73-2.21,1.3a10.9,10.9,0,0,1-2.73.67,11.09,11.09,0,0,1-1.66.09,3.34,3.34,0,0,1-1-.12,1.08,1.08,0,0,1-.78-1.08,1.38,1.38,0,0,1,.65-1.06,3.83,3.83,0,0,1,.89-.38,10.37,10.37,0,0,1,1.65-.35,9.18,9.18,0,0,1,2.83.12,4.39,4.39,0,0,1,2.37,1c-.06.13-1-.24-2.46-.4a10.31,10.31,0,0,0-2.63.07,9.59,9.59,0,0,0-1.5.36c-.54.16-.93.39-.93.67,0,.11,0,.14.2.22a2.36,2.36,0,0,0,.71.09c.54,0,1.07,0,1.56,0a14.27,14.27,0,0,0,2.62-.46A18,18,0,0,1,245.58,383.13Z"/><path class="cls-5" d="M245.49,383.6c-.06.08-1-.43-1.86-1.78a8.41,8.41,0,0,1-1.14-2.59,8.72,8.72,0,0,1-.24-1.67,2.13,2.13,0,0,1,.74-1.95,1.19,1.19,0,0,1,1.29.06,3.84,3.84,0,0,1,.71.67,5.88,5.88,0,0,1,.89,1.48,6,6,0,0,1,.42,2.84c-.18,1.66-.92,2.45-1,2.39a22.93,22.93,0,0,0,.36-2.42,5.88,5.88,0,0,0-.54-2.49,5,5,0,0,0-.8-1.24c-.35-.43-.75-.7-.9-.55a1.45,1.45,0,0,0-.33,1.18,9.2,9.2,0,0,0,.16,1.52,9.39,9.39,0,0,0,.89,2.46C244.87,382.83,245.58,383.5,245.49,383.6Z"/><path class="cls-4" d="M199.49,415.13l-1.31,26.38s27.32,8.15,26.87,14.62l-51.41-.07.26-41.35Z"/><g class="cls-6"><path class="cls-8" d="M182.36,439.07a2.11,2.11,0,0,0-1.48,2.37,2,2,0,0,0,2.34,1.49,2.2,2.2,0,0,0,1.55-2.52,2.1,2.1,0,0,0-2.6-1.28"/></g><g class="cls-6"><path class="cls-7" d="M173.64,456.06l-.06-4.31,49,.54s2.43,1.71,2.42,3.84Z"/></g><path class="cls-5" d="M199,441.26c0,.25-1.26.35-2.5,1.14s-1.92,1.83-2.15,1.72.17-1.54,1.69-2.47S199.07,441,199,441.26Z"/><path class="cls-5" d="M204.36,443.56c0,.24-1,.65-1.9,1.7s-1.13,2.16-1.38,2.15-.39-1.44.71-2.72S204.35,443.32,204.36,443.56Z"/><path class="cls-5" d="M207.32,450c-.23.05-.56-1.2.1-2.56s1.84-1.89,1.94-1.68-.63.93-1.15,2S207.57,450,207.32,450Z"/><path class="cls-5" d="M198.64,435.22c-.1.22-1.25-.14-2.66-.06s-2.53.51-2.66.29,1-1.1,2.62-1.16S198.77,435,198.64,435.22Z"/><g class="cls-10"><polygon points="198.6 433.81 198.3 439.06 173.69 438.42 173.72 434.18 198.6 433.81"/></g><path class="cls-5" d="M198.81,429.89a4.92,4.92,0,0,1-2.57-.05,12,12,0,0,1-2.67-.86,11.72,11.72,0,0,1-1.46-.8,3.17,3.17,0,0,1-.77-.62,1.1,1.1,0,0,1-.1-1.33,1.38,1.38,0,0,1,1.11-.56,3,3,0,0,1,1,.15,8.53,8.53,0,0,1,1.59.57,9.08,9.08,0,0,1,2.34,1.58c1.18,1.12,1.57,2.06,1.48,2.11s-.68-.71-1.88-1.64a10,10,0,0,0-2.27-1.32,9,9,0,0,0-1.47-.47c-.54-.15-1-.16-1.14.08-.05.09-.06.12,0,.28a2.49,2.49,0,0,0,.56.45,14.89,14.89,0,0,0,1.35.8,14.31,14.31,0,0,0,2.47,1A16.56,16.56,0,0,1,198.81,429.89Z"/><path class="cls-5" d="M198.48,430.24a4.07,4.07,0,0,1-.64-2.49,8.19,8.19,0,0,1,.38-2.8,8.71,8.71,0,0,1,.68-1.55,2.11,2.11,0,0,1,1.65-1.27,1.2,1.2,0,0,1,1.07.73,3.77,3.77,0,0,1,.25.94,6.24,6.24,0,0,1,0,1.73,6,6,0,0,1-1.14,2.64c-1,1.31-2.07,1.6-2.09,1.51s.8-.6,1.59-1.86a6,6,0,0,0,.84-2.4,5,5,0,0,0,0-1.49c-.07-.54-.27-1-.47-.93s-.7.39-.91.83a8.27,8.27,0,0,0-.66,1.38,9.45,9.45,0,0,0-.53,2.55C198.36,429.27,198.62,430.21,198.48,430.24Z"/><path class="cls-4" d="M124.9,189.88l2.88-1.22c-.87-1.41,6,12,15.35,12.09,12.78.12,14.06-12.62,14.06-12.62l.67.08,21,21.78,2.77,61-2.28,7.82-45.13,16.4-15.75-31.34-1.38-19.32Z"/><path class="cls-7" d="M126.28,189.19S100.65,195,96.47,206C94.62,210.8,94,288.71,94,288.71s-3.19,7.13-3,21.83c.2,14.1,9.53,23.22,21.16,25.86,0,0,3.06-22.16,15.33-33.26,11.63-10.52,12.7-9.25,12.7-9.25l-2.81-25.4-2.9-22.12c-2.91-15.81.36-33-5-48.09Z"/><path class="cls-7" d="M180.39,204.68l17.48,76.9-18.8-4.27-6-46.14-15.42-43s2.6.34,5.94.86A20.47,20.47,0,0,1,180.39,204.68Z"/><g class="cls-10"><path d="M94.22,301.91a2.77,2.77,0,0,0,1.24,2.36,6.31,6.31,0,0,0,2.61.94c4.32.76,8.78-.06,13-1.41a103.78,103.78,0,0,0,13.87-6c6.64-3.28,8.72-4.77,15-8.73-6.51,2.67-8.66,3-15.51,4.57-10.23,2.34-21,3.51-30.22,8.44"/></g><path class="cls-13" d="M131.82,272.86l11.44-2.47s13.13-7.32,16.08-7.31c2.66,0,13.15,4.75,15.2,5.7a1.19,1.19,0,0,1,.55.49h0a2.07,2.07,0,0,1-.71,2.77l-.18.11.13.27a3.61,3.61,0,0,1,.33,1.1,1.39,1.39,0,0,1-2.44,1l.46.57a1.64,1.64,0,0,1,.33.82l.06.58a1.56,1.56,0,0,1-.84,1.56h0a1.53,1.53,0,0,1-1.69-.16c-1.42-1.12-4.44-3.34-6.24-3.35a43,43,0,0,0-5.78.65,2,2,0,0,0-1.6,1.54h0c1.05-.1,8.93,2.5,11.71,3.43a2.8,2.8,0,0,1,1.83,1.82c.23.79,0,1.7-1.69,1.59a71.16,71.16,0,0,1-10.14-2.06s-3.31-.39-5.13,1.4c-2.55,2.5-3.75,3.46-6.36,3.05a21.38,21.38,0,0,1-4.63-1.3l-4.14.78Z"/><path class="cls-14" d="M155.89,270.75c0,.05,1-.42,2.56-.79a13.72,13.72,0,0,1,12.07,3,23.49,23.49,0,0,1,1.9,1.89,3,3,0,0,0-.41-.6,12,12,0,0,0-1.37-1.43,13.31,13.31,0,0,0-5.73-3.05,13.54,13.54,0,0,0-6.5,0,11.3,11.3,0,0,0-1.88.65A2.91,2.91,0,0,0,155.89,270.75Z"/><path class="cls-14" d="M156.81,267.12a11.38,11.38,0,0,1,2.66-.92,12,12,0,0,1,6.64.76,26,26,0,0,1,5.82,3.49l1.65,1.26a4.5,4.5,0,0,0,.62.44,4.78,4.78,0,0,0-.56-.52c-.37-.32-.91-.78-1.59-1.33a23.73,23.73,0,0,0-5.84-3.59,11.77,11.77,0,0,0-6.78-.7,8.32,8.32,0,0,0-2,.7,4.89,4.89,0,0,0-.49.29C156.86,267.07,156.81,267.11,156.81,267.12Z"/><path class="cls-7" d="M111.94,208.32l-5.71,61.41h-1.61l25.88.51,9.37,18.81s-33.94,16.52-48.45,12c-17.19-5.39-12.29-24.57-12.16-31.35,0-1.2,9.67-58.24,19-66.79C98.28,202.87,110.61,203.69,111.94,208.32Z"/><path class="cls-5" d="M112.75,225.46a9.58,9.58,0,0,1-.15,1.66c-.16,1.15-.36,2.66-.61,4.49-.58,3.87-1.36,9-2.22,14.77s-1.64,11-2.18,14.78c-.26,1.82-.48,3.33-.64,4.48a10.63,10.63,0,0,1-.3,1.63,9.82,9.82,0,0,1,.09-1.66c.09-1.06.26-2.6.48-4.5.43-3.8,1.14-9,2-14.81s1.74-11,2.38-14.75c.31-1.82.57-3.32.77-4.46A9.89,9.89,0,0,1,112.75,225.46Z"/><path class="cls-5" d="M110.78,199s.21.21.51.64a15.45,15.45,0,0,1,1.09,1.94,21.64,21.64,0,0,1,1.18,3.09,26,26,0,0,1,.78,4,36.46,36.46,0,0,1,0,7.32,14.71,14.71,0,0,1-.44,3,21.21,21.21,0,0,1,.06-3,47.33,47.33,0,0,0-.18-7.24,29.46,29.46,0,0,0-.73-3.9,22.22,22.22,0,0,0-1-3.07C111.31,200,110.7,199.06,110.78,199Z"/><path class="cls-5" d="M91.42,301a.74.74,0,0,1,.26,0l.73.18a19.27,19.27,0,0,0,2.85.43,40.23,40.23,0,0,0,10.56-1c2.19-.46,4.63-1,7.19-1.56s5.2-1.65,8-2.69c5.58-2.09,11.64-4.56,18-7.24l.79-.33-.13.36-9.35-18.82.22.13c-4.16,0-8-.26-11.37-.37s-6.36-.19-8.81-.17-4.39.12-5.7.25-2,.27-2,.23a2.72,2.72,0,0,1,.51-.13c.33-.07.83-.17,1.49-.25a54.14,54.14,0,0,1,5.71-.39c2.46-.06,5.44,0,8.83.07s7.22.27,11.36.28h.15l.06.14,9.4,18.79.13.26-.27.11-.79.34c-6.34,2.68-12.41,5.13-18,7.21-2.8,1-5.47,2-8,2.65s-5,1.06-7.23,1.51a38.52,38.52,0,0,1-10.65.86A12.89,12.89,0,0,1,91.42,301Z"/><path class="cls-5" d="M109.26,269.88c-.07.07-.64-.59-1.81-1.32a13,13,0,0,0-5-1.77,30.49,30.49,0,0,0-5.41-.17,11.58,11.58,0,0,1-2.27,0,8.62,8.62,0,0,1,2.25-.39,22.4,22.4,0,0,1,5.51,0,11.76,11.76,0,0,1,5.15,2A4.74,4.74,0,0,1,109.26,269.88Z"/><g class="cls-10"><path d="M108.83,269.81a25.16,25.16,0,0,0-11,.79c-2.18.66-4.38,1.72-5.6,3.64-.39.62-.64,1.52-.11,2a1.69,1.69,0,0,0,1.81.05A16.57,16.57,0,0,0,97.36,274a23.07,23.07,0,0,1,5.69-3.33,12.89,12.89,0,0,1,6.49-.81"/></g><g class="cls-10"><path d="M107.69,268.49c-.78-2.16-3.61-4.18-5.45-4.8-4.16-1.43-9-2-12.66.44a1.52,1.52,0,0,0-.83,1.09c0,.66.71,1.06,1.35,1.24,2.63.72,5.42.28,8.14,0s5.62-.3,8,1.08"/></g><g class="cls-10"><path d="M106.82,265.79a66,66,0,0,0,5.61-38.24Z"/></g><path class="cls-5" d="M112.21,336.4s9.26,6.14,27.66,6.14,22.61-1.27,22.61-1.27l17.23-15.65,37.79,66.19s30-18.59,30.2-18c.36.35-28-62.71-34.19-73.62a81.75,81.75,0,0,0-7-10.19,26.76,26.76,0,0,0-26.85-9.76,122.85,122.85,0,0,0-15.71,4.4c-13.72,5-25.35,8.4-35.28,17.2C117.17,312,110.22,331.76,112.21,336.4Z"/><path class="cls-5" d="M175.4,318s-13.59,9.41-13.23,16.95c.31,6.32,8.71,99.33,8.71,99.33l33.48-.57,2.29-60.9Z"/><path class="cls-11" d="M209.34,377.53a1.57,1.57,0,0,1-.15-.23l-.4-.68-1.5-2.66-5.42-9.8-17.7-32.46c-2.47-4.54-4.84-8.93-7-13l.25.13a17,17,0,0,0-12.11,7.69,16.3,16.3,0,0,0-2.26,5.85,26.61,26.61,0,0,0-.37,5.42c.09,3.32.39,6,.47,7.78,0,.91.08,1.61.08,2.09a4,4,0,0,1,0,.72,5.21,5.21,0,0,1-.07-.72c0-.51-.09-1.2-.16-2.07-.14-1.82-.49-4.45-.63-7.79a27.26,27.26,0,0,1,.32-5.5,16.57,16.57,0,0,1,2.27-6,17.42,17.42,0,0,1,12.42-8l.17,0,.09.15c2.2,4.06,4.59,8.44,7.06,13L202.2,364l5.28,9.89,1.4,2.7c.15.29.27.52.36.71S209.35,377.52,209.34,377.53Z"/><path class="cls-11" d="M181.37,305.34c.15.11-2.4,2.5-3.58,6.48a21.63,21.63,0,0,0-.65,7.37,5.9,5.9,0,0,1-.45-2.18,14.48,14.48,0,0,1,3.09-10.11A6,6,0,0,1,181.37,305.34Z"/><path class="cls-11" d="M174.34,302.78c.08,0-.19,1-.39,2.49a19.69,19.69,0,0,0,.17,6,19.43,19.43,0,0,0,2,5.65c.74,1.36,1.33,2.12,1.26,2.18a7.47,7.47,0,0,1-1.59-2,16.85,16.85,0,0,1-2.23-11.9A7.33,7.33,0,0,1,174.34,302.78Z"/><path class="cls-5" d="M148.24,260.06c-.07-.07.95-1.23,2.25-3.35a30.33,30.33,0,0,0,2-3.86,33.37,33.37,0,0,0,1.66-5.06,32.67,32.67,0,0,0,.74-5.27,30.24,30.24,0,0,0-.09-4.35c-.24-2.47-.64-4-.55-4a4,4,0,0,1,.35,1,11.62,11.62,0,0,1,.29,1.24,15.8,15.8,0,0,1,.27,1.67,27.15,27.15,0,0,1,.21,4.42,31.64,31.64,0,0,1-.71,5.36,30.83,30.83,0,0,1-1.73,5.13,26.56,26.56,0,0,1-2.13,3.87,14.71,14.71,0,0,1-1,1.38,10.85,10.85,0,0,1-.81,1A4.7,4.7,0,0,1,148.24,260.06Z"/><path class="cls-7" d="M179,200.66s36.29,62.34,37.1,67.13c.61,3.56-.55,13.71-3.8,15-9.1,3.68-19.61-.59-29.23-7.24l-1.44-1Z"/><path class="cls-9" d="M19.31,191.93s5.68-3.31,7,5.9S37,274.57,37,274.57L95.09,274s12.26-.46,20.58,24.53c5.83,17.49,11.77,77,11.77,77l-1.1,43.07-105,0s-3.24-90.26-3.79-130.4S15.9,204.27,19.31,191.93Z"/><path class="cls-5" d="M24.55,191.32a2.06,2.06,0,0,0,.31.28,9.19,9.19,0,0,1,.86.88,7.73,7.73,0,0,1,1.76,4.36c.51,4.2,1.24,10.26,2.15,17.8,1.87,15.13,4.47,36.17,7.41,59.93l0,.24h.23l12.11-.25c13.09-.21,25.57-.3,36.9,0,2.84.09,5.6.21,8.27.42l2,.17c.66.06,1.3.17,1.94.26a6.68,6.68,0,0,1,3.47,1.32,23,23,0,0,1,4.92,5.39,59.1,59.1,0,0,1,3.55,5.83,108.45,108.45,0,0,1,7.92,19.12,41,41,0,0,1,1.33,5.49,12.58,12.58,0,0,1,.16,1.46c0,.33,0,.5,0,.5s0-.17,0-.5a10.39,10.39,0,0,0-.1-1.48,38.92,38.92,0,0,0-1.25-5.53c-.67-2.36-1.63-5.22-2.89-8.47a101.61,101.61,0,0,0-4.9-10.77,59,59,0,0,0-3.54-5.9,23.52,23.52,0,0,0-5-5.5l-.83-.53c-.28-.16-.59-.29-.89-.43a7.65,7.65,0,0,0-1-.3c-.32-.07-.64-.1-1-.16-.65-.08-1.3-.2-2-.27l-2-.17c-2.69-.22-5.45-.35-8.29-.44C75,273.73,62.5,273.8,49.4,274l-12.11.26.26.23c-3-23.75-5.66-44.78-7.58-59.9-1-7.53-1.76-13.59-2.3-17.79a7.66,7.66,0,0,0-1.88-4.39A5.68,5.68,0,0,0,24.55,191.32Z"/><path class="cls-5" d="M100.54,279.19l-.38.07c-.25,0-.63.09-1.11.2a22.46,22.46,0,0,0-9.91,4.93,24.84,24.84,0,0,0-3,3.07l-1.33,1.92c-.11.17-.23.33-.33.5l-.28.54-.57,1.11-.58,1.13c-.18.4-.3.81-.46,1.23-.28.83-.62,1.66-.88,2.54A38.71,38.71,0,0,0,80.68,302c-.09,1-.25,2-.3,3s0,2.06,0,3.12c-.08,2.1.11,4.29.18,6.52.39,8.93,1,18.73,1.83,29,.9,11.59,1.9,22.56,2.88,32.19l-.23-.21,30.64.26,8.68.11,2.3.05.59,0,.2,0-.2,0h-.59l-2.3,0-8.68,0L85,376.15h-.21l0-.21c-1-9.63-2-20.6-2.93-32.2-.79-10.29-1.42-20.11-1.79-29-.06-2.24-.24-4.41-.16-6.54,0-1.07,0-2.11,0-3.14s.22-2,.32-3a39.52,39.52,0,0,1,1.11-5.67c.27-.89.62-1.74.92-2.58.16-.41.28-.83.47-1.23l.59-1.14c.2-.38.39-.76.59-1.12l.28-.55c.11-.18.24-.34.35-.51l1.36-1.93a23.42,23.42,0,0,1,3-3.09,21.1,21.1,0,0,1,5.89-3.58A20.2,20.2,0,0,1,99,279.36c.49-.09.87-.14,1.12-.16A2.86,2.86,0,0,1,100.54,279.19Z"/><path class="cls-5" d="M99.9,419.17c-.15,0-.26-9.36-.26-20.92s.11-20.92.26-20.92.26,9.37.26,20.92S100,419.17,99.9,419.17Z"/><path class="cls-2" d="M230.37,237.07,171.3,242.4a1.35,1.35,0,0,0-1.17,1L157,285.52a1.36,1.36,0,0,1-.85.88l-22.69,6.17a1.37,1.37,0,0,0-.9,1.24,1.36,1.36,0,0,0,1.67,1.36l24.4-5.18,54.91-6.84a1.35,1.35,0,0,0,1.1-.85l17.11-43.39A1.35,1.35,0,0,0,230.37,237.07Z"/><path class="cls-5" d="M230.37,237.07a1.19,1.19,0,0,1,.53,0,1.4,1.4,0,0,1,1,1.14,2.16,2.16,0,0,1-.25,1.13l-.5,1.29-1.25,3.23c-1.9,4.88-4.66,12-8.11,20.78l-5.69,14.52-.77,2-.4,1a1.68,1.68,0,0,1-.71,1,1.61,1.61,0,0,1-.59.21l-.55.07-1.1.14-2.23.28L200.48,285l-41.81,5.25h0l-12.7,2.7-6.5,1.38-3.28.69-1.65.35a2.2,2.2,0,0,1-.94.08,1.62,1.62,0,0,1-.87-.47,1.65,1.65,0,0,1-.41-1.5,1.61,1.61,0,0,1,1-1.14h0l22.68-6.17h0a1.14,1.14,0,0,0,.74-.86l.42-1.35c.28-.9.56-1.79.83-2.68l1.66-5.3,3.21-10.31c2.11-6.73,4.13-13.18,6-19.3.24-.76.47-1.52.71-2.27a6.75,6.75,0,0,1,.41-1.16,1.61,1.61,0,0,1,1.1-.73l4.6-.41,8.72-.78,15.56-1.37,22.25-1.93,6-.5,1.55-.12.53,0-.52.07-1.55.16-6,.59L200.09,240l-15.55,1.44-8.72.8-4.57.42a1.12,1.12,0,0,0-.79.53,6.49,6.49,0,0,0-.37,1.06l-.71,2.27-6,19.32q-1.57,5.06-3.2,10.31c-.55,1.75-1.1,3.51-1.65,5.3l-.84,2.68-.42,1.35a1.65,1.65,0,0,1-1.05,1.19h0l-22.69,6.17h0a1.1,1.1,0,0,0-.43,1.79,1.06,1.06,0,0,0,.6.31,1.61,1.61,0,0,0,.73-.07l1.64-.35,3.29-.69,6.5-1.38,12.7-2.68h0l41.83-5.18,9.25-1.15,2.23-.27L213,283a2.28,2.28,0,0,0,1-.22,1.22,1.22,0,0,0,.55-.76l.4-1c.27-.66.53-1.33.79-2l5.74-14.49,8.26-20.72c.48-1.21.91-2.29,1.29-3.22.18-.46.36-.89.51-1.28a2.08,2.08,0,0,0,.27-1.08,1.33,1.33,0,0,0-.91-1.1A2.42,2.42,0,0,0,230.37,237.07Z"/><path class="cls-5" d="M173.5,242.21a1.62,1.62,0,0,1-.09.5l-.37,1.41c-.33,1.22-.84,3-1.48,5.16-1.28,4.34-3.14,10.32-5.24,16.9s-4,12.47-5.39,16.85c-.68,2.1-1.23,3.83-1.64,5.11l-.46,1.38c-.11.32-.18.48-.2.47a2.76,2.76,0,0,1,.1-.5l.37-1.41c.33-1.22.83-3,1.47-5.16,1.29-4.34,3.15-10.32,5.25-16.9s4-12.47,5.39-16.85l1.63-5.11c.19-.55.34-1,.47-1.38S173.48,242.2,173.5,242.21Z"/><path class="cls-8" d="M196.18,259.42a2.74,2.74,0,0,0-2.31,1.08,2.15,2.15,0,0,0-.65,2.31,1.86,1.86,0,0,0,1.51,1,3.1,3.1,0,0,0,1.77-.47,2.6,2.6,0,0,0,1.43-2A1.87,1.87,0,0,0,196.18,259.42Z"/><path class="cls-5" d="M188.94,240.49a5.6,5.6,0,0,1-.48-1.24l-1.14-3.44c-1-2.9-2.33-6.89-4-11.24s-3.29-8.25-4.5-11l-1.44-3.32a7,7,0,0,1-.47-1.25,7.75,7.75,0,0,1,.66,1.16c.39.76.94,1.87,1.59,3.26,1.29,2.77,3,6.65,4.65,11s3,8.39,3.86,11.32c.43,1.47.77,2.66,1,3.49A7.33,7.33,0,0,1,188.94,240.49Z"/></g><g id="Floor"><path class="cls-5" d="M434,456.33c0,.15-97.16.26-217,.26s-217-.11-217-.26,97.13-.26,217-.26S434,456.19,434,456.33Z"/></g></g></svg>