<svg xmlns="http://www.w3.org/2000/svg" viewBox="0 0 194.13 140.74"><defs><style>.cls-1{fill:#fff;}.cls-2{fill:#d3b88d;}</style></defs><g id="Camada_2" data-name="Camada 2"><g id="Camada_1-2" data-name="Camada 1"><path class="cls-1" d="M70.75,0C79.81,0,90,2.51,99.09,2.51A31.46,31.46,0,0,0,112,0h.77l7.71,55.91h-1.93c-15.62-35.28-32.58-54-47.81-54-17.93,0-24.48,17.93-24.48,68.44s6.36,68.44,24.1,68.44c13.69,0,35.47-20.63,51.09-59.19h1.93l-7.71,60.54h-.77a40.75,40.75,0,0,0-14.46-2.31c-10,0-20.63,2.89-30.08,2.89C29.69,140.74,0,111.05,0,70.37S29.88,0,70.75,0Z"/><path class="cls-2" d="M95.23,70.37c0,38,13.3,67.86,43.38,67.86,18.89,0,33.35-9.45,33.35-29.5v-6.17c0-18.32-4.43-26.61-21.59-28.73V72.48h43.76v1.16c-7.71,1.35-9.83,6.17-9.83,28.92v32h-.77c-12.34-5-22.17,5.59-44.92,5.59-34.7,0-60.34-29.5-60.34-69.79S103.14.57,137.84.57c11.37,0,25.45,4.24,34.7,0h.77l7.52,48.2H179.1c-10.22-32-22.36-46.27-41.26-46.27C107.76,2.5,95.23,32.39,95.23,70.37Z"/></g></g></svg>