<svg xmlns="http://www.w3.org/2000/svg" viewBox="0 0 465.81 174.99"><defs><style>.cls-1{fill:#6c786c;}.cls-2{fill:#d3b88d;}</style></defs><g id="Camada_2" data-name="Camada 2"><g id="Camada_1-2" data-name="Camada 1"><path class="cls-1" d="M217.82,0c4.78,0,10.18,1.32,15,1.32A16.57,16.57,0,0,0,239.6,0h.53l4.13,30h-1S225.93.75,217.85.75c-9.51,0-13,9.51-13,36.31s3.38,36.31,12.79,36.31c7.26,0,27.1-31.37,27.1-31.37h1l-4.07,32h-.57a21.31,21.31,0,0,0-7.63-1.22c-5.29,0-10.89,1.52-15.88,1.52-21.48,0-37.15-15.68-37.15-37.15S196.23,0,217.82,0Z"/><path class="cls-2" d="M232.74,37.66c0,20.49,6.78,36.61,22.09,36.61,9.62,0,17-5.1,17-15.91V55c0-9.88-2.26-14.36-11-15.5V38h22v.72c-3.92.72-5,3.27-5,15.32V71h-.39c-6.28-2.66-11.27,3-22.83,3C237,74,223.93,58.34,223.93,37S236.56,0,254.2,0c5.77,0,12.93,2.25,17.63,0h.66l3.83,26h-.88c-5.2-17.27-11.39-25-21-25C239.13,1.06,232.74,17.18,232.74,37.66Z"/><path class="cls-1" d="M23.21,95c3,0,6.33.82,9.3.82A10.38,10.38,0,0,0,36.75,95h.18l2.48,18h-.24c-5.27-11.89-11-18.2-16.12-18.2-6,0-8.25,6-8.25,23.07s2.15,23.07,8.13,23.07c4.61,0,12-6.95,17.22-19.94h.24l-2.54,20H37.7a13.28,13.28,0,0,0-4.74-.76c-3.29,0-6.77.94-9.87.94C9.75,141.18,0,131.44,0,118.09S9.81,95,23.21,95Z"/><path class="cls-1" d="M66.8,140c3.26-2,1.89-7.81-1-15.56L65.24,123H52.08c-2.36,9.68,1.21,15.28,5.73,16.62V140h-17v-.38c4.24-1.57,7.47-7.54,11.52-19.35L58,103.74c-2-4.28-3.8-6.47-7.15-7.36V96H69.45l10.68,28.6c2.83,7.54,5.47,13.89,8.68,15V140h-22ZM52.08,123H64.67l-5.48-14.42c-.44-1.2-.88-2.2-1.26-3.21l-5.29,15.74C52.46,121.75,52.21,122.37,52.08,123Z"/><path class="cls-1" d="M104.81,139.93V140h-18v-.38c4.53-2.64,6-9,6-27.09v-2.45c0-3.83-1-11.69-6-13.7V96h16.43l15.06,27.28L129,96h16.86v.38c-2.67.94-4,4.4-4,13.26v16.72c0,8.87,1.33,12.32,4,13.26V140h-22v-.07c2.67-.94,3.93-4.41,4-13.28V104L114,141h-1L93.81,104.24v8.56C93.69,130.93,97.84,137.1,104.81,139.93Z"/><path class="cls-1" d="M149.81,139.62c2.67-.94,4-4.4,4-13.26V109.64c0-8.87-1.33-12.32-4-13.26V96h22v.38c-2.67.94-4,4.4-4,13.26v16.72c0,8.87,1.33,12.32,4,13.26V140h-22Z"/><path class="cls-1" d="M175.81,139.93c2.41-.94,3.67-4.41,4-13.28V109.91c-.33-8.88-4-13.28-4-13.28V96h21v1.51c-2.67.93-4,4.35-4,13.11v23.16c0,4.6,2,6.22,5,6.22h.41c5,0,11.18-7.39,17.25-20h-.16l-3.36,21h-.3l-13.91-1H175.81Z"/><path class="cls-1" d="M239.8,140c3.26-2,1.89-7.81-1.05-15.56l-.51-1.44H225.08c-2.36,9.68,1.21,15.28,5.73,16.62V140h-17v-.38c4.24-1.57,7.47-7.54,11.52-19.35L231,103.74c-2-4.28-3.8-6.47-7.15-7.36V96h18.64l10.68,28.6c2.83,7.54,5.47,13.89,8.68,15V140h-22Zm-14.63-17h12.59l-5.48-14.42c-.44-1.2-.88-2.2-1.26-3.21l-5.29,15.74C225.55,121.75,225.3,122.37,225.17,123Z"/><path class="cls-2" d="M269.23,119c0,12.4,4.34,22.16,14.16,22.16,6.17,0,10.89-3.08,10.42-9.63v-2c.47-6-6-9.38-6-9.38V120h14c-2.35.44-3,2-3,9.49V140h-.23c-3.77-1.65-6.77,1.83-13.71,1.83-10.59,0-18.41-9.68-18.41-22.92S274,96,284.63,96c3.47,0,7.77,1.4,10.59,0h-.5l2.45,16h-.57c-3.34-10.53-7.3-15.19-13.47-15.19C273.32,96.81,269.23,106.57,269.23,119Z"/><path class="cls-2" d="M328.81,140.62c3.14-.32,4.23-2.87.64-12.61L328,124h-15.9l-.26.64c-4.1,11.52-2.68,15.4,2,16V141h-11v-.38c3-.38,4.77-5.85,8.22-15.86l7.86-23.1c-1.45-3.08-2.78-4.15-5.08-4.34V97h8.5l11.51,31.18c3.46,9.49,4.41,12.13,7,12.44V141h-12v-.38ZM320,102.35,312.72,123h15L322,107.39C321.28,105.37,320.65,103.73,320,102.35Z"/><path class="cls-2" d="M344.13,141c2.52-.82,3.68-13.66,3.68-13.66V110.6l-3-13.28V97h11v.32s-3.75,1.76-4,13.28v22.16c.25,6,2.26,7.62,6,7.24h2.08c7.93.38,15.3-17,15.3-17h.62l-4.13,19h-.2l-13-2H344.81v1Z"/><path class="cls-2" d="M379.81,140.62c2-.44,3-1.76,3-13.28V110.6c0-11.52-1-12.84-3-13.28V97h11v.32c-2.63.44-3.57,1.76-3,13.28v16.74c-.57,11.52.37,12.84,3,13.28V141h-11Z"/><path class="cls-2" d="M422.27,141H394.81v.15L423.14,101H407.6c-7.8,0-10.23,4-12.21,11h-.22l2.71-15h28.93v2.06L400,137h14c7.43,0,10.16-3.32,12.64-11H425.6Z"/><path class="cls-2" d="M452.81,140.62c3.14-.32,4.23-2.87.64-12.61L452,124h-15.9l-.26.64c-4.1,11.52-2.68,15.4,2,16V141h-11v-.38c3-.38,4.77-5.85,8.22-15.86l7.86-23.1c-1.45-3.08-2.78-4.15-5.08-4.34V97h8.81l11.94,31.18c3.59,9.49,4.58,12.13,7.25,12.44V141h-13Zm-8.6-38.27L436.91,123h15l-5.73-15.61C445.47,105.37,444.84,103.73,444.21,102.35Z"/><path class="cls-1" d="M99.14,168.61a3,3,0,0,0,2.67-1.27V163.7l-1-5v-.11a10.71,10.71,0,0,0,3-.41v5.48s-.33,4.7,1,5.18v.1a5.58,5.58,0,0,0-3,1h0v-2.44a4.11,4.11,0,0,1-3.69,2.32c-1.84,0-3.31-1-3.31-3.52v-2.64l-1-5v-.09a12.7,12.7,0,0,0,3-.45v7.63C96.81,167.84,97.77,168.61,99.14,168.61Z"/><path class="cls-1" d="M117.81,169.57V170h-4v-.43c1-.26,1.12-.6,1-5.18v-7.17c.12-3-.1-3.86-1-4.34v-.1a10.94,10.94,0,0,0,2.68-.78h.32v12.41C116.58,169,116.72,169.3,117.81,169.57Z"/><path class="cls-1" d="M133.89,168.13l.05.07a3.1,3.1,0,0,1-2.85,1.75,2.5,2.5,0,0,1-2.61-2.85l.12-5.13c.05-2.11-2.79-2.68-2.79-2.68v.17c2.19-.05,3.56-2.08,3.85-4.46h.15v4H134l-.36,1h-3.83v6.46c.45,1.46,1.19,2.06,2.42,2.06A3.47,3.47,0,0,0,133.89,168.13Z"/><path class="cls-1" d="M147.81,169.53V170h-5v-.1c1.12-.27,1.28-.62,1.28-5.32,0-3.51-.26-4.55-1.28-5.09v-.11a3.7,3.7,0,0,0,3-1.38h0v2.92a4.5,4.5,0,0,1,3.66-2.8,1.71,1.71,0,0,1,1.81,1.87c0,.79-.39,1.41-1.21,1.41s-1.5-.82-1.07-2.18a3.8,3.8,0,0,0-3.19,2v3.12C145.8,168.93,146,169.14,147.81,169.53Z"/><path class="cls-1" d="M166.58,161.49l-.14,6.06c0,.82.36,1.2,1.05,1.2a1.89,1.89,0,0,0,.77-.19l.05.07a1.89,1.89,0,0,1-1.87,1.32,1.56,1.56,0,0,1-1.63-1.73v-.36a4.09,4.09,0,0,1-3.48,2.08c-1.58,0-2.49-.91-2.49-2.13s.72-1.89,3.36-3.14l2.61-1.22v-1.22c0-2.64-1.05-3.93-3.76-3.33-.07,1.92-.46,3.14-1.39,3.14a.86.86,0,0,1-.91-.91c0-1.75,3.14-3,5.08-3C165.55,158.16,166.6,159.16,166.58,161.49Zm-4.14,7.21a3.33,3.33,0,0,0,2.37-1v-4c-3.16,1.56-4,2.3-4,3.45A1.46,1.46,0,0,0,162.44,168.7Z"/><path class="cls-1" d="M183.3,166.94c0-3-5.57-2.38-5.57-6a3.27,3.27,0,0,1,3.54-3.06,20.73,20.73,0,0,1,2.65.57.88.88,0,0,0,.89-.42h.24l-1,4h0c-.08-2.82-1.29-4.11-2.8-4.11A2.11,2.11,0,0,0,179,160c0,3.3,6,2.6,6,6.55,0,2.07-1.61,3.5-3.91,3.5-1.35,0-2.32-.63-3.17-.63a1.39,1.39,0,0,0-1.21.58h.06l1.39-5h.22c-.28,3.15,1.52,4.07,2.7,4.07A2,2,0,0,0,183.3,166.94Z"/><path class="cls-1" d="M200.12,166.94c0-3-5.57-2.38-5.57-6a3.27,3.27,0,0,1,3.54-3.06,20.73,20.73,0,0,1,2.65.57.88.88,0,0,0,.89-.42h.24l-1,4h0c-.08-2.82-1.29-4.11-2.8-4.11a2.11,2.11,0,0,0-2.29,2.11c0,3.3,6,2.6,6,6.55,0,2.07-1.61,3.5-3.91,3.5-1.35,0-2.32-.63-3.17-.63a1.39,1.39,0,0,0-1.21.58h.06l1.39-5h.22c-.28,3.15,1.52,4.07,2.7,4.07A2,2,0,0,0,200.12,166.94Z"/><path class="cls-1" d="M211,164.05c0-3.48,2.23-5.9,5.25-5.9s5.2,2.42,5.2,5.9-2.23,5.9-5.25,5.9S211,167.53,211,164.05Zm8.39,0c0-3.5-1.13-5.63-3.14-5.68s-3.19,2.09-3.19,5.68,1.13,5.68,3.14,5.68S219.43,167.6,219.43,164.05Z"/><path class="cls-1" d="M234.81,169.57V170h-4v-.1c1-.27,1.17-.62,1.17-5.32,0-3.51-.23-4.55-1.17-5.09v-.11a3.27,3.27,0,0,0,2.71-1.38h.29v2.52a3.91,3.91,0,0,1,3.59-2.4c1.89,0,3.41,1.34,3.41,4.24v2s.22,4.94,1,5.2V170h-4v-.1c1.06-.26,1.17-.62,1.17-5.49,0-3.62-.89-4.72-2.55-4.72a3,3,0,0,0-2.62,1.46v3.27Z"/><path class="cls-1" d="M251.16,164.05c0-3.48,2.23-5.9,5.25-5.9s5.2,2.42,5.2,5.9-2.23,5.9-5.25,5.9S251.16,167.53,251.16,164.05Zm8.39,0c0-3.5-1.13-5.63-3.14-5.68s-3.19,2.09-3.19,5.68,1.13,5.68,3.14,5.68S259.55,167.6,259.55,164.05Z"/><path class="cls-1" d="M274,164.87a3.33,3.33,0,0,1-2.23-3.14c0-2.06,1.85-3.57,4.29-3.57a15.51,15.51,0,0,0,1.7-.16h.84s2.56.16,2.95,1h-3.28a2.63,2.63,0,0,1,2.18,2.73c0,2.13-1.92,3.52-4.39,3.52a5.24,5.24,0,0,1-1.85-.31,1.85,1.85,0,0,0-1.17,1.68c0,1.27.84,1.73,2.3,1.73,1.13,0,2.16-.22,3-.22,2,0,3.31.91,3.31,2.88,0,2.57-2.76,4-5.59,4-3.31,0-5.08-.89-5.08-2.8,0-1.25,1-2.13,2.64-2.44-1.2-.26-2.18-.91-2.18-2.28S272.38,165.37,274,164.87Zm2.16,10.06c2.42,0,4-1.22,4-3,0-1.41-1.05-1.89-2.56-1.89H275a5.78,5.78,0,0,1-1.17-.1,2.46,2.46,0,0,0-1.13,2.21C272.71,174,274,174.93,276.12,174.93Zm2.27-13.2c0-2.23-.84-3.38-2.35-3.38s-2.33,1.15-2.33,3.38c0,2,.84,3.33,2.35,3.33S278.39,163.77,278.39,161.73Z"/><path class="cls-1" d="M294.81,169.53V170h-5v-.1c1.12-.27,1.28-.62,1.28-5.32,0-3.51-.26-4.55-1.28-5.09v-.11a3.7,3.7,0,0,0,3-1.38h0v2.92a4.5,4.5,0,0,1,3.66-2.8,1.71,1.71,0,0,1,1.81,1.87c0,.79-.39,1.41-1.21,1.41s-1.5-.82-1.07-2.18a3.8,3.8,0,0,0-3.19,2v3.12C292.81,168.93,293,169.14,294.81,169.53Z"/><path class="cls-1" d="M314.58,161.49l-.14,6.06c0,.82.36,1.2,1.05,1.2a1.89,1.89,0,0,0,.77-.19l.05.07a1.89,1.89,0,0,1-1.87,1.32,1.56,1.56,0,0,1-1.63-1.73v-.36a4.09,4.09,0,0,1-3.48,2.08c-1.58,0-2.49-.91-2.49-2.13s.72-1.89,3.36-3.14l2.61-1.22v-1.22c0-2.64-1.05-3.93-3.76-3.33-.07,1.92-.46,3.14-1.39,3.14a.86.86,0,0,1-.91-.91c0-1.75,3.14-3,5.08-3C313.55,158.16,314.6,159.16,314.58,161.49Zm-4.14,7.21a3.33,3.33,0,0,0,2.37-1v-4c-3.16,1.56-4,2.3-4,3.45A1.46,1.46,0,0,0,310.44,168.7Z"/><path class="cls-1" d="M329.81,169.9v.1h-4v-.43c.57-.26,1-5.15,1-5.15V160h-2v-1h2v-3.37a3.49,3.49,0,0,1,3.52-4.22c1.85,0,3.12.82,3.12,1.82a.84.84,0,0,1-.91.84c-.89,0-1.32-.79-1.63-2.52-1.82.19-2.73,1.75-2.1,4V159h2.87l-.34,1h-3.53v4.79C327.81,169.28,328,169.54,329.81,169.9Z"/><path class="cls-1" d="M343.81,169.57V170h-4v-.1c1-.27,1.17-.62,1.17-5.32,0-3.51-.23-4.55-1.17-5.09v-.11a3.27,3.27,0,0,0,2.71-1.38h.29v6.42C342.6,169,343.81,169.57,343.81,169.57Zm-3.43-14c-.22-.6.17-1.22.93-1.51s1.49-.14,1.7.41-.19,1.25-1,1.51S340.54,156,340.38,155.54Z"/><path class="cls-1" d="M360.58,161.49l-.14,6.06c0,.82.36,1.2,1.05,1.2a1.89,1.89,0,0,0,.77-.19l.05.07a1.89,1.89,0,0,1-1.87,1.32,1.56,1.56,0,0,1-1.63-1.73v-.36a4.09,4.09,0,0,1-3.48,2.08c-1.58,0-2.49-.91-2.49-2.13s.72-1.89,3.36-3.14l2.61-1.22v-1.22c0-2.64-1.05-3.93-3.76-3.33-.07,1.92-.46,3.14-1.39,3.14a.86.86,0,0,1-.91-.91c0-1.75,3.14-3,5.08-3C359.55,158.16,360.6,159.16,360.58,161.49Zm-4.14,7.21a3.33,3.33,0,0,0,2.37-1v-4c-3.16,1.56-4,2.3-4,3.45A1.46,1.46,0,0,0,356.44,168.7Z"/></g></g></svg>