<svg xmlns="http://www.w3.org/2000/svg" viewBox="0 0 420.49 131.2"><defs><style>.cls-1{fill:#6c786c;}.cls-2{fill:#d3b88d;}</style></defs><g id="Camada_2" data-name="Camada 2"><g id="Camada_1-2" data-name="Camada 1"><path class="cls-1" d="M51.81,0c6.64,0,14.12,1.84,20.75,1.84A22.92,22.92,0,0,0,82,0h.56l5.65,40.94H86.82C75.38,15.1,63,1.41,51.81,1.41c-13.13,0-17.93,13.13-17.93,50.12s4.66,50.12,17.65,50.12c10,0,26-15.11,37.42-43.35h1.41l-5.65,44.33h-.56a29.77,29.77,0,0,0-10.59-1.69c-7.34,0-15.11,2.12-22,2.12C21.74,103.06,0,81.32,0,51.53S21.88,0,51.81,0Z"/><path class="cls-2" d="M69.74,51.53c0,27.81,9.74,49.7,31.77,49.7,13.84,0,24.43-6.92,24.43-21.6V75.11c0-13.41-3.25-19.48-15.81-21v-1h32.05v.85c-5.65,1-7.2,4.52-7.2,21.18V98.55h-.56c-9-3.67-16.24,4.09-32.9,4.09-25.41,0-44.19-21.6-44.19-51.11S75.54.42,101,.42c8.33,0,18.64,3.11,25.41,0h.56l5.51,35.3h-1.27C123.69,12.28,114.79,1.83,101,1.83,78.91,1.83,69.74,23.72,69.74,51.53Z"/><path class="cls-1" d="M171.86,3.05c3.09,0,6.56.85,9.65.85a10.73,10.73,0,0,0,4.4-.85h.26l2.63,19h-.66c-5.32-12-11.09-18.38-16.28-18.38-6.1,0-8.34,6.1-8.34,23.3s2.17,23.3,8.21,23.3c4.66,0,12.08-7,17.4-20.15h.66l-2.63,20.61h-.26A13.87,13.87,0,0,0,182,50c-3.41,0-7,1-10.24,1-13.85,0-24-10.11-24-24S157.94,3.05,171.86,3.05Z"/><path class="cls-1" d="M217,49.59c3.28-2,1.9-7.88-1-15.69l-.53-1.44H201.71c-2.43,10,1.25,15.75,5.91,17.13V50H189.76v-.39c4.4-1.64,7.75-7.88,12-20.22l5.84-17.26c-2-4.46-3.94-6.76-7.42-7.68V4h19.63l11.16,29.87c3,7.88,5.71,14.51,9.06,15.69V50H217v-.4Zm-15-18h13.13l-5.71-15c-.46-1.25-.92-2.3-1.31-3.35l-5.51,16.41C202.38,30.29,202.11,30.94,202,31.6Z"/><path class="cls-1" d="M256.46,49.59V50H238.67v-.39c4.46-2.76,5.91-9.39,5.91-28.29V18.74c0-4-1-12.21-5.91-14.31V4h18.77l14.84,28.49L282.78,4h16.61v.39c-2.63,1-3.94,4.6-3.94,13.85V35.74c0,9.26,1.31,12.87,3.94,13.85V50H276.94v-.39c2.63-1,3.94-4.59,3.94-13.85V12.11L266.5,50.64h-1.05L245.36,12.37V21.3C245.37,40.2,249.7,46.63,256.46,49.59Z"/><path class="cls-1" d="M304,49.59c2.63-1,3.94-4.59,3.94-13.85V18.28c0-9.26-1.31-12.87-3.94-13.85V4H326.3v.39c-2.63,1-3.94,4.6-3.94,13.85V35.74c0,9.26,1.31,12.87,3.94,13.85V50H304Z"/><path class="cls-1" d="M330.9,49.59c2.63-1,3.94-4.59,3.94-13.85V18.28c0-9.26-1.31-12.87-3.94-13.85V4h22.32v.39c-2.63,1-3.94,4.6-3.94,13.85V42.77c0,4.86,2,6.56,4.92,6.56h.39c4.92,0,11-7.81,17-21.14h.66l-3.61,22.58h-.26A98.48,98.48,0,0,0,353.87,50h-23Z"/><path class="cls-1" d="M397.52,49.59c3.28-2,1.9-7.88-1-15.69l-.53-1.44H382.22c-2.43,10,1.25,15.75,5.91,17.13V50H370.27v-.39c4.4-1.64,7.75-7.88,12-20.22l5.84-17.26c-2-4.46-3.94-6.76-7.42-7.68V4h19.63l11.16,29.87c2.95,7.88,5.71,14.51,9.06,15.69V50h-23v-.4Zm-15-18h13.13l-5.71-15c-.46-1.25-.92-2.3-1.31-3.35l-5.51,16.41A18.48,18.48,0,0,0,382.49,31.6Z"/><path class="cls-2" d="M154.92,82.14c0,12.93,4.53,23.11,14.77,23.11,6.43,0,11.36-3.22,11.36-10v-2.1c0-6.24-1.51-9.06-7.35-9.78v-.46h14.9v.39c-2.63.46-3.35,2.1-3.35,9.85V104H185c-4.2-1.71-7.55,1.9-15.3,1.9-11.82,0-20.55-10-20.55-23.76s8.47-23.76,20.28-23.76c3.87,0,8.66,1.44,11.82,0h.26l2.56,16.41h-.59c-3.48-10.9-7.61-15.75-14.05-15.75C159.18,59,154.92,69.21,154.92,82.14Z"/><path class="cls-2" d="M217.14,104.72c3.22-.33,4.33-3,.66-13l-1.51-4.14H200l-.26.66c-4.2,11.88-2.76,15.89,2,16.48v.39H189.9v-.39c3.22-.39,5.19-6.1,8.93-16.54l8.53-24.09c-1.58-3.22-3-4.33-5.51-4.53v-.39h8.86l12,32.56c3.61,9.91,4.59,12.67,7.29,13v.39H217.14Zm-9.25-39.51-7.61,21.53H216l-6-16.28C209.2,68.36,208.55,66.65,207.89,65.21Z"/><path class="cls-2" d="M233,104.72c2.63-.46,3.61-1.84,3.61-13.85V73.41c0-12-1-13.39-3.61-13.85v-.39h11.88v.39c-2.63.46-3.61,1.84-3.61,13.85V96.52c0,6.3,2.1,7.94,6,7.94h2.17c8.27,0,11.68-6,15.95-17.92H266l-4.2,19.36h-.26a85.59,85.59,0,0,0-13.59-.79H233v-.39Z"/><path class="cls-2" d="M269.72,104.72c2.63-.46,3.61-1.84,3.61-13.85V73.41c0-12-1-13.39-3.61-13.85v-.39H281.6v.39C279,60,278,61.4,278,73.41V90.87c0,12,1,13.39,3.61,13.85v.39H269.72Z"/><path class="cls-2" d="M316.06,105.12h-29.8v-.39l29.08-41.22H299.39c-8,0-10.5,4.14-12.54,11.29h-.59l2.82-15.62h30.13v.39l-29.08,41.22h15.23c8.07,0,11-3.61,13.72-12h.59Z"/><path class="cls-2" d="M346.65,104.72c3.22-.33,4.33-3,.66-13l-1.51-4.14H329.52l-.26.66c-4.2,11.88-2.76,15.89,2,16.48v.39H319.41v-.39c3.22-.39,5.19-6.1,8.93-16.54l8.53-24.09c-1.58-3.22-3-4.33-5.51-4.53v-.39h8.86l12,32.56c3.61,9.91,4.59,12.67,7.29,13v.39H346.65v-.4Zm-9.26-39.51-7.61,21.53h15.69l-6-16.28C338.71,68.36,338.05,66.65,337.39,65.21Z"/><path class="cls-1" d="M153.26,126.12a2.4,2.4,0,0,0,2.12-1v-2.9c0-3.15-.29-3.66-1.16-3.95v-.08a8.89,8.89,0,0,0,2.48-.34v4.37c0,2.8.1,3.74,1,4.12v.08a2.34,2.34,0,0,0-2.19.88h-.08v-2a3.09,3.09,0,0,1-2.78,1.85c-1.39,0-2.5-.84-2.5-2.8v-2.16c0-3.17-.21-3.64-.95-4v-.08a9.87,9.87,0,0,0,2.27-.34v6.07C151.41,125.51,152.17,126.12,153.26,126.12Z"/><path class="cls-1" d="M168.21,126.89V127H165v-.08c.84-.21,1-.48,1-4.12v-5.7c0-2.38-.17-3.07-1-3.45v-.08a2.58,2.58,0,0,0,2.19-1.11h.08v10.36C167.22,126.41,167.34,126.68,168.21,126.89Z"/><path class="cls-1" d="M181,125.74l0,.06a2.46,2.46,0,0,1-2.27,1.39,2,2,0,0,1-2.08-2.27l.1-4.08c0-1.68-.23-2.1-2.17-2.14v-.15c1.91,0,3.11-1.66,3.36-3.55h.13v3h3l-.29.93H178.1v5.45c0,1.16.59,1.64,1.56,1.64A2.47,2.47,0,0,0,181,125.74Z"/><path class="cls-1" d="M191.71,126.89V127H188v-.08c.84-.21.95-.48.95-4.1,0-2.71-.19-3.51-.95-3.93v-.08a2.74,2.74,0,0,0,2.21-1.07h.08V120a3.29,3.29,0,0,1,2.65-2.23,1.32,1.32,0,0,1,1.32,1.49c0,.63-.29,1.13-.88,1.13s-1.09-.65-.78-1.74a2.76,2.76,0,0,0-2.31,1.62v2.48C190.26,126.41,190.41,126.58,191.71,126.89Z"/><path class="cls-1" d="M207.33,120.46l-.11,4.83c0,.65.29.95.84.95a1.52,1.52,0,0,0,.61-.15l0,.06a1.5,1.5,0,0,1-1.49,1,1.25,1.25,0,0,1-1.3-1.37v-.29a3.25,3.25,0,0,1-2.77,1.66c-1.26,0-2-.72-2-1.7s.57-1.51,2.67-2.5l2.08-1v-1c0-2.1-.84-3.13-3-2.65-.06,1.53-.36,2.5-1.11,2.5a.68.68,0,0,1-.72-.72c0-1.39,2.5-2.37,4-2.37C206.51,117.81,207.35,118.61,207.33,120.46ZM204,126.2a2.67,2.67,0,0,0,1.89-.84v-3.15c-2.52,1.24-3.2,1.83-3.2,2.75A1.14,1.14,0,0,0,204,126.2Z"/><path class="cls-1" d="M220.35,125.25c0-2.46-4.56-2-4.56-4.94a2.67,2.67,0,0,1,2.9-2.5,18.28,18.28,0,0,1,2.18.46.7.7,0,0,0,.72-.34h.12l-.78,3.17h-.11c-.06-2.14-1-3.11-2.12-3.11a1.6,1.6,0,0,0-1.74,1.6c0,2.5,4.56,2,4.56,5a2.7,2.7,0,0,1-3,2.65c-1,0-1.75-.48-2.4-.48a1.06,1.06,0,0,0-.92.44h-.11l1.11-3.49h.11c-.23,2.58,1.24,3.34,2.21,3.34A1.66,1.66,0,0,0,220.35,125.25Z"/><path class="cls-1" d="M233.74,125.25c0-2.46-4.56-2-4.56-4.94a2.67,2.67,0,0,1,2.9-2.5,18.28,18.28,0,0,1,2.18.46.7.7,0,0,0,.72-.34h.12l-.78,3.17h-.11c-.06-2.14-1-3.11-2.12-3.11a1.6,1.6,0,0,0-1.74,1.6c0,2.5,4.56,2,4.56,5a2.7,2.7,0,0,1-3,2.65c-1,0-1.75-.48-2.4-.48a1.06,1.06,0,0,0-.92.44h-.11l1.11-3.49h.11C229.51,126.25,231,127,232,127A1.66,1.66,0,0,0,233.74,125.25Z"/><path class="cls-1" d="M242.38,122.5c0-2.77,1.77-4.69,4.18-4.69s4.14,1.93,4.14,4.69-1.77,4.69-4.18,4.69S242.38,125.27,242.38,122.5Zm6.67,0c0-2.78-.9-4.48-2.5-4.52S244,119.64,244,122.5s.9,4.52,2.5,4.52S249.05,125.32,249.05,122.5Z"/><path class="cls-1" d="M258.18,126.89V127h-3.26v-.08c.84-.21,1-.48,1-4.1,0-2.71-.19-3.51-1-3.93v-.08a2.74,2.74,0,0,0,2.21-1.07h.08v2a3.09,3.09,0,0,1,2.84-1.91c1.51,0,2.71,1.07,2.71,3.38v1.56c0,3.64.13,3.93.95,4.14V127h-3.24v-.08c.86-.21.95-.5.95-4.37,0-2.88-.73-3.76-2.08-3.76a2.49,2.49,0,0,0-2.14,1.16v2.86C257.2,126.41,257.32,126.68,258.18,126.89Z"/><path class="cls-1" d="M271,122.5c0-2.77,1.77-4.69,4.18-4.69s4.14,1.93,4.14,4.69-1.77,4.69-4.18,4.69S271,125.27,271,122.5Zm6.68,0c0-2.78-.9-4.48-2.5-4.52s-2.54,1.66-2.54,4.52.9,4.52,2.5,4.52S277.63,125.32,277.63,122.5Z"/><path class="cls-1" d="M289.09,123.15a2.65,2.65,0,0,1-1.77-2.5c0-1.64,1.47-2.84,3.41-2.84a4.35,4.35,0,0,1,1.35.21h.67a3.93,3.93,0,0,0,2.35-.57h0v.72h-2.65a2.73,2.73,0,0,1,1.74,2.48c0,1.7-1.53,2.8-3.49,2.8a4.09,4.09,0,0,1-1.47-.25,1.47,1.47,0,0,0-.93,1.34c0,1,.67,1.37,1.83,1.37.9,0,1.72-.17,2.42-.17,1.58,0,2.63.72,2.63,2.29,0,2-2.19,3.17-4.44,3.17-2.63,0-4-.71-4-2.23,0-1,.8-1.7,2.1-2-.95-.21-1.74-.72-1.74-1.81S287.83,123.55,289.09,123.15Zm1.72,7.9c1.93,0,3.18-1,3.18-2.42,0-1.12-.84-1.51-2-1.51h-2A4.8,4.8,0,0,1,289,127a2,2,0,0,0-.9,1.75C288.1,130.28,289.15,131.05,290.81,131.05Zm1.81-10.4c0-1.77-.67-2.69-1.87-2.69s-1.85.92-1.85,2.69c0,1.62.67,2.65,1.87,2.65S292.62,122.27,292.62,120.65Z"/><path class="cls-1" d="M305.91,126.89V127h-3.74v-.08c.84-.21.95-.48.95-4.1,0-2.71-.19-3.51-.95-3.93v-.08a2.74,2.74,0,0,0,2.21-1.07h.08V120a3.29,3.29,0,0,1,2.65-2.23,1.32,1.32,0,0,1,1.32,1.49c0,.63-.29,1.13-.88,1.13s-1.09-.65-.78-1.74a2.76,2.76,0,0,0-2.31,1.62v2.48C304.46,126.41,304.61,126.58,305.91,126.89Z"/><path class="cls-1" d="M321.53,120.46l-.11,4.83c0,.65.29.95.84.95a1.52,1.52,0,0,0,.61-.15l0,.06a1.5,1.5,0,0,1-1.49,1,1.25,1.25,0,0,1-1.3-1.37v-.29a3.25,3.25,0,0,1-2.77,1.66c-1.26,0-2-.72-2-1.7s.57-1.51,2.67-2.5l2.08-1v-1c0-2.1-.84-3.13-3-2.65-.06,1.53-.36,2.5-1.11,2.5a.68.68,0,0,1-.72-.72c0-1.39,2.5-2.37,4-2.37C320.71,117.81,321.55,118.61,321.53,120.46Zm-3.3,5.74a2.67,2.67,0,0,0,1.89-.84v-3.15c-2.52,1.24-3.2,1.83-3.2,2.75A1.14,1.14,0,0,0,318.23,126.2Z"/><path class="cls-1" d="M333.68,126.89V127h-3.74v-.08c.86-.21,1-.48,1-4.1V119h-1.49V118h1.49v-2.23a3.07,3.07,0,0,1,3-3.36c1.47,0,2.48.65,2.48,1.45a.67.67,0,0,1-.72.67c-.71,0-1.05-.63-1.3-2-1.45.15-2.17,1.39-2.17,3.17V118H335l-.27.93h-2.52v3.83C332.23,126.39,332.4,126.6,333.68,126.89Z"/><path class="cls-1" d="M344.68,126.89V127h-3.26v-.08c.84-.21.95-.48.95-4.1,0-2.71-.19-3.51-.95-3.93v-.08a2.74,2.74,0,0,0,2.21-1.07h.08v5.07C343.71,126.41,343.82,126.68,344.68,126.89Zm-2.75-11.16c-.17-.48.13-1,.74-1.2s1.18-.11,1.35.32-.15,1-.8,1.2S342.07,116.09,341.93,115.73Z"/><path class="cls-1" d="M358.14,120.46l-.12,4.83c0,.65.29.95.84.95a1.52,1.52,0,0,0,.61-.15l0,.06a1.5,1.5,0,0,1-1.49,1,1.25,1.25,0,0,1-1.3-1.37v-.29A3.25,3.25,0,0,1,354,127.2c-1.26,0-2-.72-2-1.7s.57-1.51,2.67-2.5l2.08-1v-1c0-2.1-.84-3.13-3-2.65-.06,1.53-.36,2.5-1.11,2.5a.68.68,0,0,1-.72-.72c0-1.39,2.5-2.37,4-2.37C357.32,117.81,358.16,118.61,358.14,120.46Zm-3.3,5.74a2.67,2.67,0,0,0,1.89-.84v-3.15c-2.52,1.24-3.2,1.83-3.2,2.75A1.15,1.15,0,0,0,354.84,126.2Z"/></g></g></svg>