<svg xmlns="http://www.w3.org/2000/svg" viewBox="0 0 218.7 83.67"><defs><style>.cls-1,.cls-2,.cls-3{fill:#fefefe;}.cls-1,.cls-2,.cls-3,.cls-4,.cls-5,.cls-6,.cls-7{fill-rule:evenodd;isolation:isolate;}.cls-1{opacity:0.79;}.cls-2{opacity:0.87;}.cls-3{opacity:0.85;}.cls-4,.cls-5,.cls-6,.cls-7{fill:#2b3531;}.cls-4{opacity:0.97;}.cls-5{opacity:0.99;}.cls-6{opacity:0.95;}.cls-7{opacity:0.96;}</style></defs><g id="Camada_2" data-name="Camada 2"><g id="Camada_1-2" data-name="Camada 1"><path class="cls-1" d="M2,1.17a28.82,28.82,0,0,1,13-.5,171.07,171.07,0,0,1,12.5,17.5,63.93,63.93,0,0,0,0-16A9.19,9.19,0,0,0,25,.67a20.4,20.4,0,0,1,9,0,9.19,9.19,0,0,0-2.5,1.5q-.75,16.49-.5,33a4.86,4.86,0,0,1-4-1L8.5,7.17a168.41,168.41,0,0,0,0,26,9.72,9.72,0,0,0,2.5,1.5,20.7,20.7,0,0,1-9,0,9.72,9.72,0,0,0,2.5-1.5,239.31,239.31,0,0,0,0-31A2.82,2.82,0,0,0,2,1.17Z"/><path class="cls-2" d="M57,.17a53.48,53.48,0,0,1,21,2.5q11.93,8.41,7.5,22.5A18.22,18.22,0,0,1,73,34.67a39.59,39.59,0,0,1-23-3q-12.78-12.55-2-27A28.38,28.38,0,0,1,57,.17Zm5,2q14.7.56,15,15.5-.94,19.68-19,13-8.37-10.86-2.5-23.5A15.23,15.23,0,0,1,62,2.17Z"/><path class="cls-3" d="M104,.67a144.26,144.26,0,0,1,21,1,23.8,23.8,0,0,1-3,11Q117.07.44,104,3.17q-3.84,3.41,1,6a51.81,51.81,0,0,1,20.5,13.5q3.23,9.79-6.5,12.5a72.33,72.33,0,0,1-20-.51l-1.42-2.44A26.93,26.93,0,0,0,99,23.67h3q3.15,13,16.89,9.27l.56-2.32A68.55,68.55,0,0,0,102,18.17Q89.31,7.46,104,.67Z"/><path class="cls-3" d="M143,.67a144.26,144.26,0,0,1,21,1,23.8,23.8,0,0,1-3,11Q156.07.44,143,3.17q-3.84,3.41,1,6a51.81,51.81,0,0,1,20.5,13.5q3.23,9.79-6.5,12.5a72.33,72.33,0,0,1-20-.51l-1.42-2.44A26.93,26.93,0,0,0,138,23.67h3q3.15,13,16.89,9.27l.56-2.32A68.55,68.55,0,0,0,141,18.17Q128.31,7.46,143,.67Z"/><path class="cls-2" d="M189,.17a53.48,53.48,0,0,1,21,2.5q11.92,8.41,7.5,22.5a18.22,18.22,0,0,1-12.5,9.5,39.59,39.59,0,0,1-23-3q-12.78-12.55-2-27A28.38,28.38,0,0,1,189,.17Zm5,2q14.7.56,15,15.5-.94,19.68-19,13-8.37-10.86-2.5-23.5A15.23,15.23,0,0,1,194,2.17Z"/><path class="cls-4" d="M0,49.17a140.87,140.87,0,0,1,29-.5q10,.93,8.5,10.5a28.76,28.76,0,0,1-7.5,4.5q8.89,1.39,11,10-3.51,8.52-13,9a131.72,131.72,0,0,1-28-.5,3.09,3.09,0,0,1,3-1q.25-15.51-.5-31A2.82,2.82,0,0,0,0,49.17Zm13,1a36.91,36.91,0,0,1,12,1.5q6.42,6.93-2,12a44.22,44.22,0,0,0-9.5,5.5A179.84,179.84,0,0,1,13,50.17Zm8,17q11.42-.61,8,10a24.16,24.16,0,0,1-16,4,41.08,41.08,0,0,1,.5-9A18.76,18.76,0,0,1,21,67.17Z"/><path class="cls-5" d="M40,49.17a43.49,43.49,0,0,1,16-.5,4.5,4.5,0,0,1-2,1.5,241.19,241.19,0,0,0-1,31,28.3,28.3,0,0,0,16-3.5,32.61,32.61,0,0,1,3-4.5,16.27,16.27,0,0,1,0,10,257,257,0,0,1-32-1,3.09,3.09,0,0,1,3-1q.26-15.51-.5-31A2.82,2.82,0,0,0,40,49.17Z"/><path class="cls-6" d="M87,48.17a53.48,53.48,0,0,1,21,2.5q11.93,8.41,7.5,22.5a18.22,18.22,0,0,1-12.5,9.5,39.59,39.59,0,0,1-23-3q-12.78-12.56-2-27A28.38,28.38,0,0,1,87,48.17Zm5,2q14.7.55,15,15.5-.94,19.68-19,13-8.37-10.86-2.5-23.5A15.29,15.29,0,0,1,92,50.17Z"/><path class="cls-7" d="M132,48.67a161.37,161.37,0,0,1,18,.5,10.28,10.28,0,0,1,4,1.5,44.23,44.23,0,0,0-2,10h-3q-2.55-12.78-15-8.5-11.28,13-1,27a9.19,9.19,0,0,0,11,1q4.4-8.55-1-16a63.93,63.93,0,0,1,16,0,9.19,9.19,0,0,0-2.5,1.5,127.91,127.91,0,0,1-1.5,15.5,39.27,39.27,0,0,1-30-1q-12.78-12.56-2-27A28.38,28.38,0,0,1,132,48.67Z"/></g></g></svg>