<?xml version="1.0" encoding="UTF-8"?>
<!DOCTYPE svg PUBLIC "-//W3C//DTD SVG 1.1//EN" "http://www.w3.org/Graphics/SVG/1.1/DTD/svg11.dtd">
<svg xmlns="http://www.w3.org/2000/svg" version="1.1" width="318px" height="169px" style="shape-rendering:geometricPrecision; text-rendering:geometricPrecision; image-rendering:optimizeQuality; fill-rule:evenodd; clip-rule:evenodd" xmlns:xlink="http://www.w3.org/1999/xlink">
<g><path style="opacity:0.79" fill="#fefefe" d="M 14.5,41.5 C 18.6463,40.353 22.9796,40.1864 27.5,41C 32.0348,46.5692 36.2014,52.4025 40,58.5C 40.6667,53.1667 40.6667,47.8333 40,42.5C 39.2496,41.8742 38.4162,41.3742 37.5,41C 40.5,40.3333 43.5,40.3333 46.5,41C 45.5838,41.3742 44.7504,41.8742 44,42.5C 43.5002,53.495 43.3335,64.495 43.5,75.5C 42.0222,75.762 40.6888,75.4287 39.5,74.5C 33.3333,65.5 27.1667,56.5 21,47.5C 20.3333,56.1667 20.3333,64.8333 21,73.5C 21.7504,74.1258 22.5838,74.6258 23.5,75C 20.5,75.6667 17.5,75.6667 14.5,75C 15.4162,74.6258 16.2496,74.1258 17,73.5C 17.6667,63.1667 17.6667,52.8333 17,42.5C 16.3292,41.7476 15.4959,41.4142 14.5,41.5 Z"/></g>
<g><path style="opacity:0.871" fill="#fefefe" d="M 69.5,40.5 C 76.6921,39.9448 83.6921,40.7781 90.5,43C 98.4484,48.609 100.948,56.109 98,65.5C 95.2801,70.5512 91.1135,73.7178 85.5,75C 77.4906,76.2909 69.8239,75.2909 62.5,72C 53.9785,63.6289 53.3119,54.6289 60.5,45C 63.324,42.9212 66.324,41.4212 69.5,40.5 Z M 74.5,42.5 C 84.296,42.8746 89.296,48.0413 89.5,58C 88.8726,71.1277 82.5393,75.461 70.5,71C 64.9186,63.7649 64.0852,55.9316 68,47.5C 69.8049,45.1743 71.9716,43.5077 74.5,42.5 Z"/></g>
<g><path style="opacity:0.851" fill="#fefefe" d="M 116.5,40.5 C 123.535,40.3257 130.535,40.6591 137.5,41.5C 137.379,45.4557 136.379,49.1223 134.5,52.5C 131.205,44.3511 125.205,41.1845 116.5,43C 113.936,45.276 114.27,47.276 117.5,49C 125.447,51.8849 132.281,56.3849 138,62.5C 140.151,69.0354 137.984,73.202 131.5,75C 124.802,75.7573 118.136,75.5906 111.5,74.5C 110.833,74.1667 110.167,73.8333 109.5,73.5C 110.802,70.2921 111.469,66.9588 111.5,63.5C 112.5,63.5 113.5,63.5 114.5,63.5C 116.529,71.9226 121.862,75.0893 130.5,73C 131.167,72.3333 131.833,71.6667 132.5,71C 127.207,65.6869 121.207,61.3536 114.5,58C 106.036,50.865 106.703,45.0316 116.5,40.5 Z"/></g>
<g><path style="opacity:0.851" fill="#fefefe" d="M 155.5,40.5 C 162.535,40.3257 169.535,40.6591 176.5,41.5C 176.379,45.4557 175.379,49.1223 173.5,52.5C 170.205,44.3511 164.205,41.1845 155.5,43C 152.936,45.276 153.27,47.276 156.5,49C 164.447,51.8849 171.281,56.3849 177,62.5C 179.151,69.0354 176.984,73.202 170.5,75C 163.802,75.7573 157.136,75.5906 150.5,74.5C 149.833,74.1667 149.167,73.8333 148.5,73.5C 149.802,70.2921 150.469,66.9588 150.5,63.5C 151.5,63.5 152.5,63.5 153.5,63.5C 155.529,71.9226 160.862,75.0893 169.5,73C 170.167,72.3333 170.833,71.6667 171.5,71C 166.207,65.6869 160.207,61.3536 153.5,58C 145.036,50.865 145.703,45.0316 155.5,40.5 Z"/></g>
<g><path style="opacity:0.871" fill="#fefefe" d="M 201.5,40.5 C 208.692,39.9448 215.692,40.7781 222.5,43C 230.448,48.609 232.948,56.109 230,65.5C 227.28,70.5512 223.113,73.7178 217.5,75C 209.491,76.2909 201.824,75.2909 194.5,72C 185.979,63.6289 185.312,54.6289 192.5,45C 195.324,42.9212 198.324,41.4212 201.5,40.5 Z M 206.5,42.5 C 216.296,42.8746 221.296,48.0413 221.5,58C 220.873,71.1277 214.539,75.461 202.5,71C 196.919,63.7649 196.085,55.9316 200,47.5C 201.805,45.1743 203.972,43.5077 206.5,42.5 Z"/></g>
<g><path style="opacity:0.975" fill="#2c3431" d="M 11.5,89.5 C 20.9911,88.342 30.6578,88.1754 40.5,89C 45.0348,94.5692 49.2014,100.403 53,106.5C 53.6667,101.167 53.6667,95.8333 53,90.5C 52.2496,89.8742 51.4162,89.3742 50.5,89C 53.5,88.3333 56.5,88.3333 59.5,89C 58.5838,89.3742 57.7504,89.8742 57,90.5C 56.5002,101.495 56.3335,112.495 56.5,123.5C 55.0222,123.762 53.6888,123.429 52.5,122.5C 46.3333,113.5 40.1667,104.5 34,95.5C 33.3333,104.167 33.3333,112.833 34,121.5C 34.7504,122.126 35.5838,122.626 36.5,123C 28.1667,123.667 19.8333,123.667 11.5,123C 12.4162,122.626 13.2496,122.126 14,121.5C 14.6667,111.167 14.6667,100.833 14,90.5C 13.3292,89.7476 12.4959,89.4142 11.5,89.5 Z M 26.5,89.5 C 27.8221,89.33 28.9887,89.6634 30,90.5C 30.6667,100.833 30.6667,111.167 30,121.5C 28.5421,122.747 27.0421,122.747 25.5,121.5C 25.1667,116.333 24.8333,111.167 24.5,106C 24.5492,100.256 25.2159,94.7559 26.5,89.5 Z"/></g>
<g><path style="opacity:0.98" fill="#2b3531" d="M 91.5,88.5 C 103.833,88.5 116.167,88.5 128.5,88.5C 128.665,91.8499 128.498,95.1832 128,98.5C 125.355,92.6864 120.855,90.0197 114.5,90.5C 114.168,100.855 114.501,111.188 115.5,121.5C 116.308,121.808 116.975,122.308 117.5,123C 112.167,123.667 106.833,123.667 101.5,123C 102.416,122.626 103.25,122.126 104,121.5C 104.5,111.172 104.666,100.839 104.5,90.5C 98.3982,90.3805 94.0649,93.0471 91.5,98.5C 90.8081,95.2303 90.8081,91.897 91.5,88.5 Z"/></g>
<g><path style="opacity:0.959" fill="#2b3531" d="M 135.5,88.5 C 136.675,88.281 137.675,88.6143 138.5,89.5C 142.333,99.1667 146.167,108.833 150,118.5C 150.93,120.552 152.43,122.052 154.5,123C 149.167,123.667 143.833,123.667 138.5,123C 140.007,122.163 140.507,120.996 140,119.5C 139.259,118.359 138.425,118.359 137.5,119.5C 132.546,113.778 128.546,114.278 125.5,121C 125.905,121.945 126.572,122.612 127.5,123C 124.5,123.667 121.5,123.667 118.5,123C 121.333,122.167 123.167,120.333 124,117.5C 127.849,107.808 131.682,98.1411 135.5,88.5 Z M 132.5,101.5 C 134.338,104.981 136.004,108.647 137.5,112.5C 134.5,113.833 131.5,113.833 128.5,112.5C 130.238,108.951 131.571,105.284 132.5,101.5 Z"/></g>
<g><path style="opacity:0.959" fill="#2b3531" d="M 163.5,88.5 C 169.509,88.3338 175.509,88.5005 181.5,89C 182.938,89.2189 184.271,89.7189 185.5,90.5C 184.449,93.757 183.782,97.0903 183.5,100.5C 182.5,100.5 181.5,100.5 180.5,100.5C 178.798,91.98 173.798,89.1467 165.5,92C 157.975,100.694 157.642,109.694 164.5,119C 167.967,121.786 171.634,122.12 175.5,120C 178.432,114.307 178.099,108.973 174.5,104C 179.833,103.333 185.167,103.333 190.5,104C 189.584,104.374 188.75,104.874 188,105.5C 187.807,110.75 187.307,115.917 186.5,121C 176.301,124.642 166.301,124.308 156.5,120C 147.979,111.629 147.312,102.629 154.5,93C 157.324,90.9212 160.324,89.4212 163.5,88.5 Z"/></g>
<g><path style="opacity:0.959" fill="#2c3531" d="M 190.5,89.5 C 199.991,88.342 209.658,88.1754 219.5,89C 225.383,89.0569 229.049,91.8903 230.5,97.5C 230,98.5 229.5,99.5 229,100.5C 225.268,103.358 221.101,105.358 216.5,106.5C 221.205,110.234 224.705,114.9 227,120.5C 229.873,123.1 232.706,123.1 235.5,120.5C 239.764,110.207 243.931,99.8733 248,89.5C 249.714,88.0745 251.047,88.4078 252,90.5C 256,100.5 260,110.5 264,120.5C 265.845,122.35 267.845,122.683 270,121.5C 270.667,111.167 270.667,100.833 270,90.5C 269.25,89.8742 268.416,89.3742 267.5,89C 271.541,88.1735 275.541,88.3401 279.5,89.5C 282.577,96.6522 285.91,103.652 289.5,110.5C 292.926,103.393 296.26,96.2265 299.5,89C 303.5,88.3333 307.5,88.3333 311.5,89C 310.584,89.3742 309.75,89.8742 309,90.5C 308.333,100.833 308.333,111.167 309,121.5C 309.75,122.126 310.584,122.626 311.5,123C 306.167,123.667 300.833,123.667 295.5,123C 296.025,122.308 296.692,121.808 297.5,121.5C 298.665,113.855 298.831,106.188 298,98.5C 294.771,107.288 290.771,115.621 286,123.5C 281.233,116.302 277.233,108.636 274,100.5C 273.333,107.5 273.333,114.5 274,121.5C 274.75,122.126 275.584,122.626 276.5,123C 268.167,123.667 259.833,123.667 251.5,123C 253.007,122.163 253.507,120.996 253,119.5C 252.259,118.359 251.425,118.359 250.5,119.5C 245.546,113.778 241.546,114.278 238.5,121C 238.905,121.945 239.572,122.612 240.5,123C 233.5,123.667 226.5,123.667 219.5,123C 215.733,120.102 213.233,116.269 212,111.5C 209.718,107.959 207.051,107.626 204,110.5C 202.782,115.236 203.616,119.403 206.5,123C 201.167,123.667 195.833,123.667 190.5,123C 191.416,122.626 192.25,122.126 193,121.5C 193.667,111.167 193.667,100.833 193,90.5C 192.329,89.7476 191.496,89.4142 190.5,89.5 Z M 203.5,90.5 C 207.915,90.3054 212.249,90.8054 216.5,92C 220.5,95.6667 220.5,99.3333 216.5,103C 212.24,104.308 208.074,105.808 204,107.5C 203.501,101.843 203.334,96.1764 203.5,90.5 Z M 245.5,101.5 C 247.338,104.981 249.004,108.647 250.5,112.5C 247.5,113.833 244.5,113.833 241.5,112.5C 243.238,108.951 244.571,105.284 245.5,101.5 Z"/></g>
<g><path style="opacity:0.948" fill="#2b3531" d="M 67.5,88.5 C 74.5352,88.3257 81.5352,88.6591 88.5,89.5C 88.3788,93.4557 87.3788,97.1223 85.5,100.5C 82.2048,92.3511 76.2048,89.1845 67.5,91C 64.9364,93.276 65.2697,95.276 68.5,97C 76.4472,99.8849 83.2805,104.385 89,110.5C 91.1506,117.035 88.9839,121.202 82.5,123C 75.8023,123.757 69.1356,123.591 62.5,122.5C 61.8333,122.167 61.1667,121.833 60.5,121.5C 61.802,118.292 62.4687,114.959 62.5,111.5C 63.5,111.5 64.5,111.5 65.5,111.5C 67.5291,119.923 72.8625,123.089 81.5,121C 82.1667,120.333 82.8333,119.667 83.5,119C 78.2069,113.687 72.2069,109.354 65.5,106C 57.0359,98.865 57.7026,93.0316 67.5,88.5 Z"/></g>
</svg>
