<svg xmlns="http://www.w3.org/2000/svg" viewBox="0 0 258.81 89.28"><defs><style>.cls-1,.cls-2,.cls-3,.cls-4,.cls-5,.cls-6,.cls-7{fill:#6e766b;}.cls-1,.cls-10,.cls-11,.cls-12,.cls-2,.cls-3,.cls-4,.cls-5,.cls-6,.cls-7,.cls-8,.cls-9{fill-rule:evenodd;isolation:isolate;}.cls-1{opacity:0.89;}.cls-2{opacity:0.92;}.cls-3{opacity:0.88;}.cls-4{opacity:0.88;}.cls-5{opacity:0.91;}.cls-6{opacity:0.87;}.cls-7{opacity:0.87;}.cls-8{fill:#c9b68d;opacity:0.88;}.cls-10,.cls-12,.cls-9{fill:#cab68d;}.cls-9{opacity:0.9;}.cls-10{opacity:0.88;}.cls-11{fill:#cab68e;opacity:0.84;}.cls-12{opacity:0.88;}</style></defs><g id="Camada_2" data-name="Camada 2"><g id="Camada_1-2" data-name="Camada 1"><path class="cls-1" d="M.81.14h37a50,50,0,0,0,1,11h-3q-2.3-9.14-12-8v31h3v3h-16v-3h3v-31q-9.15-.18-13,8A19.08,19.08,0,0,1,.81.14Z"/><path class="cls-2" d="M41.81.14h16v3h-3v31h3v3h-16v-3h3v-31h-3Z"/><path class="cls-3" d="M60.81.14q12-.24,24,.5a20.31,20.31,0,0,1,15.5,5.5,8.42,8.42,0,0,1-2.5,9.5,59.11,59.11,0,0,1-10,4,34.88,34.88,0,0,1,11,14,8.41,8.41,0,0,0,4,.5v3a37.53,37.53,0,0,1-14-1.5,65.23,65.23,0,0,1-6.5-11.5,5.23,5.23,0,0,0-7-1,62.24,62.24,0,0,0-.5,11h3v3h-17v-3h3v-31h-3Zm14,3a26.63,26.63,0,0,1,14,2.5q3.52,3.57.5,7.5a48.5,48.5,0,0,1-13.5,6A65.49,65.49,0,0,1,74.81,3.14Z"/><path class="cls-4" d="M115.81.14h19a73.5,73.5,0,0,0,1,11,3.09,3.09,0,0,1-3-1q-5.15-9.14-15-5.5-3.91,10.86,8,12.5v3q-12.23-1-10.5,11,6.41,5.55,13.5.5a47.26,47.26,0,0,1,6-5.5,4.45,4.45,0,0,1,2,1.5q-10.25,14.18-27,8-9.86-5.55-3-14.5a26.62,26.62,0,0,1,5-3q-9.34-5.1-4-14.5A44.52,44.52,0,0,1,115.81.14Z"/><path class="cls-5" d="M160.81.14a72.21,72.21,0,0,1,22,2q-1.34,5-2.5,10a3.58,3.58,0,0,1-1.5,1q-4.51-11.76-17-9.5a4.33,4.33,0,0,0-3,2.5q9.18,6.17,19,11.5,12.83,11.36-2,19a100.54,100.54,0,0,1-22-.5q1.2-6,2-12,4.27.46,4.5,5,7.2,8,15.5,2.5a8.82,8.82,0,0,0-3-4,55.33,55.33,0,0,1-19.5-15.5Q151.39,2.48,160.81.14Z"/><path class="cls-6" d="M186.81.14h17v3h-3q-.24,13.52.5,27,6.24,7.89,13,0a136.89,136.89,0,0,0,1.5-27h-3v-3h9v3h-3a142.28,142.28,0,0,1-1.5,28q-4.09,7.14-12.5,6-10.29,1.19-14.5-8-.75-13-.5-26h-3Z"/><path class="cls-7" d="M236.81.14a4.41,4.41,0,0,1,3.5,1q6.51,16,13,32a4.39,4.39,0,0,0,3.5,1v3h-17v-3q5.12.57,1.5-3a3.58,3.58,0,0,1-1.5,1,27,27,0,0,0-7.5-4q-6.66,3.27-2.5,9h-10v-3a4.85,4.85,0,0,0,4-1A329.8,329.8,0,0,0,236.81.14Zm-2,16a21,21,0,0,1,3.5,10,19.69,19.69,0,0,0-7.5-1Q232.82,20.6,234.81,16.14Z"/><path class="cls-8" d="M70.81,45.14q7.47.68,3,6.5a8.38,8.38,0,0,1-4,.5v3h-3q-.24,11.52.5,23,1.45,10.86,11.5,6.5a6.89,6.89,0,0,0,2.5-3.5,134.51,134.51,0,0,0,1.5-26h-3v-3h9v3h-3a147.16,147.16,0,0,1-1.5,28q-4.31,6.78-12.5,6-10.29,1.19-14.5-8-.75-13-.5-26h-3v-3a84.25,84.25,0,0,0,13-.5,3.67,3.67,0,0,1-1-1.5C69.1,49.94,70.77,48.28,70.81,45.14Z"/><path class="cls-9" d="M2.81,52.14a116.32,116.32,0,0,1,31,2.5q9.55,5.1,9,16-.95,17-18,18-11,.75-22,.5v-3h3v-31h-3Zm13,3q17.13-1.62,16,15.5,1.13,17.13-16,15.5Z"/><path class="cls-10" d="M99.81,52.14h16a4.68,4.68,0,0,1-2,4q4.17,8.83,7.5,18,3.57-9.36,7.5-18.5a3.27,3.27,0,0,1-2-3.5h9v3h-4q-5.79,16.62-12.5,33c-1.71,1.43-3,1.09-4-1q-6.09-15.56-12.5-31a3.1,3.1,0,0,0-3-1Z"/><path class="cls-11" d="M146.81,52.14h17v3h-3v31h3v3h-17v-3h3v-31h-3Z"/><path class="cls-9" d="M174.81,52.14a116.32,116.32,0,0,1,31,2.5q9.56,5.1,9,16-.94,17-18,18-11,.75-22,.5v-3h3v-31h-3Zm13,3q17.13-1.62,16,15.5,1.13,17.13-16,15.5Z"/><path class="cls-12" d="M238.81,52.14a4.41,4.41,0,0,1,3.5,1q6.21,16.13,13,32a4.39,4.39,0,0,0,3.5,1v3h-17a18.63,18.63,0,0,0,1.5-6,3.58,3.58,0,0,1-1.5,1,27,27,0,0,0-7.5-4q-6.66,3.27-2.5,9h-10v-3a4.85,4.85,0,0,0,4-1A329.8,329.8,0,0,0,238.81,52.14Zm-2,16a21,21,0,0,1,3.5,10,19.69,19.69,0,0,0-7.5-1Q234.82,72.6,236.81,68.14Z"/></g></g></svg>