<svg version="1.1" id="Layer_1" xmlns="http://www.w3.org/2000/svg" xmlns:xlink="http://www.w3.org/1999/xlink" x="0px" y="0px"
	 width="100%" viewBox="0 0 1200 640" enable-background="new 0 0 1200 640" xml:space="preserve">
<path fill="#FFFFFF" opacity="1.000000" stroke="none" 
	d="
M1133.000000,641.000000 
	C755.333374,641.000000 378.166718,641.000000 1.000051,641.000000 
	C1.000034,427.666687 1.000034,214.333405 1.000017,1.000079 
	C400.999969,1.000053 800.999939,1.000053 1201.000000,1.000026 
	C1201.000000,214.333252 1201.000000,427.666504 1201.000000,640.999878 
	C1178.500000,641.000000 1156.000000,641.000000 1133.000000,641.000000 
M533.915161,278.445312 
	C521.964600,273.401276 509.504364,275.458832 498.170837,275.013000 
	C498.854675,279.299927 500.173615,282.958405 499.851105,286.465973 
	C499.081726,294.833954 502.935120,303.707855 496.910187,311.597351 
	C502.833130,311.597351 508.340179,311.597351 513.020813,311.597351 
	C512.306763,308.036621 511.366852,304.799469 511.133514,301.512115 
	C511.032257,300.085052 512.437195,297.283691 513.067566,297.309570 
	C514.960388,297.387329 517.436401,298.042328 518.535400,299.401550 
	C520.447937,301.766876 521.200256,305.047119 523.012085,307.524719 
	C524.349182,309.353149 526.420288,311.342773 528.480835,311.784698 
	C531.776367,312.491425 535.334595,311.973877 539.182861,311.973877 
	C534.168945,305.701019 529.574463,299.952972 524.832397,294.020233 
	C525.890564,293.736755 527.344604,293.352631 528.795715,292.957642 
	C536.944641,290.739410 539.493713,284.488739 533.915161,278.445312 
M471.809296,360.594818 
	C472.766144,359.669678 473.749847,358.770569 474.675720,357.815369 
	C483.590576,348.618561 478.821442,331.386566 466.479065,328.293640 
	C464.574341,327.816315 462.594330,327.416992 460.643036,327.387787 
	C453.495514,327.280823 446.345398,327.345398 438.648163,327.345398 
	C440.092865,329.592773 441.960968,331.146637 441.841827,332.529175 
	C440.953827,342.830994 444.684479,353.520782 439.161774,363.893066 
	C450.063324,363.812653 460.825439,365.260010 471.809296,360.594818 
M645.460999,331.966766 
	C643.615356,330.940460 641.833435,329.179077 639.913208,329.012482 
	C630.578918,328.202545 621.208069,327.810822 611.846985,327.333862 
	C611.597595,327.321106 611.311646,328.024323 611.111938,328.298645 
	C612.134949,329.779877 613.951538,331.195312 613.846313,332.449463 
	C612.981506,342.755493 616.569763,353.439514 610.981384,364.408020 
	C619.262390,363.931244 627.124390,363.365570 634.996460,363.059723 
	C641.794617,362.795624 647.221252,359.782532 649.480469,353.628601 
	C652.167236,346.309998 652.373901,338.665100 645.460999,331.966766 
M612.003967,291.473328 
	C606.223450,288.117401 600.442993,284.761444 594.662476,281.405518 
	C594.750366,280.792694 594.838257,280.179871 594.926208,279.567047 
	C597.511353,279.046143 600.098267,278.081299 602.681335,278.091431 
	C609.218140,278.117065 612.482239,282.776947 614.754883,288.534210 
	C615.210632,288.372040 615.666443,288.209900 616.122192,288.047729 
	C617.044678,284.169678 617.967102,280.291626 619.225281,275.002106 
	C612.149719,275.002106 605.898560,274.727753 599.685608,275.096649 
	C595.403687,275.350891 591.026917,276.493103 589.368225,281.245270 
	C587.856018,285.577698 589.862854,288.964050 593.186218,291.660248 
	C595.469055,293.512299 597.793701,295.321960 600.191223,297.021423 
	C603.651978,299.474609 607.260437,301.724213 610.653259,304.264618 
	C611.395630,304.820526 611.993530,306.384277 611.746155,307.211121 
	C611.512878,307.990631 610.140686,308.752594 609.161255,308.932556 
	C603.403992,309.990173 598.349670,307.049866 595.794495,301.537109 
	C595.280518,300.428223 594.185852,299.588501 592.694519,297.850433 
	C591.606567,302.834625 590.786804,306.590302 589.762207,311.284149 
	C596.688904,311.530090 603.274536,312.270966 609.763245,311.766205 
	C612.711548,311.536835 616.447510,309.522827 618.115540,307.127289 
	C622.074524,301.441833 620.115845,297.003845 612.003967,291.473328 
M490.138092,328.355957 
	C493.029388,330.320282 493.149780,333.198700 493.046112,336.335358 
	C492.875854,341.487976 492.933990,346.651672 493.039093,351.807770 
	C493.071899,353.415741 493.292999,355.127106 493.897797,356.597900 
	C496.692352,363.393646 507.051941,366.490326 514.863403,363.081573 
	C518.288818,361.586884 520.777954,359.484985 521.048767,355.479034 
	C521.348633,351.042908 521.608887,346.602264 522.019470,342.175934 
	C522.472778,337.288605 520.118591,331.865112 525.480225,327.664948 
	C521.802551,327.664948 518.964539,327.664948 515.678406,327.664948 
	C517.095825,329.656158 518.863953,330.992310 518.847656,332.306366 
	C518.753418,339.904144 518.532227,347.527374 517.745728,355.078613 
	C517.329834,359.071442 513.808594,360.783203 510.118073,360.873596 
	C506.458893,360.963226 504.291626,358.562378 504.035400,354.972229 
	C503.553436,348.218842 503.442230,341.438965 502.959320,334.685669 
	C502.656769,330.455017 505.334747,328.742188 508.383118,326.882568 
	C509.852295,325.986389 511.288757,324.339264 511.720032,322.754578 
	C511.914307,322.040649 509.613495,320.647705 508.578674,319.687134 
	C504.890594,323.640778 502.205872,327.462677 496.752075,327.055023 
	C494.652191,326.898041 492.505951,327.360992 490.138092,328.355957 
M637.000000,295.436951 
	C638.059204,288.890656 634.258972,281.647858 640.641357,275.480316 
	C634.252502,275.480316 628.690308,275.480316 624.390625,275.480316 
	C624.960327,279.790588 625.693054,283.709717 625.941589,287.659271 
	C626.202698,291.808868 625.932190,295.989380 626.037415,300.152740 
	C626.073547,301.582825 626.425598,303.036285 626.832642,304.420471 
	C629.207520,312.497192 637.732361,312.563599 645.735107,311.860504 
	C651.498291,311.354126 654.502869,306.225708 655.098022,299.280121 
	C655.775879,291.368652 652.332825,282.944305 657.958191,275.315979 
	C654.931641,275.315979 652.058411,275.315979 648.224121,275.315979 
	C649.847839,277.263397 651.835632,278.546417 651.829651,279.820068 
	C651.792480,287.741455 651.781921,295.721924 650.769043,303.554321 
	C650.277588,307.354706 646.532288,309.448578 642.458557,308.898315 
	C638.658508,308.385040 636.913208,305.743195 636.993896,301.908295 
	C637.032471,300.076080 637.000183,298.242340 637.000000,295.436951 
M557.077271,290.572113 
	C553.734802,288.633545 551.056519,285.714355 552.828674,282.013855 
	C553.775452,280.036865 557.442261,278.159760 559.743774,278.312500 
	C563.311218,278.549255 567.083740,280.005920 568.698853,284.147491 
	C569.045532,285.036713 570.221069,285.602722 572.132019,287.323883 
	C571.497620,282.217041 571.066711,278.748260 570.601562,275.003998 
	C565.051025,275.003998 559.657959,274.378998 554.467407,275.138306 
	C544.642944,276.575470 541.063599,278.689270 542.207703,285.516327 
	C542.686401,288.372253 545.423767,290.849609 547.105530,293.454681 
	C539.333740,297.298401 537.338379,303.900726 543.357178,308.753967 
	C550.244019,314.307129 565.532166,313.614838 571.708862,304.592712 
	C572.207764,303.863953 571.969849,302.630798 572.074280,301.631989 
	C571.116333,301.855560 570.012634,301.847839 569.226135,302.343475 
	C566.094727,304.316711 563.224121,306.765076 559.948792,308.431763 
	C556.487122,310.193268 553.375854,308.541229 551.366272,305.623474 
	C549.634094,303.108368 551.556335,297.700134 554.705017,296.214142 
	C556.848938,295.202362 559.374268,294.998962 561.729065,294.434052 
	C561.945251,294.076324 562.161499,293.718567 562.377686,293.360840 
	C560.840942,292.556763 559.304199,291.752716 557.077271,290.572113 
M460.491394,275.000000 
	C452.858490,275.000000 445.225555,275.000000 436.884918,275.000000 
	C436.545013,278.732117 436.227020,282.223450 435.909058,285.714752 
	C442.080200,279.144867 444.017426,278.025909 450.237335,278.512207 
	C448.496979,289.458008 452.799896,300.848328 447.450745,311.647461 
	C452.430328,311.647461 457.626099,311.647461 463.495300,311.647461 
	C462.074554,309.598328 460.189758,308.131805 460.145294,306.611450 
	C459.869354,297.173584 460.006409,287.723663 460.006409,278.147644 
	C465.735443,277.759216 469.688416,279.551392 472.053070,284.470490 
	C472.361511,285.112122 473.360992,285.421600 474.040405,285.884918 
	C474.329803,285.215057 474.933624,284.505402 474.854767,283.882080 
	C474.492371,281.017151 473.939240,278.176392 473.398956,275.000000 
	C469.418854,275.000000 465.453278,275.000000 460.491394,275.000000 
M674.453003,275.035675 
	C674.027710,275.236847 673.341187,275.334930 673.215210,275.654236 
	C669.758850,284.412323 666.520874,293.260986 662.862732,301.932617 
	C661.594421,304.939087 661.183411,309.139984 656.458923,309.474731 
	C656.297058,309.486237 656.230957,310.850433 656.125366,311.550171 
	C659.583069,311.550171 662.736572,311.550171 664.469971,311.550171 
	C665.198975,308.565277 665.179565,306.031281 666.365540,304.344910 
	C668.674194,301.061951 670.963989,304.522980 673.238037,305.105469 
	C674.409241,305.405487 675.450073,306.210052 676.554321,306.777954 
	C677.064697,307.040436 677.585754,307.282074 678.101990,307.533234 
	C677.701599,308.057617 677.221802,308.540497 676.920532,309.116699 
	C676.530457,309.863007 676.282837,310.683777 675.918457,311.613861 
	C681.830017,311.613861 687.326904,311.613861 693.735779,311.613861 
	C691.545593,309.239471 689.497925,307.761078 688.484802,305.759094 
	C686.661072,302.155457 685.582275,298.183807 683.967285,294.463593 
	C681.146606,287.965973 678.155457,281.542389 674.453003,275.035675 
M673.923828,356.447235 
	C675.853333,357.386658 677.782776,358.326111 679.954651,359.383545 
	C679.372986,360.457977 678.673950,361.749207 677.792542,363.377380 
	C683.846863,363.377380 689.367859,363.377380 694.735352,363.377380 
	C692.926514,360.531921 691.033569,358.241943 689.887329,355.624847 
	C686.118530,347.019348 682.658569,338.278992 678.972168,329.636475 
	C678.492188,328.511230 677.381836,327.654846 676.025330,326.028931 
	C674.060181,330.982849 672.843811,335.103699 670.865479,338.818817 
	C666.626099,346.779602 666.171997,356.774017 657.215576,363.349365 
	C661.295410,363.349365 664.477905,363.349365 666.731689,363.349365 
	C667.211548,360.772430 667.087769,358.288300 668.207092,356.657227 
	C668.836121,355.740570 671.518738,356.233246 673.923828,356.447235 
M546.120667,348.369110 
	C547.760925,352.491180 549.315613,356.650757 551.093994,360.712341 
	C551.621704,361.917572 552.778748,362.847229 553.647400,363.903168 
	C554.480469,362.838837 555.603149,361.894165 556.100098,360.691010 
	C559.551575,352.334625 562.710754,343.853760 566.324097,335.570038 
	C567.585022,332.679474 569.863342,330.232666 571.735779,327.497375 
	C568.782166,327.497375 565.977417,327.497375 563.380676,327.497375 
	C565.291077,335.903168 558.947144,341.342834 557.411804,348.275024 
	C556.438354,341.012939 548.767761,335.753143 551.571106,327.704895 
	C546.418152,327.704895 541.254028,327.704895 537.206787,327.704895 
	C540.161133,334.492950 543.020325,341.062469 546.120667,348.369110 
M597.000000,353.393829 
	C597.000000,349.895569 596.736267,346.372467 597.062622,342.904907 
	C597.537476,337.858337 594.793030,332.187073 600.947571,327.573181 
	C594.221741,327.573181 588.713684,327.573181 582.755554,327.573181 
	C587.179749,333.207550 587.226624,356.572937 583.073730,363.417908 
	C588.795288,363.417908 594.305664,363.417908 599.003113,363.417908 
	C598.257935,360.046875 597.628967,357.201477 597.000000,353.393829 
M491.000000,287.549805 
	C491.599274,283.489746 492.198547,279.429657 492.792877,275.402924 
	C488.502258,275.402924 483.328094,275.402924 479.234039,275.402924 
	C479.855042,279.297821 481.171448,282.956207 480.851562,286.465454 
	C480.088715,294.834351 483.946198,303.708832 477.892975,311.593689 
	C483.502502,311.593689 488.675079,311.593689 495.301605,311.593689 
	C489.259338,307.776306 491.269745,302.873352 491.035400,298.515625 
	C490.856964,295.197479 491.000000,291.862091 491.000000,287.549805 
z"/>
<path fill="#6F776C" opacity="1.000000" stroke="none" 
	d="
M534.202393,278.722717 
	C539.493713,284.488739 536.944641,290.739410 528.795715,292.957642 
	C527.344604,293.352631 525.890564,293.736755 524.832397,294.020233 
	C529.574463,299.952972 534.168945,305.701019 539.182861,311.973877 
	C535.334595,311.973877 531.776367,312.491425 528.480835,311.784698 
	C526.420288,311.342773 524.349182,309.353149 523.012085,307.524719 
	C521.200256,305.047119 520.447937,301.766876 518.535400,299.401550 
	C517.436401,298.042328 514.960388,297.387329 513.067566,297.309570 
	C512.437195,297.283691 511.032257,300.085052 511.133514,301.512115 
	C511.366852,304.799469 512.306763,308.036621 513.020813,311.597351 
	C508.340179,311.597351 502.833130,311.597351 496.910187,311.597351 
	C502.935120,303.707855 499.081726,294.833954 499.851105,286.465973 
	C500.173615,282.958405 498.854675,279.299927 498.170837,275.013000 
	C509.504364,275.458832 521.964600,273.401276 534.202393,278.722717 
M521.166687,290.935364 
	C524.400757,289.231537 527.883179,287.503723 526.387878,282.931519 
	C525.031189,278.783203 518.601379,277.100952 511.314301,278.657684 
	C511.314301,283.681519 511.314301,288.705353 511.314301,294.044006 
	C514.589417,292.948090 517.488892,291.977814 521.166687,290.935364 
z"/>
<path fill="#CAB78E" opacity="1.000000" stroke="none" 
	d="
M471.471741,360.772644 
	C460.825439,365.260010 450.063324,363.812653 439.161774,363.893066 
	C444.684479,353.520782 440.953827,342.830994 441.841827,332.529175 
	C441.960968,331.146637 440.092865,329.592773 438.648163,327.345398 
	C446.345398,327.345398 453.495514,327.280823 460.643036,327.387787 
	C462.594330,327.416992 464.574341,327.816315 466.479065,328.293640 
	C478.821442,331.386566 483.590576,348.618561 474.675720,357.815369 
	C473.749847,358.770569 472.766144,359.669678 471.471741,360.772644 
M460.242310,330.958374 
	C457.721649,330.563721 455.201019,330.169067 452.350586,329.722778 
	C452.350586,340.560883 452.350586,350.600739 452.350586,360.598145 
	C461.345337,361.621460 466.278839,358.959747 467.557983,351.482788 
	C468.288422,347.213287 468.034393,342.470612 466.907227,338.296448 
	C466.169067,335.562897 463.075012,333.465515 460.242310,330.958374 
z"/>
<path fill="#CAB78E" opacity="1.000000" stroke="none" 
	d="
M645.726135,332.228363 
	C652.373901,338.665100 652.167236,346.309998 649.480469,353.628601 
	C647.221252,359.782532 641.794617,362.795624 634.996460,363.059723 
	C627.124390,363.365570 619.262390,363.931244 610.981384,364.408020 
	C616.569763,353.439514 612.981506,342.755493 613.846313,332.449463 
	C613.951538,331.195312 612.134949,329.779877 611.111938,328.298645 
	C611.311646,328.024323 611.597595,327.321106 611.846985,327.333862 
	C621.208069,327.810822 630.578918,328.202545 639.913208,329.012482 
	C641.833435,329.179077 643.615356,330.940460 645.726135,332.228363 
M639.997986,349.096283 
	C639.998596,347.100891 640.021484,345.105255 639.996094,343.110199 
	C639.872314,333.400024 634.104858,328.752167 624.379150,330.633209 
	C624.379150,340.644501 624.379150,350.676117 624.379150,360.663574 
	C634.412720,361.659332 638.910278,357.910767 639.997986,349.096283 
z"/>
<path fill="#6F776C" opacity="1.000000" stroke="none" 
	d="
M612.299011,291.693512 
	C620.115845,297.003845 622.074524,301.441833 618.115540,307.127289 
	C616.447510,309.522827 612.711548,311.536835 609.763245,311.766205 
	C603.274536,312.270966 596.688904,311.530090 589.762207,311.284149 
	C590.786804,306.590302 591.606567,302.834625 592.694519,297.850433 
	C594.185852,299.588501 595.280518,300.428223 595.794495,301.537109 
	C598.349670,307.049866 603.403992,309.990173 609.161255,308.932556 
	C610.140686,308.752594 611.512878,307.990631 611.746155,307.211121 
	C611.993530,306.384277 611.395630,304.820526 610.653259,304.264618 
	C607.260437,301.724213 603.651978,299.474609 600.191223,297.021423 
	C597.793701,295.321960 595.469055,293.512299 593.186218,291.660248 
	C589.862854,288.964050 587.856018,285.577698 589.368225,281.245270 
	C591.026917,276.493103 595.403687,275.350891 599.685608,275.096649 
	C605.898560,274.727753 612.149719,275.002106 619.225281,275.002106 
	C617.967102,280.291626 617.044678,284.169678 616.122192,288.047729 
	C615.666443,288.209900 615.210632,288.372040 614.754883,288.534210 
	C612.482239,282.776947 609.218140,278.117065 602.681335,278.091431 
	C600.098267,278.081299 597.511353,279.046143 594.926208,279.567047 
	C594.838257,280.179871 594.750366,280.792694 594.662476,281.405518 
	C600.442993,284.761444 606.223450,288.117401 612.299011,291.693512 
z"/>
<path fill="#CAB78E" opacity="1.000000" stroke="none" 
	d="
M490.259460,327.948730 
	C492.505951,327.360992 494.652191,326.898041 496.752075,327.055023 
	C502.205872,327.462677 504.890594,323.640778 508.578674,319.687134 
	C509.613495,320.647705 511.914307,322.040649 511.720032,322.754578 
	C511.288757,324.339264 509.852295,325.986389 508.383118,326.882568 
	C505.334747,328.742188 502.656769,330.455017 502.959320,334.685669 
	C503.442230,341.438965 503.553436,348.218842 504.035400,354.972229 
	C504.291626,358.562378 506.458893,360.963226 510.118073,360.873596 
	C513.808594,360.783203 517.329834,359.071442 517.745728,355.078613 
	C518.532227,347.527374 518.753418,339.904144 518.847656,332.306366 
	C518.863953,330.992310 517.095825,329.656158 515.678406,327.664948 
	C518.964539,327.664948 521.802551,327.664948 525.480225,327.664948 
	C520.118591,331.865112 522.472778,337.288605 522.019470,342.175934 
	C521.608887,346.602264 521.348633,351.042908 521.048767,355.479034 
	C520.777954,359.484985 518.288818,361.586884 514.863403,363.081573 
	C507.051941,366.490326 496.692352,363.393646 493.897797,356.597900 
	C493.292999,355.127106 493.071899,353.415741 493.039093,351.807770 
	C492.933990,346.651672 492.875854,341.487976 493.046112,336.335358 
	C493.149780,333.198700 493.029388,330.320282 490.259460,327.948730 
z"/>
<path fill="#6F776C" opacity="1.000000" stroke="none" 
	d="
M637.000000,295.923126 
	C637.000183,298.242340 637.032471,300.076080 636.993896,301.908295 
	C636.913208,305.743195 638.658508,308.385040 642.458557,308.898315 
	C646.532288,309.448578 650.277588,307.354706 650.769043,303.554321 
	C651.781921,295.721924 651.792480,287.741455 651.829651,279.820068 
	C651.835632,278.546417 649.847839,277.263397 648.224121,275.315979 
	C652.058411,275.315979 654.931641,275.315979 657.958191,275.315979 
	C652.332825,282.944305 655.775879,291.368652 655.098022,299.280121 
	C654.502869,306.225708 651.498291,311.354126 645.735107,311.860504 
	C637.732361,312.563599 629.207520,312.497192 626.832642,304.420471 
	C626.425598,303.036285 626.073547,301.582825 626.037415,300.152740 
	C625.932190,295.989380 626.202698,291.808868 625.941589,287.659271 
	C625.693054,283.709717 624.960327,279.790588 624.390625,275.480316 
	C628.690308,275.480316 634.252502,275.480316 640.641357,275.480316 
	C634.258972,281.647858 638.059204,288.890656 637.000000,295.923126 
z"/>
<path fill="#6F776C" opacity="1.000000" stroke="none" 
	d="
M557.422363,290.760376 
	C559.304199,291.752716 560.840942,292.556763 562.377686,293.360840 
	C562.161499,293.718567 561.945251,294.076324 561.729065,294.434052 
	C559.374268,294.998962 556.848938,295.202362 554.705017,296.214142 
	C551.556335,297.700134 549.634094,303.108368 551.366272,305.623474 
	C553.375854,308.541229 556.487122,310.193268 559.948792,308.431763 
	C563.224121,306.765076 566.094727,304.316711 569.226135,302.343475 
	C570.012634,301.847839 571.116333,301.855560 572.074280,301.632019 
	C571.969849,302.630798 572.207764,303.863953 571.708862,304.592712 
	C565.532166,313.614838 550.244019,314.307129 543.357178,308.753967 
	C537.338379,303.900726 539.333740,297.298401 547.105530,293.454681 
	C545.423767,290.849609 542.686401,288.372253 542.207703,285.516327 
	C541.063599,278.689270 544.642944,276.575470 554.467407,275.138306 
	C559.657959,274.378998 565.051025,275.003998 570.601562,275.003998 
	C571.066711,278.748260 571.497620,282.217041 572.132019,287.323883 
	C570.221069,285.602722 569.045532,285.036713 568.698853,284.147491 
	C567.083740,280.005920 563.311218,278.549255 559.743774,278.312500 
	C557.442261,278.159760 553.775452,280.036865 552.828674,282.013855 
	C551.056519,285.714355 553.734802,288.633545 557.422363,290.760376 
z"/>
<path fill="#6F776C" opacity="1.000000" stroke="none" 
	d="
M460.989563,275.000000 
	C465.453278,275.000000 469.418854,275.000000 473.398956,275.000000 
	C473.939240,278.176392 474.492371,281.017151 474.854767,283.882080 
	C474.933624,284.505402 474.329803,285.215057 474.040405,285.884918 
	C473.360992,285.421600 472.361511,285.112122 472.053070,284.470490 
	C469.688416,279.551392 465.735443,277.759216 460.006409,278.147644 
	C460.006409,287.723663 459.869354,297.173584 460.145294,306.611450 
	C460.189758,308.131805 462.074554,309.598328 463.495300,311.647461 
	C457.626099,311.647461 452.430328,311.647461 447.450745,311.647461 
	C452.799896,300.848328 448.496979,289.458008 450.237335,278.512207 
	C444.017426,278.025909 442.080200,279.144867 435.909058,285.714752 
	C436.227020,282.223450 436.545013,278.732117 436.884918,275.000000 
	C445.225555,275.000000 452.858490,275.000000 460.989563,275.000000 
z"/>
<path fill="#6F776C" opacity="1.000000" stroke="none" 
	d="
M674.844360,275.061707 
	C678.155457,281.542389 681.146606,287.965973 683.967285,294.463593 
	C685.582275,298.183807 686.661072,302.155457 688.484802,305.759094 
	C689.497925,307.761078 691.545593,309.239471 693.735779,311.613861 
	C687.326904,311.613861 681.830017,311.613861 675.918457,311.613861 
	C676.282837,310.683777 676.530457,309.863007 676.920532,309.116699 
	C677.221802,308.540497 677.701599,308.057617 678.101990,307.533203 
	C677.585754,307.282074 677.064697,307.040436 676.554321,306.777954 
	C675.450073,306.210052 674.409241,305.405487 673.238037,305.105469 
	C670.963989,304.522980 668.674194,301.061951 666.365540,304.344910 
	C665.179565,306.031281 665.198975,308.565277 664.469971,311.550171 
	C662.736572,311.550171 659.583069,311.550171 656.125366,311.550171 
	C656.230957,310.850433 656.297058,309.486237 656.458923,309.474731 
	C661.183411,309.139984 661.594421,304.939087 662.862732,301.932617 
	C666.520874,293.260986 669.758850,284.412323 673.215210,275.654236 
	C673.341187,275.334930 674.027710,275.236847 674.844360,275.061707 
M670.642944,300.000671 
	C672.030457,300.077454 673.417908,300.154236 675.037537,300.243866 
	C673.843628,297.208618 672.693726,294.285065 671.219727,290.537781 
	C669.663574,294.172455 668.366516,297.201813 666.926514,300.565125 
	C668.364807,300.293488 669.130188,300.148956 670.642944,300.000671 
z"/>
<path fill="#CAB78E" opacity="1.000000" stroke="none" 
	d="
M673.599976,356.269104 
	C671.518738,356.233246 668.836121,355.740570 668.207092,356.657227 
	C667.087769,358.288300 667.211548,360.772430 666.731689,363.349365 
	C664.477905,363.349365 661.295410,363.349365 657.215576,363.349365 
	C666.171997,356.774017 666.626099,346.779602 670.865479,338.818817 
	C672.843811,335.103699 674.060181,330.982849 676.025330,326.028931 
	C677.381836,327.654846 678.492188,328.511230 678.972168,329.636475 
	C682.658569,338.278992 686.118530,347.019348 689.887329,355.624847 
	C691.033569,358.241943 692.926514,360.531921 694.735352,363.377380 
	C689.367859,363.377380 683.846863,363.377380 677.792542,363.377380 
	C678.673950,361.749207 679.372986,360.457977 679.954651,359.383545 
	C677.782776,358.326111 675.853333,357.386658 673.599976,356.269104 
M676.358948,350.781952 
	C675.441528,348.350464 674.524109,345.918976 673.259399,342.567078 
	C671.658264,346.200958 670.375244,349.113007 668.879822,352.507080 
	C671.797913,352.088226 674.262939,351.734406 676.358948,350.781952 
z"/>
<path fill="#CAB78E" opacity="1.000000" stroke="none" 
	d="
M546.000122,348.000549 
	C543.020325,341.062469 540.161133,334.492950 537.206787,327.704895 
	C541.254028,327.704895 546.418152,327.704895 551.571106,327.704895 
	C548.767761,335.753143 556.438354,341.012939 557.411804,348.275024 
	C558.947144,341.342834 565.291077,335.903168 563.380676,327.497375 
	C565.977417,327.497375 568.782166,327.497375 571.735779,327.497375 
	C569.863342,330.232666 567.585022,332.679474 566.324097,335.570038 
	C562.710754,343.853760 559.551575,352.334625 556.100098,360.691010 
	C555.603149,361.894165 554.480469,362.838837 553.647400,363.903168 
	C552.778748,362.847229 551.621704,361.917572 551.093994,360.712341 
	C549.315613,356.650757 547.760925,352.491180 546.000122,348.000549 
z"/>
<path fill="#CAB78E" opacity="1.000000" stroke="none" 
	d="
M597.000000,353.874939 
	C597.628967,357.201477 598.257935,360.046875 599.003113,363.417908 
	C594.305664,363.417908 588.795288,363.417908 583.073730,363.417908 
	C587.226624,356.572937 587.179749,333.207550 582.755554,327.573181 
	C588.713684,327.573181 594.221741,327.573181 600.947571,327.573181 
	C594.793030,332.187073 597.537476,337.858337 597.062622,342.904907 
	C596.736267,346.372467 597.000000,349.895569 597.000000,353.874939 
z"/>
<path fill="#6F776C" opacity="1.000000" stroke="none" 
	d="
M491.000000,288.042084 
	C491.000000,291.862091 490.856964,295.197479 491.035400,298.515625 
	C491.269745,302.873352 489.259338,307.776306 495.301605,311.593689 
	C488.675079,311.593689 483.502502,311.593689 477.892975,311.593689 
	C483.946198,303.708832 480.088715,294.834351 480.851562,286.465454 
	C481.171448,282.956207 479.855042,279.297821 479.234039,275.402924 
	C483.328094,275.402924 488.502258,275.402924 492.792877,275.402924 
	C492.198547,279.429657 491.599274,283.489746 491.000000,288.042084 
z"/>
<path fill="#FFFFFF" opacity="1.000000" stroke="none" 
	d="
M520.777588,290.971466 
	C517.488892,291.977814 514.589417,292.948090 511.314301,294.044006 
	C511.314301,288.705353 511.314301,283.681519 511.312866,278.655609 
	C518.601379,277.100952 525.031189,278.783203 526.387878,282.931519 
	C527.883179,287.503723 524.400757,289.231537 520.777588,290.971466 
z"/>
<path fill="#FFFFFF" opacity="1.000000" stroke="none" 
	d="
M460.639221,331.020782 
	C463.075012,333.465515 466.169067,335.562897 466.907227,338.296448 
	C468.034393,342.470612 468.288422,347.213287 467.557983,351.482788 
	C466.278839,358.959747 461.345337,361.621460 452.350586,360.598145 
	C452.350586,350.600739 452.350586,340.560883 452.350586,329.722778 
	C455.201019,330.169067 457.721649,330.563721 460.639221,331.020782 
z"/>
<path fill="#FFFFFF" opacity="1.000000" stroke="none" 
	d="
M639.991821,349.537201 
	C638.910278,357.910767 634.412720,361.659332 624.379150,360.663574 
	C624.379150,350.676117 624.379150,340.644501 624.379150,330.633209 
	C634.104858,328.752167 639.872314,333.400024 639.996094,343.110199 
	C640.021484,345.105255 639.998596,347.100891 639.991821,349.537201 
z"/>
<path fill="#FFFFFF" opacity="1.000000" stroke="none" 
	d="
M670.269287,300.002533 
	C669.130188,300.148956 668.364807,300.293488 666.926514,300.565125 
	C668.366516,297.201813 669.663574,294.172455 671.219727,290.537781 
	C672.693726,294.285065 673.843628,297.208618 675.037537,300.243866 
	C673.417908,300.154236 672.030457,300.077454 670.269287,300.002533 
z"/>
<path fill="#FFFFFF" opacity="1.000000" stroke="none" 
	d="
M676.543457,351.081268 
	C674.262939,351.734406 671.797913,352.088226 668.879822,352.507080 
	C670.375244,349.113007 671.658264,346.200958 673.259399,342.567078 
	C674.524109,345.918976 675.441528,348.350464 676.543457,351.081268 
z"/>
</svg>